<svg id="8c986d3f-b15f-4468-8e2e-2b8b2af8f070" data-name="4265e362-bdee-47fb-87de-b46693c729df" xmlns="http://www.w3.org/2000/svg" viewBox="0 0 270.11 85.31"><title>logo</title><path d="M23.55,58.84c-1-3-2-6-2.91-9.55h-.45c-.64,2.91-1.82,6.28-2.82,9.28L8.37,84H0L15.92,43.29a7,7,0,0,0,.55-2.09,6.89,6.89,0,0,0-.64-2.46C13,31,9.74,24.92,4.37,24.92A9.36,9.36,0,0,0,2.82,25l.73-6.18a10.31,10.31,0,0,1,3.09-.36c8.64,0,12.73,8.28,17.46,20.83L40.92,84H32.46Z" transform="translate(0 0.01)" fill="#a3c9f8"/><path d="M79.17,40.47a11.86,11.86,0,0,1,5.77,5.82l-6.55,3.55a14.58,14.58,0,0,0-4-3.77,9.72,9.72,0,0,0-5.46-1.68,13.8,13.8,0,0,0-8.09,2.41,15.32,15.32,0,0,0-5.27,6.5,22.13,22.13,0,0,0-1.82,9.09q0,7.19,2.46,11.69a8.2,8.2,0,0,0,7.73,4.5q7.46,0,10.28-6A30.43,30.43,0,0,0,77,59.48V55.39L85,52V75.94a4.45,4.45,0,0,0,.64,2.27,2.07,2.07,0,0,0,1.91,1.09q2.64,0,4.82-3.64l1.36,1.46a11.34,11.34,0,0,1-3.82,5.23,8.83,8.83,0,0,1-5.46,2.14,6.37,6.37,0,0,1-5.78-2.89,14.16,14.16,0,0,1-1.86-7.73h-.18a23.23,23.23,0,0,1-6.14,8,12.54,12.54,0,0,1-8.14,3.23q-7.73,0-11.69-5.32t-4-14.23a28.86,28.86,0,0,1,3.18-13.32,26.16,26.16,0,0,1,8.69-10A21.18,21.18,0,0,1,70.75,38.6,19.12,19.12,0,0,1,79.17,40.47Z" transform="translate(0 0.01)" fill="#414756"/><path d="M152.65,39.51q1.5,1.77,1.5,6V76.43a3.66,3.66,0,0,0,.66,2.17,2,2,0,0,0,1.73.86,4.15,4.15,0,0,0,2.37-.91,10.4,10.4,0,0,0,2.46-2.64l1.44,1.39A12.57,12.57,0,0,1,158.26,83q-2.64,1.59-1,1.55t-3.91,0q-7.55,0-7.55-9.19V50.2a2.59,2.59,0,0,0-.45-1.55,1.4,1.4,0,0,0-1.18-.64q-2,0-4.37,4.37a46.11,46.11,0,0,0-4,12.32,91.16,91.16,0,0,0-1.64,18.23l-8.28,2.37V50.2a2.6,2.6,0,0,0-.45-1.55,1.32,1.32,0,0,0-1.09-.64q-1.82,0-4.23,4.41a48.47,48.47,0,0,0-4.18,12.37,83.83,83.83,0,0,0-1.77,18.14l-7.82,2.37V46.38a3.68,3.68,0,0,0-.77-2.46,2.46,2.46,0,0,0-2-.91q-2.27,0-4.64,3.91l-1.46-1.46A13.92,13.92,0,0,1,102,39.59a12,12,0,0,1,3.23-1.82H107q4.37,0,5.91,1.86a7.52,7.52,0,0,1,1.55,5V59.82h.33q2.27-9.91,6.14-16t7.68-6a5.14,5.14,0,0,1,4.23,1.73q1.41,1.73,1.41,6V59.83h.54a53.82,53.82,0,0,1,6-16q3.73-6.09,7.59-6A5.24,5.24,0,0,1,152.65,39.51Z" transform="translate(0 0.01)" fill="#414756"/><path d="M208.72,75.94a4.62,4.62,0,0,0,.59,2.32,2,2,0,0,0,1.87,1,3.85,3.85,0,0,0,2.55-1.14,7.76,7.76,0,0,0,1.91-2.5l1.73,1.46a14.48,14.48,0,0,1-4.14,5.23A8.47,8.47,0,0,1,208,84.45q-4.18,0-6.09-2.37t-1.82-8.18h-.36q-5.55,11.19-13.55,11.19T174,79.6q-4.23-5.5-4.23-13.78a32.24,32.24,0,0,1,2.82-13,27.41,27.41,0,0,1,8-10.64,18.75,18.75,0,0,1,12-4.18,12.87,12.87,0,0,1,7.46,2.18V3.45L208.67,0Zm-25-29.38a19,19,0,0,0-4.87,7.68,26,26,0,0,0-1.55,8.41,24.45,24.45,0,0,0,1.09,6.82,16,16,0,0,0,3.55,6.41,8.13,8.13,0,0,0,6.28,2.68q6.91,0,9.41-6a33.61,33.61,0,0,0,2.5-13.14V47a12.39,12.39,0,0,0-3.59-2.64,9.91,9.91,0,0,0-4.41-1,11.67,11.67,0,0,0-8.38,3.22Z" transform="translate(0 0.01)" fill="#414756"/><path d="M255.51,40.47a11.86,11.86,0,0,1,5.77,5.82l-6.55,3.55a14.58,14.58,0,0,0-4-3.77,9.72,9.72,0,0,0-5.46-1.68,13.8,13.8,0,0,0-8.09,2.41,15.32,15.32,0,0,0-5.27,6.5,22.13,22.13,0,0,0-1.82,9.09q0,7.19,2.46,11.69a8.2,8.2,0,0,0,7.73,4.5q7.46,0,10.28-6a30.43,30.43,0,0,0,2.82-13.1V55.39l8-3.37V75.94a4.45,4.45,0,0,0,.64,2.27,2.07,2.07,0,0,0,1.91,1.09q2.64,0,4.82-3.64l1.36,1.46a11.34,11.34,0,0,1-3.82,5.23,8.83,8.83,0,0,1-5.46,2.14A6.37,6.37,0,0,1,255,81.58a14.16,14.16,0,0,1-1.86-7.73H253a23.23,23.23,0,0,1-6.14,8,12.54,12.54,0,0,1-8.14,3.23q-7.73,0-11.69-5.32t-4-14.23a28.86,28.86,0,0,1,3.18-13.32,26.16,26.16,0,0,1,8.69-10A21.18,21.18,0,0,1,247.1,38.6,19.12,19.12,0,0,1,255.51,40.47Z" transform="translate(0 0.01)" fill="#414756"/></svg>