<svg id="4265e362-bdee-47fb-87de-b46693c729df"  data-name="Layer 1" xmlns="http://www.w3.org/2000/svg" viewBox="0 0 270.11 85.31"><title>logo</title><path d="M503.74,425.24c-1-3-2-6-2.91-9.55h-.45c-.64,2.91-1.82,6.28-2.82,9.28l-9,25.46h-8.37l15.92-40.74a7,7,0,0,0,.55-2.09,6.89,6.89,0,0,0-.64-2.46c-2.82-7.73-6.09-13.82-11.46-13.82a9.36,9.36,0,0,0-1.55.09l.73-6.18a10.31,10.31,0,0,1,3.09-.36c8.64,0,12.73,8.28,17.46,20.83l16.82,44.74h-8.46Z" transform="translate(-480.19 -366.4)" fill="#a3c9f8"/><path d="M559.36,406.87a11.86,11.86,0,0,1,5.77,5.82l-6.55,3.55a14.58,14.58,0,0,0-4-3.77,9.72,9.72,0,0,0-5.46-1.68,13.8,13.8,0,0,0-8.09,2.41,15.32,15.32,0,0,0-5.27,6.5,22.13,22.13,0,0,0-1.82,9.09q0,7.19,2.46,11.69a8.2,8.2,0,0,0,7.73,4.5q7.46,0,10.28-6a30.43,30.43,0,0,0,2.82-13.1v-4.09l8-3.37v23.92a4.45,4.45,0,0,0,.64,2.27,2.07,2.07,0,0,0,1.91,1.09q2.64,0,4.82-3.64l1.36,1.46a11.34,11.34,0,0,1-3.82,5.23,8.83,8.83,0,0,1-5.46,2.14A6.37,6.37,0,0,1,558.9,448a14.16,14.16,0,0,1-1.86-7.73h-.18a23.23,23.23,0,0,1-6.14,8,12.54,12.54,0,0,1-8.14,3.23q-7.73,0-11.69-5.32t-4-14.23a28.86,28.86,0,0,1,3.18-13.32,26.16,26.16,0,0,1,8.69-10A21.18,21.18,0,0,1,550.94,405,19.12,19.12,0,0,1,559.36,406.87Z" transform="translate(-480.19 -366.4)"/><path d="M632.84,405.91q1.5,1.77,1.5,6v30.92A3.66,3.66,0,0,0,635,445a2,2,0,0,0,1.73.86,4.15,4.15,0,0,0,2.37-.91,10.4,10.4,0,0,0,2.46-2.64L643,443.7a12.57,12.57,0,0,1-4.55,5.68q-2.64,1.59-1,1.55t-3.91,0q-7.55,0-7.55-9.19V416.6a2.59,2.59,0,0,0-.45-1.55,1.4,1.4,0,0,0-1.18-.64q-2,0-4.37,4.37a46.11,46.11,0,0,0-4,12.32,91.16,91.16,0,0,0-1.64,18.23l-8.28,2.37V416.6a2.6,2.6,0,0,0-.45-1.55,1.32,1.32,0,0,0-1.09-.64q-1.82,0-4.23,4.41a48.47,48.47,0,0,0-4.18,12.37,83.83,83.83,0,0,0-1.77,18.14l-7.82,2.37V412.78a3.68,3.68,0,0,0-.77-2.46,2.46,2.46,0,0,0-2-.91q-2.27,0-4.64,3.91l-1.46-1.46a13.92,13.92,0,0,1,4.55-5.87,12.05,12.05,0,0,1,3.23-1.82q.59,0,1.77,0,4.37,0,5.91,1.86a7.52,7.52,0,0,1,1.55,5v15.19H595q2.27-9.91,6.14-16t7.68-6a5.14,5.14,0,0,1,4.23,1.73q1.41,1.73,1.41,6v14.28H615q2.27-9.91,6-16t7.59-6A5.24,5.24,0,0,1,632.84,405.91Z" transform="translate(-480.19 -366.4)"/><path d="M688.91,442.34a4.62,4.62,0,0,0,.59,2.32,2,2,0,0,0,1.87,1,3.85,3.85,0,0,0,2.55-1.14,7.76,7.76,0,0,0,1.91-2.5l1.73,1.46a14.48,14.48,0,0,1-4.14,5.23,8.47,8.47,0,0,1-5.23,2.14q-4.18,0-6.09-2.37t-1.82-8.18h-.36q-5.55,11.19-13.55,11.19T654.21,446q-4.23-5.5-4.23-13.78a32.24,32.24,0,0,1,2.82-13,27.41,27.41,0,0,1,8-10.64,18.75,18.75,0,0,1,12.05-4.18,12.87,12.87,0,0,1,7.46,2.18V369.85l8.55-3.46Zm-25-29.38a19,19,0,0,0-4.87,7.68,26,26,0,0,0-1.55,8.41,24.45,24.45,0,0,0,1.09,6.82,16,16,0,0,0,3.55,6.41,8.13,8.13,0,0,0,6.28,2.68q6.91,0,9.41-6a33.61,33.61,0,0,0,2.5-13.14V413.42a12.39,12.39,0,0,0-3.59-2.64,9.91,9.91,0,0,0-4.41-1A11.67,11.67,0,0,0,663.94,413Z" transform="translate(-480.19 -366.4)"/><path d="M735.7,406.87a11.86,11.86,0,0,1,5.77,5.82l-6.55,3.55a14.58,14.58,0,0,0-4-3.77,9.72,9.72,0,0,0-5.46-1.68,13.8,13.8,0,0,0-8.09,2.41,15.32,15.32,0,0,0-5.27,6.5,22.13,22.13,0,0,0-1.82,9.09q0,7.19,2.46,11.69a8.2,8.2,0,0,0,7.73,4.5q7.46,0,10.28-6a30.43,30.43,0,0,0,2.82-13.1v-4.09l8-3.37v23.92a4.45,4.45,0,0,0,.64,2.27,2.07,2.07,0,0,0,1.91,1.09q2.64,0,4.82-3.64l1.36,1.46a11.34,11.34,0,0,1-3.82,5.23,8.83,8.83,0,0,1-5.46,2.14,6.37,6.37,0,0,1-5.78-2.91,14.16,14.16,0,0,1-1.86-7.73h-.18a23.23,23.23,0,0,1-6.14,8,12.54,12.54,0,0,1-8.14,3.23q-7.73,0-11.69-5.32t-4-14.23a28.86,28.86,0,0,1,3.18-13.32,26.16,26.16,0,0,1,8.69-10A21.18,21.18,0,0,1,727.29,405,19.12,19.12,0,0,1,735.7,406.87Z" transform="translate(-480.19 -366.4)"/></svg>