<svg xmlns="http://www.w3.org/2000/svg" viewBox="0 0 56 56">
  <defs>
    <style>
      .cls-1 {
        fill: #a3c9f8;
        fill-rule: evenodd;
      }
    </style>
  </defs>
  <path id="Path_749" data-name="Path 749" class="cls-1" d="M54.595,61.448c0-.025,0-.049-.026-.049h-.1a.339.339,0,0,0-.026-.171c.026,0,.026.025.026.049.078,0,.052-.049.052-.122h.078c0,.1,0,.2,0,.293Zm-.756-.049c-.078,0-.1-.171-.1-.244h.1c.026.025.026.073.026.122h-.078a.177.177,0,0,1,.052.122Zm2.995-.2h-.078a.694.694,0,0,0-.052-.22c.078,0,.078.025.078.1,0,0,.1.025,0,.025a.126.126,0,0,1,.052.1Zm-2.005,0s-.208-.1,0-.1v.1Zm-.859-.244h-.13a.184.184,0,0,0-.052-.122c-.078,0-.052-.073-.078-.122h.078c0,.1.078,0,.078.122.026-.025.052-.049.052-.073.182,0,.156.1.26.1-.026,0-.052.025-.1.049,0-.1-.052-.073-.156-.073v.073a.055.055,0,0,1,.052.049Zm-.391-.049a.656.656,0,0,0-.13-.146h.078v.073c.026.025.052.049.052.073Zm.73-.049a.431.431,0,0,0-.182-.1h.13v.073c.026,0,.052,0,.052.025Zm2.057-.1h-.078v-.122c-.078,0-.052-.122-.052-.171-.1,0-.026-.049.052-.049a.339.339,0,0,1,.026.171c.078,0,.052.1.052.171Zm-.781-.049-.078-.073a.347.347,0,0,0-.078-.1h.078c0,.073.078.025.078.171Zm-1.875-.049h-.182a.083.083,0,0,1,.052-.025v-.049c-.1,0,.078-.2.078.049.026,0,.052,0,.052.025Zm1.536-.025a.347.347,0,0,0-.078-.1h.078v.1Zm-.651,0c0-.025,0-.049-.026-.049-.13,0-.078-.269-.13-.367-.078,0-.052-.049.026-.049a.18.18,0,0,1,.052.122c.13,0,.079.268.079.341Zm1.093-.1c-.026-.024-.052-.024-.1-.024v-.342c.156,0-.026-.22-.026-.22a.438.438,0,0,0-.13-.171H55.3v-.122c-.078,0-.052-.073-.052-.122a.392.392,0,0,0-.182-.049.251.251,0,0,1-.026.122c-.078,0,.026.122.026.22.052,0,.078,0,.1.025.026,0,.052.025.078.049v.122c.052,0,.078,0,.078.073h-.13v.171c.052,0,.078,0,.1.025.026.049.026.122-.052.122V60.3a.2.2,0,0,0-.13-.025c0-.1-.1-.1-.208-.1-.026-.1-.052-.2-.078-.269h-.052c0-.073-.1,0-.182,0v.122h-.13c0-.049,0-.1-.026-.122h-.1c0-.049,0-.1-.026-.122a.308.308,0,0,0-.13-.122h-.1c0-.049,0-.1-.026-.122-.1,0,.026-.073-.182-.073.026,0,.052,0,.052.025v.122c.1,0,0,.049-.052.049v.122h-.078a.184.184,0,0,0-.052-.122h-.078c0-.073-.052-.049-.13-.049v.122H53.4v.1c.078,0,.052.049.052.122a.205.205,0,0,0-.13-.049.446.446,0,0,1,.026.2c.026.025.052.049.052.073a.2.2,0,0,0-.13-.025c-.026-.025-.052-.049-.078-.049,0-.171-.078.146-.078.171-.078,0-.052.073-.052.122,0,.025-.026.049-.052.073a.365.365,0,0,1,.1.073h-.182V60.4c-.078,0,0-.1,0-.171h-.26c0-.122-.078-.2-.26-.2a1.145,1.145,0,0,0-.078-.171c-.1,0-.052-.146-.078-.2-.078,0-.078-.073-.26-.073a.386.386,0,0,0-.1-.171c.026-.025.052-.049.052-.073H51.86v-.1c-.026-.025-.052-.025-.1-.025,0-.1-.052-.073-.156-.073,0-.073-.13-.122-.13-.244h-.078a.137.137,0,0,0-.1-.049c0-.049,0-.073-.078-.073v-.1c-.078,0-.052-.073-.052-.122h-.078v-.122c0-.025-.026-.049-.052-.073a.393.393,0,0,0-.156.049c0-.073-.026-.073-.1-.073a.7.7,0,0,0-.026-.244h-.13a.308.308,0,0,0-.13-.122v-.171h.078c.026-.025.052-.049.078-.049a.141.141,0,0,1,.1.049c0-.1.13-.513-.052-.513v-.122H50.61c-.026-.025-.052-.049-.078-.049,0,.073-.286.049-.364.049,0-.049,0-.073-.026-.1-.13-.049-.182-.122-.182.1h-.078a.438.438,0,0,0-.13-.171c-.078,0,0-.1,0-.171a.2.2,0,0,0-.13-.025.184.184,0,0,0-.052-.122h-.078v.049c-.208,0-.26-.049-.26-.244-.078,0-.052-.073-.052-.122a.514.514,0,0,0-.208-.049v-.073a.127.127,0,0,0-.052-.1h-.156v-.2a.2.2,0,0,0-.13-.025v-.1a.205.205,0,0,0-.13-.025c0-.073-.052-.049-.13-.049,0-.1-.1-.073-.182-.073v-.049c.078,0,0-.146,0-.244a.8.8,0,0,1,.235-.049.7.7,0,0,1,.026.244.21.21,0,0,1,.13.049c0,.146.13-.146.13.122a.054.054,0,0,1,.052.049c.1,0,.078-.146.078-.22.052,0,.078-.025,0-.025a.339.339,0,0,0-.026-.171c-.13,0-.052-.2-.182-.2v-.073a.347.347,0,0,0-.078-.1C48.528,55,48.5,55,48.45,55c0-.049,0-.073-.026-.1a.761.761,0,0,0-.235-.025.339.339,0,0,0-.026-.171.392.392,0,0,0-.182-.049c-.026,0-.052.025-.078.049,0-.073-.052-.073-.13-.073a.308.308,0,0,0-.13-.122c-.026-.025-.052-.049-.078-.049,0-.122-.052.025-.052.073.1,0,.052.146.052.22h.078v.122H47.46c0-.049,0-.1-.026-.122-.078,0-.052-.073-.052-.122a.308.308,0,0,0-.13-.122.206.206,0,0,1,.13.025l-.078-.146h.13a.25.25,0,0,0,.026-.122h-.078c0-.073-.052-.073-.13-.073v-.1c-.078,0-.052-.073-.078-.122H47.1v.1a.207.207,0,0,0-.1.025v.1h-.13c0-.049,0-.073-.026-.1a.406.406,0,0,0-.182-.025A.341.341,0,0,0,46.6,53.9h-.078c0-.073-.052-.073-.13-.073v-.1c-.13,0,.026-.146-.13-.146a.448.448,0,0,0-.026-.2.537.537,0,0,1,.208.025v.1h.078v-.1c.052,0,.078-.025,0-.025-.026-.025-.052-.049-.078-.049,0-.122-.208-.122-.313-.122a.18.18,0,0,1,.052.122h-.078c-.026,0-.052.025-.1.049-.026-.025-.052-.049-.078-.049a.541.541,0,0,0-.078-.122c0-.025-.026-.049-.052-.073a.205.205,0,0,0-.13-.049c0-.073-.052-.073-.13-.073a1.145,1.145,0,0,0-.078-.171c-.1,0,0-.073-.13-.073,0-.073-.052-.073-.13-.073a1.145,1.145,0,0,0-.078-.171h-.1c0-.049,0-.1-.026-.122-.1,0-.078-.2-.235-.2a1.726,1.726,0,0,0-.026-.367.308.308,0,0,0-.13-.122h-.13c-.026,0-.052.025-.078.049a.984.984,0,0,0-.13-.22c0-.025-.026-.049-.052-.073.13,0,.052-.22.052-.293-.026-.025-.052-.025-.1-.025,0,0-.026-.1-.026,0h-.1c.026,0,.052,0,.052.025,0,.073.078.025.078.171.1,0,0,.073,0,.122l-.156-.073v-.049c-.13,0-.052-.2-.182-.2a.541.541,0,0,0-.078-.122h-.078v-.073c-.078,0-.078-.122-.182-.122v-.1a.406.406,0,0,0-.182-.025.339.339,0,0,0-.026-.171c0-.025-.026-.049-.052-.073a.347.347,0,0,0-.078-.1.761.761,0,0,0-.235-.025.386.386,0,0,0-.1-.171c0-.025-.026-.049-.052-.073-.078,0-.052-.073-.052-.122h-.078c0-.1-.1-.073-.182-.073,0-.073.026-.122-.078-.122l-.078-.22a.965.965,0,0,0-.235-.1c0-.049,0-.073-.026-.1h-.078v-.073a.308.308,0,0,0-.13-.122c0-.025-.026-.049-.052-.073-.13,0,.026-.122-.13-.122,0-.073-.052-.049-.13-.049a.541.541,0,0,0-.078-.122.308.308,0,0,0-.13-.122c0-.025-.026-.049-.052-.073-.1,0,0-.073-.13-.073,0-.073-.052-.049-.13-.049,0-.049,0-.1-.026-.122a.249.249,0,0,0-.1-.122h-.078a.541.541,0,0,0-.078-.122h-.1c0-.049,0-.1-.026-.122-.078,0-.1-.146-.26-.146a.184.184,0,0,0-.052-.122h-.078c0-.146-.26-.122-.26-.244h-.078v-.1c-.026-.025-.052-.025-.1-.025,0-.049,0-.073-.026-.1s-.052-.025-.1-.025c-.026-.025-.052-.049-.078-.049,0-.1-.13-.122-.156-.2-.078,0-.026-.073-.182-.073v-.1a.2.2,0,0,0-.13-.025A.184.184,0,0,0,39,46.69h-.078a1.144,1.144,0,0,0-.078-.171h-.1v-.073h-.078a.184.184,0,0,0-.052-.122h-.078c0-.049,0-.073-.078-.073v-.1a.205.205,0,0,0-.13-.025.308.308,0,0,0-.13-.122,1.145,1.145,0,0,0-.078-.171c-.026,0-.13-.122-.13.049a.207.207,0,0,0-.1.025c-.026,0-.052.025-.078.049a1.146,1.146,0,0,0-.078.171l-.078.073h-.1l-.078.073a.527.527,0,0,0-.078.122l-.13.122h-.1v.122h-.13l-.078.073-.13.122v.1a.3.3,0,0,0-.13.025c-.026,0-.052.025-.078.049a.41.41,0,0,1-.052.122H36.47V47.2h-.078a.356.356,0,0,1-.1.073v.1a.3.3,0,0,0-.13.025c-.026,0-.052.025-.078.049a2.23,2.23,0,0,1-.13.2c-.026,0-.052.025-.078.049a.528.528,0,0,0-.078.122.656.656,0,0,1-.13.146h-.1a.175.175,0,0,1-.026.1c0,.025-.026.049-.052.073-.078,0-.052.073-.078.122l-.313.073a.175.175,0,0,1-.026.1.207.207,0,0,0-.1.025.447.447,0,0,1-.026.171c-.078,0-.052.073-.052.122h-.13v.122l-.078.073-.235.073a.251.251,0,0,1-.026.122c0,.025-.026.049-.052.1l-.078.073h-.208a.41.41,0,0,1-.052.122,1.612,1.612,0,0,0-.078.2.472.472,0,0,0-.13.049v.073h-.1a.251.251,0,0,1-.026.122l-.13.122h-.1l-.078.073c-.026,0-.052.025-.078.049v.122a.576.576,0,0,1-.13.073v.073a.339.339,0,0,0-.078.1c-.052,0-.13,0-.13.073,0,.025-.026.049-.052.073h-.078a.41.41,0,0,1-.052.122.472.472,0,0,0-.13.049.527.527,0,0,0-.078.122c-.026-.025-.052-.049-.078-.049v.122h-.235a1.112,1.112,0,0,1-.026.293.207.207,0,0,0-.1.025.175.175,0,0,1-.026.1h-.1a.251.251,0,0,1-.026.122c0,.025-.026.049-.052.073,0,.025-.026.049-.052.073h-.078c-.026,0-.052.025-.078.049-.026,0-.052.025-.078.049v.146H31.5a.41.41,0,0,1-.052.122h-.078a.29.29,0,0,0,.026-.146c.078,0,.026-.049-.026-.049v.073h-.1c0,.073-.078.049-.13.073v.1a.685.685,0,0,0-.208.025l-.13.122v.22c.026.025.052.049.052.073s-.026.049-.052.073c-.078-.025-.156-.049-.26-.073a.576.576,0,0,1-.13.073c-.026,0-.052.025-.078.049,0,.122-.078-.049-.078-.049h-.1a.175.175,0,0,1-.026.1v.025c.026,0,.052.025.078.049a.082.082,0,0,0-.052.025.447.447,0,0,1-.026.171c.078,0,.156,0,.156-.073a.446.446,0,0,1,.13-.049.251.251,0,0,1-.026.122h-.1l-.078.073c-.052.025-.1.073-.182.122h-.1c-.026,0-.052.025-.1.049,0,.073-.078.049-.13.073-.026,0-.052.025-.078.049a.515.515,0,0,0-.078.122c-.026.025-.052.073-.1.122H29.2c-.026-.025-.052-.049-.078-.049a1.3,1.3,0,0,1-.182.073c0,.049,0,.122-.078.122a.251.251,0,0,1-.026.122H29a.259.259,0,0,1,.13.1v.122l-.078.073H29c0,.073-.1,0-.182,0,0,0-.026-.1-.026,0-.026.025-.052.073-.1.122.026.025.052.049.052.073h-.208c0,.073-.13.025-.13.122a2.231,2.231,0,0,1-.13.2h-.208c-.026,0-.052.025-.1.049a.251.251,0,0,1-.026.122,1.307,1.307,0,0,1-.182.073c-.026,0-.052.025-.078.049a.356.356,0,0,1-.1.073c0,.122-.026.2-.156.2-.026,0-.052.025-.078.049v.171H27.2c.052-.1.052-.317-.1-.317V54.95c.13-.025.235-.049.338-.073v-.049c.13,0-.026-.342-.026-.367h-.13a.527.527,0,0,0-.078.122c0,.025-.026.049-.052.073h-.13c-.026,0-.052.025-.078.049a.356.356,0,0,1-.1.073v.244h-.338c0,.1-.026.2-.156.2v.1a.536.536,0,0,0-.182.025l-.078.22a.205.205,0,0,0-.13-.049c-.026,0-.052.025-.1.049a.251.251,0,0,1-.026.122.207.207,0,0,0-.1.025c-.026,0-.052.025-.078.049v-.073c.078,0,.078-.049.078-.122.078,0,0-.146,0-.22-.026-.025-.235-.049-.235.049-.1,0-.1.146-.1.244.078,0,.182.2.052.2-.026.025-.078.049-.13.1v-.22c.1,0,.052-.122-.078-.122,0,.073-.1.073-.1.22a1.031,1.031,0,0,0-.26.025.175.175,0,0,1-.026.1,1.571,1.571,0,0,0-.208.1v.1a.536.536,0,0,0-.182.025c-.026.073-.052.146-.078.244H24.1a.29.29,0,0,0,.026-.146c.078,0,.13-.122.13-.22a1.031,1.031,0,0,1,.26-.025.365.365,0,0,0,.1-.073.174.174,0,0,0,.026-.1c.052,0,.078-.025,0-.025-.026-.025-.052-.049-.078-.049,0-.122-.078-.025-.078.049a1.947,1.947,0,0,0-.364.025v-.391c.078,0,.052-.049.052-.1a.083.083,0,0,1,.052-.025.765.765,0,0,0-.235.025,1.112,1.112,0,0,1-.026.293h-.26a.577.577,0,0,1-.13.073v-.073c.026-.025.052-.049.052-.073h.078c0-.073.078-.025.078-.122.1,0,.1-.122.1-.22a.472.472,0,0,0-.13.049h-.1a.251.251,0,0,1-.026.122c0,.025-.026.049-.052.073,0,.025-.026.049-.052.1h-.13c-.026-.025-.052-.049-.078-.049a.527.527,0,0,0-.078.122h-.1a1.372,1.372,0,0,1-.1.171.536.536,0,0,0-.182.025c0,.073-.078.049-.13.049v-.122c.078,0,.052-.049.052-.122h-.1l-.078.073c0,.1-.208.073-.208.22a.127.127,0,0,0-.052-.1c.078,0,.078-.049.078-.122a.3.3,0,0,1,.13-.025v-.1a.3.3,0,0,1,.13-.025l.13-.122c0-.049.156-.122.052-.122v-.1H22.77c-.026,0-.052.025-.1.049l-.078.073c-.052.025-.1.073-.182.122-.026,0-.052.025-.078.049v-.122l.078-.073c.052-.049.078-.1.1-.122a1.032,1.032,0,0,0-.26.025l-.13.122c0,.073-.13.1-.182.122,0,.025.13.122-.078.122,0,.146-.078-.1-.078.049h-.13v.073c-.078,0-.13.146-.13.22a.536.536,0,0,0-.182.025,1.863,1.863,0,0,1-.208.073.607.607,0,0,1-.052.171H21a.528.528,0,0,0-.078.122h-.1a.576.576,0,0,1-.13.073c-.026,0-.052.025-.078.049a.514.514,0,0,0-.078.122.528.528,0,0,0-.078.122l-.13.122a1.031,1.031,0,0,0-.26.025c-.052.025-.1.073-.182.122,0,.073-.13.1-.182.122-.026,0-.052.025-.078.049V57.05a.347.347,0,0,1,.078-.1.536.536,0,0,1,.182-.025c0-.073.078-.025.078-.122.078,0,.026-.073.13-.073l.13-.122c0-.073.052-.049.1-.049a.25.25,0,0,0,.026-.122c.026-.025.052-.049.052-.073h.078c.026-.025.052-.049.078-.049v-.073l.13-.122h.1a.174.174,0,0,0,.026-.1c.052,0,.13.1.13-.025.078,0,.052-.1.052-.171h-.13c0,.1-.235.122-.338.122,0,.073-.078.049-.13.049v.073c0,.025-.026.049-.052.073h-.26c-.026,0-.052.025-.078.049v.073a.472.472,0,0,0-.13.049,1.305,1.305,0,0,1-.182.073.175.175,0,0,1-.026.1c-.078,0-.052.122-.052.2h-.13v-.073a.1.1,0,0,0-.078.025c0,.073-.235.049-.313.049a.577.577,0,0,1-.13.073.251.251,0,0,1-.026.122h-.052c0,.073-.078,0-.156,0a.356.356,0,0,1-.1.073h-.157c0,.073-.13.1-.182.122v.1c-.078.025-.182-.025-.182.122h-.078c0-.073.078-.025.078-.122l.13-.122c.13,0,.13-.073.13-.171.078,0,.026-.073.182-.073l.078-.073a.339.339,0,0,0-.026-.171c-.026,0-.13-.122-.13.049a.207.207,0,0,0-.1.025.175.175,0,0,1-.026.1c-.078,0-.052.1-.052.146l-.313.073v.1H17.9a.7.7,0,0,0-.026-.244c0-.025-.026-.049-.052-.073.078,0,.052-.1.052-.171,0-.025-.026-.049-.052-.073.078,0,.078-.049.078-.122l.052-.049c-.078,0,.026-.122.026-.2l.13-.122c.052-.049.078-.1.1-.122h.078V55.8a.347.347,0,0,1,.078-.1.3.3,0,0,1,.13-.025c0-.049,0-.073-.026-.1,0-.025-.026-.049-.052-.073.1,0,.078-.171.078-.244.026-.025.052-.049.052-.073a.684.684,0,0,0-.208.025c0,.073-.13.1-.182.122v.1a.3.3,0,0,0-.13.025c0,.073-.156.1-.156.22a.207.207,0,0,0-.1.025.175.175,0,0,1-.026.1.3.3,0,0,0-.13.025v.1a.3.3,0,0,0-.13.025.356.356,0,0,1-.1.073A.083.083,0,0,1,17.431,56v-.073c.078,0,.078-.1.078-.171.286,0,.235-.2.235-.415,0-.025-.026-.049-.052-.073-.078,0-.13-.122-.313-.049v-.1a1.607,1.607,0,0,1,.182-.1V54.95l.078-.073c.156,0-.13-.122.1-.122a.447.447,0,0,0,.026-.171h.052c0-.122-.1-.049-.182-.049-.026,0-.052.025-.078.049-.026.073-.052.146-.078.244a.205.205,0,0,0-.13-.049c-.026,0-.052.025-.1.049l-.078.073v-.073l.078-.073h.1a.25.25,0,0,0,.026-.122c.13,0-.026-.22-.026-.22h-.1c0,.073-.078.049-.13.049-.026,0-.052.025-.078.049v-.1c.026-.025.052-.049.052-.073-.078,0-.052-.171-.052-.244h-.078c-.026,0-.052.025-.078.049,0,.073-.13.049-.182.049,0-.122-.078.049-.078-.049a.205.205,0,0,0-.13-.049c-.026.025-.078.049-.13.1v.073c-.13,0,.026.073.026.073a1.4,1.4,0,0,1-.026.317c-.078,0-.1.122-.1-.122.078,0,.052-.073.052-.146-.1,0-.052-.171-.078-.244-.078,0-.052.073-.078.122,0,.025-.026.049-.052.073-.078,0-.052.073-.078.122,0-.025-.026-.049-.052-.073-.13,0,.052-.2-.13-.2V54.07c-.078,0,0-.073,0-.122h.078v-.22c.078,0,.052.1.052.171h.078c0,.073.235.049.313.049v-.122a.392.392,0,0,0-.182-.049c-.026-.025-.052-.049-.078-.049v-.073c-.078,0,0-.073,0-.122a2.086,2.086,0,0,0-.391-.025v.073c.078,0,.052.073.052.146a.761.761,0,0,0-.235-.025c0-.22-.026-.171-.208-.171,0,.1-.26.049-.338.073,0,.1-.26.122-.391.122,0,.073-.078.049-.13.049l-.078.073-.13.122v-.122c-.078,0-.052-.073-.052-.122a.537.537,0,0,1,.182-.025.127.127,0,0,0-.052-.1h-.078c-.026,0-.052.025-.078.049,0,.1-.338.049-.442.073v-.073a.541.541,0,0,0-.078-.122h-.078v.2c-.078,0-.1.122-.235.122a.251.251,0,0,1-.026.122h-.1c-.026,0-.052.025-.078.049v-.073c0-.073.078-.025.078-.171h.13c0-.1-.052-.073-.156-.073a.137.137,0,0,0-.1-.049c0,.122-.286-.025-.286.171a.537.537,0,0,0-.182.025c0,.073-.13.049-.208.049,0,.073-.078.049-.13.049,0-.073-.052-.049-.13-.049v.073c.13,0,.052.122.052.22-.052,0-.13,0-.13.073a1.861,1.861,0,0,1-.208.073.576.576,0,0,1-.13.073.41.41,0,0,1-.052.122h-.13c0,.073-.078.049-.13.049a.527.527,0,0,0-.078.122c0-.025-.026-.049-.052-.073a.446.446,0,0,1,.13-.049v-.073a.347.347,0,0,1,.078-.1c.052-.025.13-.025.13-.1l.13-.122h.182a.447.447,0,0,0,.026-.171c.078,0,.1-.1.1-.171a.2.2,0,0,0-.13-.025V53.6c0-.025-.026-.049-.052-.073h-.13c-.078.025-.156.049-.26.073a.083.083,0,0,1,.052-.025v-.073a.684.684,0,0,0-.208.025c0,.073-.078.049-.13.049a.086.086,0,0,0,.026-.073c.078,0,.052-.049.052-.122h-.078a.137.137,0,0,0-.1-.049c-.026,0-.052.025-.078.049a.251.251,0,0,1-.026.122h-.13a.25.25,0,0,0,.026-.122l.13-.122c.1,0,0-.073,0-.122a1.031,1.031,0,0,0-.26.025.175.175,0,0,1-.026.1.207.207,0,0,0-.1.025.072.072,0,0,1-.026.049v-.293h.078v-.073c.1,0,.052-.244.052-.317a.308.308,0,0,0-.13-.122h-.1c0-.1-.13-.073-.208-.073v-.171h-.078c0-.073-.052-.073-.13-.073a.184.184,0,0,0-.052-.122c.182,0,.156-.415.1-.562H9.956v-.171c0-.025-.026-.049-.052-.073H9.826a.184.184,0,0,0-.052-.122h.1c0-.073.078-.073.156-.073a.636.636,0,0,0-.026-.22H9.9a.175.175,0,0,1-.026.1.3.3,0,0,0-.13.025c-.026,0-.052.025-.1.049a.251.251,0,0,1-.026.122h-.1v-.171a.536.536,0,0,1,.182-.025c0-.073,0-.122.078-.122,0-.146.26.049.26-.122.052-.049.078-.1.1-.122h-.26c0-.146-.182-.049-.313-.049,0,.171-.078-.171-.078-.171-.026-.025-.052-.025-.1-.025V50.28A1.235,1.235,0,0,0,9.1,50.3v-.073c-.078,0-.052-.073-.078-.122-.078,0-.026-.073.026-.073v-.122c.156,0,.052-.122.052-.171-.078,0-.052-.122-.052-.2h.1v-.073h.078c.026-.025.052-.049.078-.049a1.655,1.655,0,0,1,.078-.2c.078,0,.052-.049.052-.1.026-.025.052-.049.052-.073h-.1v-.073l.13-.122h.1a.174.174,0,0,0,.026-.1c.078,0,.052-.049.052-.1a1.031,1.031,0,0,0-.26.025c-.026,0-.052.025-.078.049a.567.567,0,0,0,.026-.2c.078,0,.1-.122.26-.122l.13-.122v-.1c.026-.025.052-.049.052-.073-.078,0-.052-.122-.078-.171h-.1v-.073a1.412,1.412,0,0,1,.313.049V47.86c.1,0,.078-.1.078-.171h.052c0-.146-.235-.049-.313-.049a.251.251,0,0,1-.026.122h-.1c-.026,0-.052.025-.078.049-.026,0-.052.025-.078.049v.073H9.3c-.026-.025-.052-.049-.078-.049a1.307,1.307,0,0,1-.182.073c0,.073-.1.049-.156.049-.052.025-.1.073-.182.122a1.145,1.145,0,0,1,.078-.171.206.206,0,0,1,.1-.025c.026-.025.052-.049.078-.049v-.073c.13,0,.026-.122,0-.171a.124.124,0,0,1,.052.1H9.1c.026-.025.052-.049.078-.049,0-.073.052-.073.13-.073.026-.1.052-.171.078-.244a.446.446,0,0,1,.13-.049.365.365,0,0,0,.1-.073.25.25,0,0,0,.026-.122,1.306,1.306,0,0,0,.182-.073v-.1c.1,0,.078-.122.078-.2.026-.025.052-.049.052-.073h-.13v.073a.528.528,0,0,0-.078.122h-.1c0,.073-.078.049-.13.049a.569.569,0,0,1-.026.2,2.084,2.084,0,0,0-.391.025l-.078.22a1.031,1.031,0,0,0-.26.025v.1a.536.536,0,0,0-.182.025c0,.073-.052.025-.052-.025a.446.446,0,0,1,.13-.049.387.387,0,0,0,.052-.122,1.91,1.91,0,0,0,.208-.073v-.1a.206.206,0,0,1,.1-.025.25.25,0,0,0,.026-.122c.052-.073.1-.122.13-.171a.206.206,0,0,1,.1-.025c.026-.049.026-.122.1-.122,0-.073.052-.049.1-.049a.25.25,0,0,0,.026-.122h.1a.567.567,0,0,0,.026-.2c.078,0,.13,0,.13-.073.1,0,.078-.122.235-.122A.25.25,0,0,0,10.035,46l.13-.122a.446.446,0,0,1,.13-.049l.078-.073v-.1c.026-.025.052-.049.052-.073h.13v-.073c.078,0,.026-.073.182-.073a.25.25,0,0,0,.026-.122h.1a.174.174,0,0,0,.026-.1A.206.206,0,0,1,11,45.2a.174.174,0,0,0,.026-.1.3.3,0,0,1,.13-.025c0-.073.078-.025.078-.122.052-.073.1-.122.13-.171.026-.025.052-.049.052-.073.078,0,.078-.049.078-.122h.13v-.073c.078,0,.13-.146.13-.244l.13-.122h.13c0-.073.078-.025.078-.122h.182c.026-.025.052-.049.078-.049a.365.365,0,0,0,.1-.073.25.25,0,0,0,.026-.122h.1v.073a.347.347,0,0,1,.156-.025.339.339,0,0,0-.026-.171.386.386,0,0,0-.1-.171c.026-.025.052-.049.052-.073h.078a.388.388,0,0,0,.052-.122h.13c.026,0,.052.025.078.049.026-.025.052-.049.078-.049,0-.073.052-.049.1-.049V43.17h.078c0-.073.1-.073.182-.073a.184.184,0,0,0-.052-.122c.026-.025.052-.049.052-.073-.078,0,0-.073,0-.122h.078c0-.073.052-.049.13-.049,0-.073.078-.049.156-.049v-.122c.026-.025.052-.049.052-.073h.078a.365.365,0,0,0,.1-.073v-.1a.3.3,0,0,1,.13-.025v-.073h.286v-.293a2.12,2.12,0,0,1,.391-.049c0-.073,0-.146.078-.146v-.1c.026-.025.052-.049.052-.073h.078a.365.365,0,0,0,.1-.073,1.4,1.4,0,0,0,.026-.317c.052-.025.078-.049.1-.049a2.9,2.9,0,0,1,.026.489H15.4c0-.073.052-.049.1-.049a.567.567,0,0,0,.026-.2c.026-.025.052-.049.052-.073-.1,0-.052-.489-.052-.586a.536.536,0,0,1,.182-.025v-.073c.078,0,.052-.049.052-.1a.347.347,0,0,1,.156-.025v-.1h.13a.141.141,0,0,1,.1.049,1.4,1.4,0,0,0,.026-.317.446.446,0,0,1,.13-.049v.122h.26c.026-.1.052-.171.078-.244.1,0,0-.073,0-.122h-.078c0,.122-.052-.025-.052-.073h.1a.25.25,0,0,0,.026-.122h.13v-.122c.078,0,.026-.073.13-.073,0-.073.052-.049.1-.049a.446.446,0,0,1,.026.2h.182a.29.29,0,0,0,.026-.146c.078,0,.052-.049.052-.1.026-.025.052-.049.052-.073-.078,0-.1-.171-.1-.244a.206.206,0,0,1,.1-.025c.026-.025.052-.049.078-.049,0-.073.052-.073.13-.073.026-.025.052-.049.078-.049l.235.073c.026,0,.052.025.078.049a.856.856,0,0,0,.026-.244c.026-.025.052-.049.052-.073h.208a.669.669,0,0,0,.052-.22c.078,0,.078-.073.078-.146.026-.025.052-.049.052-.073a.205.205,0,0,0-.13-.049v-.122H18.5v.073h.13a.448.448,0,0,0-.026-.2c0-.025-.026-.049-.052-.073h.13V37.9a.825.825,0,0,1,.26.049.174.174,0,0,0,.026-.1c.078,0,.052-.049.052-.122V37.7a1.145,1.145,0,0,0-.078-.171h.208l.078-.073v-.073h.1a.174.174,0,0,0,.026-.1c.078,0,.052-.073.052-.146-.078,0-.052-.073-.052-.122l.13-.122c.052-.073.1-.122.13-.171l.078-.073h.1v.122c0,.025-.026.049-.052.073h.078c0-.073.052-.073.13-.073v-.049c.13,0,.1-.2.1-.317-.078,0-.052-.049.026-.049v.1h.13c.052-.049.1-.073.13-.1v-.073c.156,0,.052-.244.208-.244,0,.073.078,0,.13,0a.388.388,0,0,0,.052-.122c.1,0,.026-.073-.052-.073V35.6a.446.446,0,0,1,.13-.049v.22h.13v-.1a.206.206,0,0,1,.1-.025.25.25,0,0,0,.026-.122h.26c.026-.122.052-.244.078-.342.052,0,.078-.025,0-.025,0,0-.026-.1-.026,0h-.078c0-.049-.1-.122.026-.122l.078-.073v-.122c.052,0,.13-.146.13-.049H21.6c0,.073.078,0,.13,0,0-.1.078,0,.13,0v.122c.1,0,0,.073,0,.122,0,.025-.026.049-.052.073a1.412,1.412,0,0,1,.313.049v-.049c.13,0,.052-.171.052-.244a.2.2,0,0,0-.13-.025v-.1c-.026-.025-.052-.025-.1-.025a.388.388,0,0,0,.052-.122.446.446,0,0,1,.13-.049c0-.1.182-.073.26-.073a.25.25,0,0,0,.026-.122c.078,0,.052-.122.052-.2a.392.392,0,0,0-.182-.049v-.073c.078,0,.052-.049.052-.1a.3.3,0,0,1,.13-.025v-.122a.206.206,0,0,1,.13.025c0,.073.078.049.13.049,0-.122.156-.049.208-.049a.141.141,0,0,1,.1.049c0,.073.208.049.286.049v-.122h-.078c0-.1-.1-.073-.1-.22a.206.206,0,0,1,.1-.025.174.174,0,0,0,.026-.1c.1,0,0-.1.13-.1l.13-.122v-.1c.026-.025.052-.049.052-.073l.078-.073c.1,0-.026-.122-.026-.171a.205.205,0,0,0-.13-.049c-.078,0-.052-.073-.052-.122a.536.536,0,0,1,.182-.025c0-.049.026-.073.026,0h.1a.25.25,0,0,0,.026-.122h.13a.387.387,0,0,0,.052-.122c0-.025-.026-.049-.052-.073h-.078a1.145,1.145,0,0,0-.078-.171,11154.557,11154.557,0,0,1-.261-.245c0-.025-.026-.049-.052-.073h-.078a.446.446,0,0,0-.052-.2c.078,0,.052-.049.052-.1,0-.025-.026-.049-.052-.073-.078-.025-.182-.049-.286-.073v-.1a1.694,1.694,0,0,0-.364-.025v-.122c.052,0,.078,0,.1.025v-.2c-.026-.025-.052-.025-.1-.025a.636.636,0,0,0-.026-.22c-.1-.025-.26-.049-.26.1h-.1a.386.386,0,0,0-.1-.171h-.1c0-.049,0-.1-.026-.122a.308.308,0,0,0-.13-.122.249.249,0,0,0-.1-.122c.078,0,.026-.073.13-.073a1.112,1.112,0,0,0-.026-.293c-.13-.049-.182-.122-.364-.122a.29.29,0,0,0-.026-.146h-.26a1.146,1.146,0,0,0-.078-.171c-.078,0-.052-.1-.052-.146a.684.684,0,0,0-.208.025c-.026,0-.052.025-.1.049,0-.1-.1-.073-.208-.073,0-.1-.156-.122-.156-.22-.078,0-.052-.122-.052-.2-.13,0,.026-.2-.182-.2,0-.049,0-.073-.026-.1s-.052-.025-.1-.025c0-.049,0-.1-.026-.122-.078,0-.052-.073-.052-.122a.392.392,0,0,0-.182-.049.175.175,0,0,1-.026.1c-.13,0-.078-.317-.13-.415a.392.392,0,0,0-.182-.049h-.026a3.163,3.163,0,0,0-.495-.025V27.73c.026-.025.052-.049.052-.073.078,0,.052-.1.052-.171-.026-.025-.052-.025-.1-.025,0-.049,0-.073-.026-.1-.052,0,.156-.269-.1-.269-.026-.025-.052-.049-.078-.049v.171c.1,0,.052.2.052.269h-.078a.339.339,0,0,1,.026.171h-.078a.184.184,0,0,0-.052-.122c.026-.025.052-.049.052-.073a.347.347,0,0,0-.078-.1.761.761,0,0,0-.235-.025.339.339,0,0,0-.026-.171c0-.025-.026-.049-.052-.073-.078,0-.052-.122-.052-.2.13,0-.026-.171-.026-.171h-.1v.122h-.078a.341.341,0,0,0-.052-.171c.052,0,.078-.025,0-.025v-.1a.347.347,0,0,0-.156-.025c0-.073-.052-.049-.13-.049-.026,0-.052.025-.078.049a.693.693,0,0,0-.052-.22c.052,0,.078-.025,0-.025a1.146,1.146,0,0,0-.078-.171h.078v-.073c-.1,0,0-.073-.13-.073,0-.073-.052-.049-.13-.049v.073a.205.205,0,0,0-.13-.025l-.078-.293c0-.025-.026-.049-.052-.073h-.078v.2a.472.472,0,0,0-.13.049,1.146,1.146,0,0,0-.078-.171h-.13a.576.576,0,0,1-.13.073v-.073c0-.025-.026-.049-.052-.073-.078,0-.052-.073-.052-.122h-.078c0-.073-.078-.122-.156-.122,0-.073-.235-.2-.313-.2v-.1c0-.025-.026-.025-.052-.025h.1a.174.174,0,0,0,.026-.1.465.465,0,0,1,.182.122v.122c.078,0,.078.025.078.1a.537.537,0,0,1,.208.025c0,.073.13.049.182.049v-.244c-.078,0-.052-.073-.078-.122h-.235c0-.049,0-.073-.078-.073,0-.073-.13-.049-.208-.049,0,.146-.078-.122-.078-.122,0-.025-.026-.049-.052-.073h-.13a.308.308,0,0,0-.13-.122.541.541,0,0,0-.078-.122.308.308,0,0,0-.13-.122,1.655,1.655,0,0,0-.078-.2.205.205,0,0,0-.13-.049c0-.073-.026-.073-.1-.073,0-.049,0-.073-.026-.1,0-.025-.026-.025-.052-.025.1,0,.208-.025.208.073h.13c0,.1.1,0,.052-.122-.1,0,0-.073-.13-.073a1.146,1.146,0,0,0-.078-.171h-.1c0-.049,0-.1-.026-.122a.406.406,0,0,0-.182-.025.387.387,0,0,0,.052-.122.431.431,0,0,0-.182-.1c-.026,0-.052.025-.078.049a.341.341,0,0,0-.052-.171c.026-.025.052-.049.052-.073a.514.514,0,0,0-.208-.049.693.693,0,0,1-.052.22c.078,0,.052.049.052.122a2.826,2.826,0,0,0-.442.025v.22h-.13a.184.184,0,0,0-.052-.122h-.078c0-.1-.078,0-.156,0a1.18,1.18,0,0,0-.052-.293.205.205,0,0,0-.13-.049c-.026,0-.052.025-.078.049-.078,0-.052-.293-.052-.367a.2.2,0,0,0-.13-.025c-.026-.025-.052-.049-.078-.049,0-.1-.156-.073-.235-.073a.386.386,0,0,0-.1-.171h-.13a.184.184,0,0,0-.052-.122h-.078v-.073a.127.127,0,0,0-.052-.1c.052,0,.078-.025,0-.025,0-.1-.13-.073-.208-.073,0-.073-.13-.122-.13-.244h-.1c0-.171-.156-.122-.156-.244a.541.541,0,0,0-.078-.122c-.078,0-.078-.122-.182-.122a1.145,1.145,0,0,0-.078-.171h-.1c0-.049,0-.1-.026-.122,0-.025-.026-.049-.052-.073-.1,0,0-.073-.13-.073v-.1a.205.205,0,0,0-.13-.025v-.122h-.078a.308.308,0,0,0-.13-.122.212.212,0,0,0-.182-.2c0-.049,0-.1-.026-.122-.078,0-.078-.122-.182-.122a1.146,1.146,0,0,0-.078-.171.308.308,0,0,0-.13-.122c0-.025-.026-.049-.052-.073h-.156v-.122h-.1v-.244c.078,0,.052-.122.052-.2-.1,0-.052-.146-.078-.22,0-.025-.026-.049-.052-.073H9.91l.313.073c0-.025-.026-.025-.052-.025a.448.448,0,0,0-.026-.2h.235a.387.387,0,0,0,.052-.122c-.078,0-.078-.122-.078-.171-.078,0-.052-.073-.052-.122.13,0,.052-.122.052-.2a.249.249,0,0,0-.1-.122h-.078c0-.122-.338-.073-.391-.073v-.22c.026-.025.052-.049.052-.073.1,0,.078-.122.078-.2a.689.689,0,0,1,.182-.049.387.387,0,0,0,.052-.122c-.026-.025-.052-.025-.1-.025,0-.073-.052-.049-.13-.049,0-.049,0-.073-.078-.073a.184.184,0,0,0-.052-.122l.052-.049a.21.21,0,0,1,.13.049c0-.073.078-.025.078-.122h.208v-.1c.1,0-.026-.073-.026-.122-.078,0-.052-.1-.052-.146a.537.537,0,0,1,.208.025v-.073a.206.206,0,0,1,.1-.025v-.122h-.1v-.367h.1a1.4,1.4,0,0,0,.026-.317h.235a.447.447,0,0,0,.026-.171c.078,0,.052-.1.052-.171.1,0,.078-.2.078-.269h.208v-.122c.1,0,.1-.146.1-.244h.078V14.7a1.031,1.031,0,0,1,.26-.025l.078-.367h.235a.25.25,0,0,0,.026-.122c.13,0,.078-.22.052-.293h-.26v.1c0,.025-.026.049-.052.073a.347.347,0,0,0-.156.025v.049c-.078,0-.13.2-.13.293a.207.207,0,0,0-.1.025v.1h-.078c0-.1-.1-.122-.208-.122-.026-.025-.052-.049-.078-.049,0-.073-.026-.073-.1-.073,0-.049,0-.073-.026-.1-.1-.049-.235-.1-.235-.22.1,0,0-.073,0-.122a.689.689,0,0,1,.182-.049,1.146,1.146,0,0,0-.078-.171.347.347,0,0,1,.156-.025v-.1c.1,0,.052-.317.052-.391,0-.025-.026-.049-.052-.073a.446.446,0,0,1,.13-.049c0-.1.235-.073.313-.073v-.1h-.1v-.122c.026-.025.052-.049.052-.073h.078c.13.025.26.049.364.073.026.025.026.049.026.1h.182v-.1c-.078,0-.052-.073-.052-.122.026-.025.052-.049.052-.073-.078,0-.052-.073-.078-.122h-.26v-.073h-.1a.339.339,0,0,0-.026-.171h.208v-.122c.026-.016.052-.041.052-.065h.078l.078-.073V11.73a1.306,1.306,0,0,0,.182-.073v-.073c-.078,0-.052-.122.026-.122,0-.073.052-.049.1-.049a.567.567,0,0,0,.026-.2c.078,0,.052-.049.052-.1a.3.3,0,0,1,.13-.025c0-.122.208.025.208-.122.078,0,.1-.1.1-.171-.078,0-.052-.146.026-.146,0-.073.052-.049.13-.049.026-.1.052-.171.078-.244h.13c0-.073.052-.073.13-.073v-.44a.446.446,0,0,1,.13-.049V9.728c.078,0,.13-.122.13-.22a.206.206,0,0,1,.1-.025.25.25,0,0,0,.026-.122c.1,0,.13-.2.13-.317h.182a.174.174,0,0,0,.026-.1c.026-.025.052-.049.052-.073.156,0-.052-.073.052-.073.026-.025.052-.049.078-.049l.078-.073a.586.586,0,0,0,.052-.171l.078-.073a.206.206,0,0,1,.13.025c0,.073.208.073.208-.025.052-.073.1-.122.13-.171.026-.025.052-.049.052-.073.078,0,.078-.073.078-.122.026-.025.052-.049.052-.073a.446.446,0,0,1,.13-.049c.026-.025.052-.049.078-.049V7.823c.078,0,.026-.073.13-.073V7.433c.078,0,.052-.049.052-.122a.446.446,0,0,1,.13-.049c0-.073.052-.073.13-.073a.447.447,0,0,0,.026-.171c.078,0,.052-.049.052-.122h.078c0-.146.26,0,.26-.146h.1c.026-.025.052-.049.078-.049V6.627a.347.347,0,0,1,.078-.1.536.536,0,0,1,.182-.025.174.174,0,0,0,.026-.1.3.3,0,0,1,.13-.025v-.1a.3.3,0,0,1,.13-.025c0-.073.052-.049.1-.049h.026a1.2,1.2,0,0,1,.26-.049v.1a.206.206,0,0,1,.13.025c0,.073.156.1.26.1V6.26h.13c.026-.025.052-.049.078-.049,0-.122.235-.073.313-.073V6.09c-.078,0,.026-.122.026-.2.026-.025.052-.049.052-.073.078,0,.078-.049.078-.122h.313c.026-.025.052-.049.078-.049V5.577a.446.446,0,0,1,.13-.049c0-.146.859-.049.964-.049.026,0,.052.025.078.049,0,.073.13.049.208.073,0,.073.078.049.13.049a.591.591,0,0,1,.13.073c.026,0,.052.025.078.049,0,.073.13.073.182.073.026,0,.052.025.078.049,0,.073.078.049.13.073a.591.591,0,0,1,.13.073c.026,0,.052.025.078.049v.073h.13a.465.465,0,0,1,.182.122v.1c.1,0,.208-.025.208.073h.078a.365.365,0,0,1,.1.073c.026.025.026.049.026.1a.406.406,0,0,1,.182.025c0,.073.13.049.13.171.052,0,.078,0,.078.073h.1c0,.1.156,0,.156.171.052,0,.078,0,.078.073h.1v.073h.13a.339.339,0,0,1,.026.171h.1c0-.049.026-.073.026,0a.308.308,0,0,1,.13.122c.026.025.052.049.052.073h.13v.073h.13c.026.025.026.073.026.122h.1c.026.025.026.049.026.1.052,0,.078,0,.1.025s.026.049.026.1c.052,0,.1-.1.1.025h.078c0,.073.078.025.078.171h.13a.365.365,0,0,1,.1.073c.026.025.026.049.026.1a.424.424,0,0,1,.182.1c.026.025.026.049.026.1h.1c.026.025.026.073.026.122.026.025.052.049.052.073h.078c0,.073.13.049.182.073a.576.576,0,0,1,.208.122v.1a.206.206,0,0,1,.13.025.308.308,0,0,1,.13.122c0,.073.078.049.13.073,0,.1.208.073.208.22.078,0,.13-.025.13.073h.1a.446.446,0,0,1,.026.2c.1,0,.078.1.078.171h.26c0-.122.13.049.182.073a.591.591,0,0,1,.13.073.424.424,0,0,1,.182.1c.026.025.026.073.026.122a.206.206,0,0,1,.13.025.308.308,0,0,1,.13.122v.293h.078v.073h.052c0,.22.547-.122.547.171.052,0,.078,0,.1.025a.339.339,0,0,1,.026.171c.026.025.052.049.052.073.13,0,.078.293.078.367a.308.308,0,0,1,.13.122h.13v.073h.1c.026.025.026.073.026.122H28.3v-.073c.026-.025.052-.049.052-.073a.206.206,0,0,1,.13.025v.1s.1.025,0,.025v.1c.052,0,.078,0,.078.073h.13c0-.073.052-.049.13-.049,0,.073.078.049.13.049v-.073a.206.206,0,0,1,.13.025v.293c.078,0,.078.073.078.146a1.95,1.95,0,0,1,.364-.025v.269c0,.025-.026.049-.052.1a1.342,1.342,0,0,1,.313.025v-.073a.086.086,0,0,1,.026.073.694.694,0,0,1,.208.171c.026.025.052.049.052.073.078,0,.078.025.078.1a.206.206,0,0,1,.13.025c0,.073.182.049.26.073a.18.18,0,0,1,.052.122h.052c.078.146.078.171.364.171a.365.365,0,0,1,.1.073c.026.025.026.049.026.1.052,0,.078,0,.1.025s.026.049.026.1c.078,0,.052.073.052.146l.313.073v.122c0,.025-.026.049-.052.1-.078,0-.052.073-.052.122.026.025.052.049.052.073.078,0,.078.049.078.122h.078a.365.365,0,0,1,.1.073c.026,0,.052.025.078.049,0-.1.13-.073.208-.073v.073c.026.025.052.049.052.073a.3.3,0,0,1,.13-.025v-.1h.078a.335.335,0,0,1,.052.171c.078,0,.052.073.052.146h.078c.026.025.026.049.026.1h.1a.7.7,0,0,1,.026.244c.078,0,.052.049.052.122.078,0,.078.049.078.122h.235a.25.25,0,0,0,.026-.122h.1v.269c-.156,0,.1.073-.052.073a.18.18,0,0,1,.052.122H33.3c0,.073.156.049.156-.025h.13v.073c.13.025.26.049.364.073a.339.339,0,0,1,.026.171,1.306,1.306,0,0,1,.182.073c.026,0,.052.025.078.049a.591.591,0,0,1,.13.073l.078.293c.026.025.052.049.052.073.13,0,.052.049.052.122-.078,0-.052.073-.052.122.078,0,.078.049.078.122.1,0,.13.146.235.146.026.025.026.049.026.1h.13v-.049c.13,0,.13-.171.13.244.078,0,.078.049.078.122.026.025.052.049.052.073h-.078c0,.073-.078.049-.13.049v.122h-.078c0-.073-.026-.073-.1-.073,0-.049,0-.073-.026-.1s-.052-.025-.1-.025c0-.049,0-.073-.026-.1s-.052-.025-.1-.025c0-.049,0-.073-.026-.1h-.182V17.7c-.078,0-.052.22-.052.293.078,0,.26.025.26-.073h.13v.073a1.305,1.305,0,0,1,.182.073c0,.073.078.049.13.073v.1c.052,0,.078,0,.078.073.1,0,.078.1.078.171.052,0,.078,0,.1.025.026,0,.052.025.078.049,0,.073.26.049.338.049v-.049c.1,0-.026-.2-.026-.293a.2.2,0,0,0-.13-.025c0-.073-.052-.049-.13-.049,0-.073-.026-.073-.1-.073v-.244a1.306,1.306,0,0,1,.182.073.308.308,0,0,1,.13.122.591.591,0,0,1,.13.073c0,.073.078.025.078.171h.208v-.2a.406.406,0,0,1,.182.025v.1c0,.025-.026.049-.052.073.026.025.052.049.052.073.1,0,.078.122,0,.122l-.078.22h.338v-.1h.078a.18.18,0,0,1,.052.122h.13v.2h.078a.83.83,0,0,1,.26.122v.22c.078,0,.078-.1.078-.171a2.175,2.175,0,0,1,.391.049v-.1c.078,0,.052-.073.052-.146-.078,0-.052-.073-.052-.122h-.078v-.122l.078-.073h.338v-.1h.1v.122a.347.347,0,0,1,.156-.025c0-.049.156-.122.052-.122,0-.073-.052-.049-.13-.049,0,.073-.078.049-.13.049v-.122a.347.347,0,0,1,.078-.1h.13v-.073c.13,0-.026-.146.13-.146l.13-.122v-.1c.078,0,.052-.049.052-.122.208,0-.052-.391.156-.391,0-.122.286-.073.364-.073A.447.447,0,0,0,39,17.061c.078,0,.13,0,.13-.073.1,0,0-.122.13-.122v-.171c.026-.025.052-.049.052-.073.1,0,.078-.171.078-.244l.078-.073h.1a.25.25,0,0,0,.026-.122h.182c0-.073.052-.049.13-.049,0-.073.13-.049.208-.049v.171a.446.446,0,0,1,.13-.049V16.06c.078,0,.052-.049.052-.122-.078,0-.052-.073-.052-.122.078,0,.078-.049.078-.122l.235-.073a.174.174,0,0,0,.026-.1.206.206,0,0,1,.1-.025v-.1a2.085,2.085,0,0,1,.391-.025v-.122h-.1c-.026-.025-.052-.049-.078-.049v-.122H40.72c-.026,0-.052.025-.078.049v-.122c.078,0,.052-.049.052-.1a1.031,1.031,0,0,1,.26-.025.25.25,0,0,0,.026-.122h.1c.078.146.078.073.078.244,0,.025-.026.049-.052.073h.26c0-.1.1,0,.182,0,0-.073.052-.073.13-.073a1.726,1.726,0,0,0,.026-.367c-.052-.1-.286-.1-.286.049-.078,0-.182-.049-.182-.122.078,0,.078-.1.078-.171.156,0-.052-.073.052-.073v-.171c.078,0,.078-.049.078-.122A.3.3,0,0,1,41.58,14v-.1c.026-.025.052-.049.052-.073h.078a.365.365,0,0,0,.1-.073.174.174,0,0,0,.026-.1c.026-.025.052-.049.052-.073.078,0,.078-.1.078-.171a1.7,1.7,0,0,1,.338-.025v-.1c.13,0-.052-.22.13-.22,0-.1.13,0,.13-.122.1,0,.13-.146.13-.244.1,0,0-.073,0-.122.078,0,.078-.122.208-.122v-.073c.078,0,.052-.049.052-.1h.078v-.073a1.307,1.307,0,0,0,.182-.073v-.122c.078,0,.078-.049.078-.122.052-.073.1-.122.13-.171.078,0,.026-.073.13-.073a.365.365,0,0,0,.1-.073.174.174,0,0,0,.026-.1c.078,0,.078-.049.078-.122.026-.025.052-.049.052-.073.078,0,.078-.1.078-.171a.761.761,0,0,1,.235-.025.174.174,0,0,0,.026-.1h.26v-.122c.1,0,.052-.244.052-.317.078,0,.078-.049.078-.122h.078v-.073c.078,0,.026-.073.182-.073.026-.025.052-.049.078-.049a.586.586,0,0,0,.052-.171c.078-.025.208,0,.208-.1h.338a.585.585,0,0,0,.052-.171c.078,0,.052-.1.052-.171-.026-.025-.052-.025-.1-.025a.388.388,0,0,0,.052-.122c.078,0,.078-.049.078-.122.078,0,.13-.025.13.073h.1v.073A.347.347,0,0,1,46,9.483v-.1h-.13c0-.1.026-.146-.078-.146V9.166a.689.689,0,0,1,.182-.049c0,.073.1.049.156.049a.387.387,0,0,0,.052-.122h-.078c0-.073-.052-.025-.052.025h-.078a.568.568,0,0,0,.026-.2l.235-.073c.026-.049.026-.122.1-.122v-.1a.206.206,0,0,1,.1-.025c.026-.025.052-.049.078-.049l.078-.073c0-.122.13.049.13.122.026.025.052.049.052.073.078,0,0,.1,0,.171-.078,0-.052.073-.078.122a1.342,1.342,0,0,0-.313.025s-.052.44-.13.44v.171h.078c0-.1.156-.073.235-.073a.447.447,0,0,0,.026-.171c.026-.025.052-.049.052-.073l.078-.073c.078,0,.052-.049.052-.122A.446.446,0,0,1,46.915,9c.026-.025.052-.049.078-.049V8.874c.078,0,.026-.073.13-.073.026-.025.052-.049.078-.049v.122h.1a.25.25,0,0,0,.026-.122l.391-.073V8.508c.026-.025.052-.049.052-.073.026-.025.052-.049.052-.073H47.9c.026-.1.052-.171.078-.244V8.069c0-.122-.13-.049-.208-.049a.541.541,0,0,1,.078-.122c.026-.025.052-.049.052-.073.078,0,.078-.073.078-.122.078,0,.1-.146.313-.049a.607.607,0,0,1-.052.171c-.078,0-.052.171-.052.244h.13c0-.073.052-.073.13-.073,0-.1.13-.073.13-.22a.206.206,0,0,1,.1-.025.174.174,0,0,0,.026-.1h.1c.026.025.026.049.026.1h.078V8h.13a.387.387,0,0,0,.052-.122c.078,0,.078-.073.078-.122h.13a.339.339,0,0,0-.026-.171h-.13c0,.073-.078.049-.13.049a.25.25,0,0,0,.026-.122c.026-.025.052-.049.052-.073-.208,0,.182-.367-.26-.367a.569.569,0,0,1-.026.2,1.306,1.306,0,0,1-.182.073v.1c-.078,0-.078.2-.078.269a.714.714,0,0,0-.182.049v-.1a.127.127,0,0,0-.052-.1c.1,0,.13-.171.13-.293a1.305,1.305,0,0,0,.182-.073l.078-.22a.536.536,0,0,1,.182-.025.447.447,0,0,0,.026-.171.206.206,0,0,1,.1-.025c.026-.025.052-.049.078-.049a.18.18,0,0,1,.052.122v.025c0,.1-.1.049.078.122v.122a.527.527,0,0,1,.208.049v.073a.21.21,0,0,1,.13.049v.073c.052,0,.13.1.13-.025h.078a.669.669,0,0,0,.052-.22c.052,0,.078-.025,0-.025v-.1c.026-.025.052-.049.052-.073h.078c0,.1.078.025.078-.049a.206.206,0,0,1,.1-.025A.25.25,0,0,0,50.17,6.7a.446.446,0,0,1,.13-.049v.1h.1a.25.25,0,0,0,.026-.122.446.446,0,0,1,.13-.049.856.856,0,0,1-.026.244c0,.025-.026.049-.052.073h-.078v.073c-.13,0-.052.244-.235.244a.636.636,0,0,1-.026.22H50.3V7.5c.1,0,.13.146.13.244h.13c0-.049.26-.44-.078-.44a.693.693,0,0,0-.052-.244l.13-.122A2.516,2.516,0,0,1,51,6.967l.078.22c-.078,0-.052.171-.052.244a.406.406,0,0,1,.182.025V7.333c0-.025-.026-.049-.052-.073.1-.025.182-.049.26-.073,0,0,.078-.146.078-.049l.313.073V7.089c.078,0,.078-.049.078-.122a1.031,1.031,0,0,1,.26-.025v-.1a.3.3,0,0,1,.13-.025c0-.1.182-.049.26-.049v.073c.078,0,.052.1.052.171h.156a.591.591,0,0,1,.13.073c0,.1.286.122.391.122v.1a.846.846,0,0,1,.26.025c0,.1.208.073.208.22.052,0,.078,0,.1.025s.026.073.026.122a.825.825,0,0,1,.26.049c.026-.025.052-.049.078-.049,0,.073.13.073.182.073v.1c.1,0,.13.171.13.244a.206.206,0,0,1,.13.025c0,.073.078.049.13.049,0,.1.156.049.208.073.026,0,.052.025.078.049,0,.073.182.049.26.073a.18.18,0,0,1,.052.122h.182c.026.025.026.073.026.122.1.025.182.049.26.073.026,0,.052.025.078.049a.365.365,0,0,1,.1.073c0,.073.078.049.13.049.026.025.026.073.026.122h.13v.122h.1l.156.073c0,.073.078.049.13.073,0,.073.078.049.13.049,0,.073.078.049.13.073v.122a.21.21,0,0,1,.13.049c0,.1.078,0,.078.122.078,0,.13.1.13.171.078,0,.13-.025.13.073h.13c0,.073.13.049.182.073l.156.073v.122c.156,0,.052.146.052.244-.078,0-.052.122-.052.171.026,0,.156.073.052.073V10.8c-.078,0-.052.073-.052.122h.1a.25.25,0,0,0,.026-.122.761.761,0,0,1,.235-.025v.269c-.078,0-.052.073-.052.122a.393.393,0,0,1,.156.049,1.459,1.459,0,0,0,.1-.171.591.591,0,0,1,.13.073.632.632,0,0,1,.026.22.206.206,0,0,1,.13.025h.364a.339.339,0,0,1,.026.171h.078a.18.18,0,0,1,.052.122c.078,0,.078.025.078.122.1,0,.13,0,.13.122,0,0,.1.025,0,.025,0,.1.26.073.364.122v.1a.347.347,0,0,1,.156.025v.049c.1,0,0,.073,0,.073h.078v.1h.13v.1a1.089,1.089,0,0,1,.235.122c.026.025.026.049.026.1.078,0,.13-.025.13.073a.307.307,0,0,1,.13.122c.026.025.052.049.052.073.078,0,.078.025.078.1,0,0,.1.025,0,.025v.1c.052,0,.078,0,.078.073.1,0,.13,0,.13.122.052,0,.078,0,.1.025s.026.049.026.1c.052,0,.078,0,.1.025v.122H61.4v.1a.206.206,0,0,1,.13.025c0,.122.078,0,.078,0v.244c.364,0,.182.171.182.489a.576.576,0,0,1-.13.073v.1c-.078,0-.052.073-.052.122a.3.3,0,0,0-.13.025.447.447,0,0,1-.026.171c-.078,0-.052.073-.052.122.078,0,.052.049.052.122a.207.207,0,0,0-.1.025.856.856,0,0,1-.026.244c-.052,0-.156.122,0,.122.026,0,.052.025.078.049,0-.073.1-.049.182-.049v.122h.157c.078,0,.078-.073.078-.146a.406.406,0,0,1,.182.025v.171a.082.082,0,0,0-.052.025h.1c.026,0,.052.025.078.049,0-.073.052-.049.13-.049v.122c-.078,0,0,.073,0,.122a.21.21,0,0,1,.13.049c0,.025.338.049.338.317a1.146,1.146,0,0,0-.078.171c-.1,0-.052.146.026.146v-.073a1.305,1.305,0,0,0,.182-.073v.122c0,.025-.026.049-.052.073a.824.824,0,0,1,.235.049v.073c-.078,0-.052.073-.052.122a.21.21,0,0,1,.13.049.082.082,0,0,0-.052.025v.1a.124.124,0,0,1,.052.1c.078,0,.078.049.078.122a.124.124,0,0,1,.052.1h.078c0-.073.052-.049.13-.049,0,.073.078.049.13.049V17.7c-.078,0-.078.122-.078.171a1.145,1.145,0,0,0-.078.171c0,.025-.026.049-.052.1a.527.527,0,0,0-.078.122c0,.025-.026.049-.052.1a.527.527,0,0,0-.078.122c0,.025-.026.049-.052.073a1.147,1.147,0,0,0-.078.171.207.207,0,0,0-.1.025c0,.049,0,.122-.078.122a.606.606,0,0,1-.052.171h-.156c0-.122-.078.025-.13.025v.1c-.078,0-.052.073-.078.122v.244a.207.207,0,0,0-.1.025.175.175,0,0,1-.026.1h-.13a.137.137,0,0,0-.1-.049,1.726,1.726,0,0,1-.026.367c0,.025-.026.049-.052.073a.528.528,0,0,0-.078.122l-.13.122c-.078,0-.052.073-.078.122,0,.025-.026.049-.052.073a.576.576,0,0,1-.13.073,1.145,1.145,0,0,0-.078.171c0,.025-.026.049-.052.073a.472.472,0,0,0-.13.049c0,.073-.078.049-.13.073a2.2,2.2,0,0,1-.13.244,1.146,1.146,0,0,0-.078.171.3.3,0,0,0-.13.025v.1h-.182c.026,0,.052,0,.052.025v.1a.684.684,0,0,0-.208.025v.122a.824.824,0,0,0-.235.049v.2c.078,0,.156.122,0,.122a.251.251,0,0,1-.026.122l-.13.122a1.147,1.147,0,0,0-.078.171,1.341,1.341,0,0,0-.313.025v.122a.338.338,0,0,0-.078.1c-.078,0-.052.073-.052.122,0,0,.1.025,0,.025a.528.528,0,0,0-.078.122h-.13a.25.25,0,0,0,.026-.122c.026-.025.052-.049.052-.073.1,0,.078-.122.052-.171h-.182c0,.073-.156.1-.156.22a.207.207,0,0,0-.1.025v.415h-.078v.073h-.182l-.078.073c-.026.146-.052.317-.078.489-.078,0-.052.073-.052.122a.205.205,0,0,0-.13-.049v-.073c.078,0,.078-.049.078-.122.208,0-.156-.367-.156,0a1.3,1.3,0,0,1-.182.073c0,.073-.1.049-.156.049v.122c-.078,0-.052.122-.052.2.078,0,.078.049.078.122.078,0,0,.1,0,.171h-.13c0-.073-.078-.049-.156-.049a.356.356,0,0,1-.1.073.175.175,0,0,1-.026.1c-.078,0-.052.073-.052.122,0,.025-.026.049-.052.073h-.078l-.078.073c-.026,0-.052.025-.078.049,0,.073-.13.049-.182.049-.026-.025-.052-.049-.078-.049v.073c-.13,0-.1.317-.1.44.156,0,.1.269.1.367-.026.025-.052.073-.1.122h-.13c0,.073-.078.049-.13.049l-.078.073a1.112,1.112,0,0,1-.026.293,2.827,2.827,0,0,0-.442.025c0,.073-.13.1-.182.122v.415h-.078a.693.693,0,0,0-.052-.244c.1,0,.052-.171.052-.244h.13l.078-.073v-.1c.052,0,.078-.025,0-.025a.448.448,0,0,0-.026-.2.765.765,0,0,0-.235.025c0,.073-.1.049-.156.073v.1a.3.3,0,0,0-.13.025c-.026,0-.052.025-.078.049v.073c-.026.049-.078.1-.13.171,0,.025-.026.049-.052.073-.078,0,0,.073,0,.122a.339.339,0,0,0-.078.1c-.078,0-.052.122-.052.2.156,0,.26.025.182.2,0,.025-.026.049-.052.073-.078,0-.052.293-.052.367a.2.2,0,0,0-.13-.025c0-.1-.052.025-.13.025-.1.025-.208.049-.338.073a.175.175,0,0,1-.026.1c-.052,0-.13,0-.13.073-.078,0-.052.073-.052.122h-.078c0,.073-.13.073-.182.073a1.146,1.146,0,0,0-.078.171H53.98a.356.356,0,0,1-.1.073.251.251,0,0,1-.026.122c0,.025-.026.049-.052.073.078,0,.078.025.078.1.13.122.052.049.052.244,0,.025-.026.049-.052.073h-.13l-.078.073v.1h-.078v.22c-.078,0-.052.122-.052.171-.078,0-.052.122-.078.171h-.13V29.6a.514.514,0,0,0-.208-.049c0,.073-.078.049-.13.049v-.049c-.1,0-.1.2-.1.293.078,0,.052.049.052.122-.1,0-.052.293-.078.391a.472.472,0,0,0-.13.049v-.122H52.6a.356.356,0,0,1-.1.073.251.251,0,0,1-.026.122c-.078,0-.052.073-.052.122.078,0,.052.049.052.122,0,.025-.026.049-.052.1a1.688,1.688,0,0,0-.338.025c-.026,0-.052.025-.078.049-.026,0-.052.025-.1.049a.387.387,0,0,0,.052-.122c.1,0,.078-.146.078-.22.026-.025.052-.049.052-.073a.205.205,0,0,0-.13-.049l-.13.122v.1l-.078.146c-.078,0-.052.073-.052.122a.21.21,0,0,1,.13.049.082.082,0,0,0-.052.025.447.447,0,0,1-.026.171l-.235.073v.1h-.078a.251.251,0,0,1-.026.122h-.13v.073c-.078,0-.1.122-.13.171-.078,0-.052.269-.052.342a1.146,1.146,0,0,0-.078.171.472.472,0,0,0-.13.049v.073l-.235.073a.448.448,0,0,0-.026-.2h-.313c0,.073-.078.049-.13.073V32.5h.1a.073.073,0,0,0,.026-.049v.1a.124.124,0,0,1,.052.1c.1,0,.078.171.078.244a.694.694,0,0,1,.208.171c.078,0,.13.1.13.171h.13c0-.073.13-.1.13-.244h.13c0-.1.208-.122.338-.122v.073c.182.025.338.049.495.073.026.049.026.122-.052.122a.259.259,0,0,1,.13.1c0-.122.26.1.26.22h.078v.1a.206.206,0,0,1,.13.025c0,.073.078.025.078.171a1.306,1.306,0,0,1,.182.073v.1c.078,0,.078.073.078.146a.21.21,0,0,1,.13.049.365.365,0,0,1,.1.073c0,.1.1-.025.1.122.026.025.052.049.052.073.078,0,.078.025.078.1.052,0,.078,0,.1.025s.026.049.026.1h.1a.446.446,0,0,1,.026.2c.026.025.052.049.052.073a.21.21,0,0,1,.13.049V35a.591.591,0,0,1,.13.073v.1c.052,0,.078,0,.078.073.13,0-.052.073.052.073.026,0,.052.025.078.049a.591.591,0,0,1,.13.073c.026,0,.052.025.078.049a.18.18,0,0,1,.052.122.591.591,0,0,1,.13.073V35.8c.078,0,.078.049.078.122h.235a.339.339,0,0,1,.026.171c.026.025.052.049.052.073a1.613,1.613,0,0,0-.078.2h.078c.026.025.026.049.026.1.026.025.052.049.052.073h.078a.141.141,0,0,1,.1.049c0-.049.026-.073.026,0,.078,0,.13-.025.13.073.078,0,.13-.025.13.073.026.025.052.049.052.073.078,0,.078.025.078.1.052,0,.078,0,.1.025s.026.049.026.1c.13,0,.078.317.078.391a.21.21,0,0,1,.13.049v.073h.1c.026,0,.052.025.078.049,0-.171.078.146.078.2a.308.308,0,0,1,.13.122h.1c0,.073.13.049.208.049V38.1c-.078,0,.026.1.026.2a.124.124,0,0,1,.052.1c.052,0,.078,0,.078.073h.1c0,.122.156-.025.156.122.026.025.052.049.052.073a1.413,1.413,0,0,1,.313.049c.026.025.026.073.026.122.026.025.052.049.052.073h-.13v.122c.1,0,.078.1.078.171a.206.206,0,0,1,.13.025.308.308,0,0,1,.13.122c.026,0,.052.025.078.049h.052c.1,0,.078.1.078.171.052,0,.078,0,.1.025v.049c-.078,0,.026.1.026.2a.21.21,0,0,1,.13.049v.2a.21.21,0,0,1,.13.049c.026-.025.052-.049.078-.049a.365.365,0,0,1,.1.073v-.122h.078v.1a.406.406,0,0,1,.182.025l.156.293a.308.308,0,0,1,.13.122,1.911,1.911,0,0,1,.208.073v.171c.052,0,.078,0,.1.025s.026.049.026.1a.206.206,0,0,1,.13.025.392.392,0,0,1,.1.171h.078c0,.1.078-.025.078.171.052,0,.078,0,.1.025a2.106,2.106,0,0,1,.156.244H60.1a.141.141,0,0,1,.1.049.29.29,0,0,1,.026.146.124.124,0,0,1,.052.1.206.206,0,0,1,.13.025v.1c.026.025.052.049.052.073h.078c0,.1.078-.025.078.171.052,0,.078,0,.1.025s.026.073.026.122c.078,0,.13.1.13.171.052,0,.078,0,.078.073a1.306,1.306,0,0,1,.182.073v.1c.052,0,.078,0,.078.073.078,0,.13.1.13.171.052,0,.078,0,.1.025s.026.073.026.122c.026.025.052.049.052.073.1,0,.078.1.078.171h.1c.026.025.026.073.026.122a.591.591,0,0,1,.13.073c0,.073.078.025.078.171.1,0,.13.146.235.146a.339.339,0,0,1,.026.171.308.308,0,0,1,.13.122c.078,0,.13.1.13.2.1,0,.13.122.13.22.026.025.052.049.052.073a.206.206,0,0,1,.13.025.339.339,0,0,1,.026.171h.1c.026.025.026.073.026.122a1.3,1.3,0,0,1,.182.073v.1c.052,0,.078,0,.078.073.078,0,.13.1.13.171.026.025.052.049.052.073.078,0,.078.049.078.122.078,0,.078.049.078.122.1,0,.13,0,.13.122.026.025.052.049.052.073a.21.21,0,0,1,.13.049v.073h.078a.365.365,0,0,1,.1.073,1.2,1.2,0,0,1,.026.317.464.464,0,0,1,.182.122c.026,0,.052.025.078.049v.073c.078,0,.052.1.052.171h-.078c0,.122-.13-.1-.13-.122a.438.438,0,0,0-.13-.171c0-.025-.026-.049-.052-.073H63.9l-.235-.073c0-.049,0-.1-.026-.122h-.13c0-.1-.1-.073-.182-.073v.1c.078,0,.052.1.052.171h-.208c0-.1-.182-.049-.26-.049v-.073l-.235-.073c0-.1-.13-.073-.235-.073v.073c-.078,0-.052.122-.052.2l-.313.073v.1c.026.025.052.049.052.073.078,0,.078.049.078.122.078,0,.13.1.13.171.026.025.052.049.052.073.078,0,.078.025.078.122.026.025.052.049.052.073.1,0,0,.049-.052.049,0-.049,0-.073-.026-.1,0-.025-.026-.049-.052-.073a.541.541,0,0,0-.078-.122c0-.025-.026-.049-.052-.073-.1,0,0-.073-.13-.073A.308.308,0,0,0,62,46.82V46.7a.347.347,0,0,0-.078-.1h-.1v-.073h-.208v.122h-.13v.171s.1.025,0,.025v.171c.1,0,.182.146.182.244h-.078v-.1c-.026-.025-.052-.025-.1-.025,0,0-.026-.1-.026,0-.078,0-.052.073-.052.122.052,0,.078,0,.078.073a.21.21,0,0,1,.13.049V47.5c.052,0,.078,0,.1.025s.026.073.026.122a.21.21,0,0,1,.13.049l-.078-.293a.29.29,0,0,0,.026-.146.446.446,0,0,1,.13-.049,1.112,1.112,0,0,1-.026.293.206.206,0,0,1,.13.025h.13a.339.339,0,0,1,.026.171c.078,0,.052.122.052.2,0,.025-.026.049-.052.073a.21.21,0,0,1,.13.049c0,.073.026.2-.078.2V48.14a.541.541,0,0,0-.078-.122c-.078,0-.026-.073-.182-.073,0-.171-.052.049-.052.122.052,0,.078,0,.1.025a.339.339,0,0,1,.026.171c.078,0,.13.1.13.171h-.078c-.026-.025-.052-.049-.078-.049v-.073a.26.26,0,0,0-.13-.1v-.073a.205.205,0,0,0-.13-.049.7.7,0,0,1,.026.244.124.124,0,0,1,.052.1,1.076,1.076,0,0,0-.156-.171c0-.025-.026-.049-.052-.073-.13,0,.026-.122-.13-.122v-.1c-.1,0,.026-.1-.182-.1,0-.073.026-.122-.078-.122l-.078-.22c-.026-.025-.052-.025-.1-.025,0-.049,0-.1-.026-.122a.207.207,0,0,0-.1.025v.171c.235,0,.052.342.052.2-.078,0-.052.073-.052.122.078,0,.13.1.13.2.078,0,.052.049.052.122h.078c0,.073.13.073.13.22.026.025.052.049.052.073h.078v.073a.21.21,0,0,1,.13.049v-.073a.206.206,0,0,1,.13.025V48.7a.205.205,0,0,0-.13-.025v.1a.124.124,0,0,1,.052.1c.1,0,.078.049.078.146A.1.1,0,0,0,61.662,49a1.146,1.146,0,0,0-.078-.171c0-.025-.026-.049-.052-.073-.1,0,0-.073-.13-.073l-.078-.22c-.026-.025-.052-.025-.1-.025,0-.073.026-.122-.078-.122v-.1c-.1,0,0-.146-.182-.146-.026-.025-.052-.049-.078-.049a.856.856,0,0,0-.026-.269.127.127,0,0,0-.052-.1h.078c0-.1.026-.146-.078-.146v-.244a.347.347,0,0,0-.078-.1.761.761,0,0,0-.235-.025.7.7,0,0,0-.026-.244c0-.025-.026-.049-.052-.073a.347.347,0,0,0-.078-.1c0,.025-.026.049-.052.1-.078,0-.052.1-.052.146a.124.124,0,0,1,.052.1.206.206,0,0,1,.13.025c0,.1.078,0,.078.122.078,0,.13.1.13.2.078,0,.052.049.052.122.13,0-.026.049-.078.049,0-.073-.026-.073-.1-.073,0-.049,0-.073-.026-.1s-.052-.025-.1-.025v-.1h-.078v.122c.078,0,.078.025.078.1.052,0,.078,0,.1.025s.026.049.026.1c.026.025.052.049.052.073s-.026.049-.052.073a.205.205,0,0,0-.13-.025c0-.049,0-.073-.026-.1,0,.025-.026.049-.052.1.078,0,.078.025.078.122h.1a.082.082,0,0,0-.052.025c0,.1.078-.025.078.171.026.025.052.049.052.073h.078v.073a.124.124,0,0,1,.052.1.206.206,0,0,1,.13.025v.1c.078,0,.286.391.286.513a.308.308,0,0,1,.13.122c.078,0,.13.1.13.171.026.025.052.049.052.073.026.025.052.049.052.073h.078v.1a.424.424,0,0,1,.182.1l.078.367-.078-.073c-.078,0-.1-.171-.182-.2,0,.025-.026.049-.052.073.026.025.052.049.052.073.1,0,.078.1.078.171.078,0,.13.1.13.171.052,0,.078,0,.078.073a.14.14,0,0,1,.13.146.347.347,0,0,0-.156-.025,1.146,1.146,0,0,0-.078-.171c-.026-.025-.052-.025-.1-.025v-.1h-.078V50c-.1,0,.026-.073-.182-.073.026,0,.052,0,.052.025v.22c.078,0,.078.049.078.122a.124.124,0,0,1,.052.1H61.35v.22c.052,0,.078,0,.1.025v.1a.206.206,0,0,1,.13.025v-.073h.13a.339.339,0,0,1,.026.171c.13,0,.078.244.078.317.078,0,.052.049.052.122.078,0,.078.025.078.122.078,0,.052.073.052.146,0,.025-.026.049-.052.1,0-.025,0-.049-.026-.049,0-.025-.026-.049-.052-.073l-.156-.22c0-.025-.026-.049-.052-.073a.541.541,0,0,0-.078-.122c-.026-.025-.052-.025-.1-.025-.026-.025-.052-.049-.078-.049,0-.122-.052.025-.052.073.026.025.052.049.052.073a.2.2,0,0,0-.13-.025V51.1c-.13,0,.026-.122-.13-.122a1.146,1.146,0,0,0-.078-.171c-.078,0-.026-.073-.182-.073,0-.049,0-.073-.026-.1h-.13a.41.41,0,0,1-.052.122c.13,0,.078.342.078.415h.1v.073c0,.025-.026.049-.052.073a.406.406,0,0,0-.182-.025c0-.073.026-.122-.078-.122,0-.1-.1-.073-.182-.073v.1a.124.124,0,0,1,.052.1c.052,0,.078,0,.078.073.026.025.052.049.052.073.1,0,.078.1.078.171.078,0,.052.049.052.122.156,0,.286.2.286.367.026.025.052.049.052.073.078,0,.078.049.078.122.026.025.052.049.052.073.078,0,.078.049.078.122a.205.205,0,0,0-.13-.025c0-.049,0-.073-.026-.1h-.1v.122c.078,0,.026.049-.026.049,0,.073-.078.049-.13.049v.073c-.078,0-.052.073-.052.122.052,0,.078,0,.1.025.026,0,.052.025.078.049h.026c.026-.025.052-.049.052-.073a1.2,1.2,0,0,1,.26-.049l.078.293c0-.025,0-.049-.026-.049,0-.025-.026-.049-.052-.073-.026,0-.078-.1-.078,0-.078,0-.052.073-.052.122.1,0,.078.122.078.2.026.025.052.049.052.073a.406.406,0,0,0-.182-.025c0-.073.026-.122-.078-.122a1.144,1.144,0,0,0-.078-.171h-.078c0-.073-.026-.073-.1-.073,0-.049,0-.1-.026-.122-.078,0-.13-.171-.13-.244-.078,0-.052-.049.026-.049a.855.855,0,0,0-.026-.269h.078v-.049c.1,0,0-.1,0-.171.13,0,.052-.146.052-.2h-.235c-.026,0-.052.025-.078.049a1.61,1.61,0,0,1-.052.317c.078,0,.1.1.1.171h-.13a.086.086,0,0,1,.026.073.592.592,0,0,1,.13.073.447.447,0,0,1-.026.171h-.1a.339.339,0,0,0-.026-.171c0-.025-.026-.049-.052-.073a1.146,1.146,0,0,0-.078-.171c-.026-.025-.052-.025-.1-.025v-.1c.052,0,.13-.025.13.049,0-.1.052-.269-.078-.269a.308.308,0,0,0-.13-.122.339.339,0,0,0-.026-.171.531.531,0,0,0-.13-.2c-.078,0-.078-.122-.182-.122a.308.308,0,0,0-.13-.122c0-.073-.1-.049-.182-.049l-.078.073v.171a1.309,1.309,0,0,1,.182.073.7.7,0,0,1,.026.244.21.21,0,0,1,.13.049V51.8a.424.424,0,0,1,.182.1v.073c.052,0,.078,0,.078.073.026.025.052.049.052.073.13,0,.078.22.078.293.1,0,.078.122.078.2a.124.124,0,0,1,.052.1h.208v.073c.1,0,.052.171.052.244a.206.206,0,0,1,.13.025c0,.073.078.025.078.171.156,0-.156.073-.156.122-.078,0-.026-.073-.182-.073l-.078-.22c-.026-.025-.052-.025-.1-.025,0-.049,0-.1-.026-.122a.541.541,0,0,0-.078-.122c0-.025-.026-.049-.052-.073a.541.541,0,0,0-.078-.122.984.984,0,0,0-.13-.22c-.026-.025-.052-.025-.1-.025,0-.073.026-.122-.078-.122v-.1c-.078,0-.052-.073-.052-.122a.072.072,0,0,1-.026.049c-.078,0-.052.122-.052.171.1,0,.078.049.078.146.1,0,.13.122.13.22.052,0,.078,0,.1.025s.026.073.026.122c.026.025.052.049.052.073a.124.124,0,0,1,.052.1.206.206,0,0,1,.13.025V53.1h.078c.026.025.026.073.026.122.078,0,.26.269.26.367.052,0,.078,0,.1.025.026.073.052.146.078.244.078,0,.078.025.078.1.026.025.052.049.052.073h.052c0,.122-.235-.073-.26-.122,0-.025-.026-.049-.052-.073a1.144,1.144,0,0,0-.078-.171.392.392,0,0,0-.182-.049v-.1h-.13c0-.244,0-.244-.26-.244v.244c.156,0,.26-.025.26.146.026.025.052.049.052.073a2.992,2.992,0,0,0-.469-.025v-.122c-.078,0-.052-.073-.052-.122.078,0,.052-.049.052-.122,0-.025-.026-.049-.052-.073a.127.127,0,0,0-.052-.1.175.175,0,0,1-.026.1h-.182c-.026-.025-.052-.049-.078-.049,0-.025-.026-.049-.052-.073h.078c0-.146.26.049.26-.122a.206.206,0,0,1,.13.025V52.9c.1,0-.026-.122-.026-.171h-.13v-.073a.205.205,0,0,0-.13-.049,1.039,1.039,0,0,1-.052.244A1.456,1.456,0,0,0,59,52.9a.184.184,0,0,0-.052-.122.541.541,0,0,0-.078-.122.438.438,0,0,0-.13-.171c0-.025-.026-.049-.052-.073a1.147,1.147,0,0,0-.078-.171h-.1c0-.049,0-.1-.026-.122-.078,0-.052-.1-.052-.146.078,0,.052-.049.052-.122,0-.025-.026-.049-.052-.073-.026,0-.078-.1-.078,0h-.182v.2s.1.025,0,.025a.308.308,0,0,1,.13.122v.293h.078l.052-.049a.21.21,0,0,1,.13.049v.073c.1,0,.1.244,0,.244,0,.073-.078.049-.13.049v-.073l-.156-.22c0-.025-.026-.049-.052-.073a.541.541,0,0,0-.078-.122.531.531,0,0,0-.13-.2h-.182c.026,0,.052,0,.052.025a.632.632,0,0,1,.026.22.206.206,0,0,1,.13.025v.122h.1v.1c.208,0,.235.22.235.391.026,0,.156.073.052.073a.607.607,0,0,1-.052.171H58.3c0-.049,0-.1-.026-.122h-.1v.073c.078,0,.13.1.13.171.026.025.052.049.052.073h-.078a1.174,1.174,0,0,1,.1.317h.1c.026,0,.052.025.078.049V53.9a.591.591,0,0,1,.13.073V54.1c.1,0,0,.049-.052.049-.026-.025-.052-.049-.078-.049v.1h-.078a.447.447,0,0,0,.026-.171c.13,0-.026-.122-.026-.171a.655.655,0,0,0-.13-.146.3.3,0,0,0-.13.025v.1a.206.206,0,0,1,.13.025v.1a.7.7,0,0,1,.026.244.206.206,0,0,1,.13.025v.171c.026.025.052.049.052.073a.591.591,0,0,1,.13.073v.1c.052,0,.078,0,.078.073h.1a.184.184,0,0,0-.052-.122H58.9v.073a.25.25,0,0,1,.1.122h-.1v.1c.078,0,.052.073.052.146l-.078-.146a.438.438,0,0,0-.13-.171c0-.025-.026-.049-.052-.073a.2.2,0,0,0-.13-.049c-.026-.025-.052-.049-.078-.049v-.073h-.052c0-.171-.078.073-.078.122,0,.025-.026.049-.052.073a.205.205,0,0,0-.13-.025c0-.049,0-.073-.026-.1,0-.025-.026-.049-.052-.073h-.078v.073a.472.472,0,0,0-.13.049v-.073c-.078,0-.052-.122-.052-.171h.078a.7.7,0,0,0-.026-.244c-.026-.025-.052-.025-.1-.025-.078-.146,0-.1-.208-.1V54.1c.1,0,.13.146.13.22-.078,0-.052.244-.052.317.078,0,.13-.025.13.073.078,0,.13.1.13.171.052,0,.078,0,.1.025l.078.22c.026.025.052.049.052.073a.205.205,0,0,0-.13-.049v.073c-.026-.025-.052-.025-.1-.025,0-.049,0-.1-.026-.122h-.13c.026.073.1.244.208.244v.073a.591.591,0,0,1,.13.073v.1c.052,0,.078,0,.078.073.078,0,.13.1.13.171.078,0,.078.049.078.122a.124.124,0,0,1,.052.1c.1,0,.13.1.13.171a1.3,1.3,0,0,1,.182.073.632.632,0,0,1,.026.22c.052,0,.078,0,.1.025.026,0,.052.025.078.049v.073c.1,0,.078.122.078.2a.1.1,0,0,0-.078-.025,1.146,1.146,0,0,0-.078-.171c-.026-.025-.052-.025-.1-.025,0-.049,0-.073-.026-.1,0-.025-.026-.049-.052-.073-.078,0-.052-.073-.078-.122-.13,0-.052-.2-.182-.2,0-.1-.156-.122-.156-.2a.984.984,0,0,0-.13-.22c-.026-.025-.052-.025-.1-.025,0-.049,0-.073-.026-.1s-.052-.025-.1-.025c0-.049,0-.1-.026-.122-.078,0-.078-.122-.182-.122,0-.073-.1,0-.182,0a.448.448,0,0,0-.026-.2c-.13,0,.052-.122-.182-.122a1.4,1.4,0,0,1-.026.317c-.078,0-.052.073-.052.122.1,0,.078.122.078.2.1,0,.13.1.13.2a.124.124,0,0,1,.052.1.206.206,0,0,1,.13.025,1.112,1.112,0,0,1,.026.293h.1c.026-.025.052-.049.078-.049v-.073c.078,0,.078-.1.078-.171.078,0,.052.049.052.122.156,0,.052.22.052.293a.207.207,0,0,0-.1.025c0,.122.338.1.469.1v.073c.078,0,0,.122-.026.171l-.078.22h.078c.078.146.078.171.338.171v-.122h.078v.171a.206.206,0,0,1,.13.025v.1c.026,0,.052,0,.052.025h-.13c-.026,0-.052.025-.078.049,0-.073-.052-.073-.13-.073v-.1c-.026.025-.052.073-.1.122.078,0,.052.049.052.122.1,0,.078.1.078.171.026.025.052.049.052.073a1.3,1.3,0,0,1,.182.073c.026.025.026.049.026.1a.206.206,0,0,1,.13.025v.1c.052,0,.078,0,.1.025l.078.22h-.078a.184.184,0,0,0-.052-.122h-.078v-.1c-.026-.025-.052-.025-.1-.025,0-.073-.052-.049-.13-.049,0-.073-.235-.146-.286-.244a.656.656,0,0,0-.13-.146.347.347,0,0,0-.078-.1c-.026-.025-.052-.025-.1-.025,0-.1,0-.122-.13-.122-.026-.073-.026-.171-.208-.1a1.039,1.039,0,0,1-.052.244.124.124,0,0,1,.052.1v.1a.3.3,0,0,1,.13-.025V57.5a.446.446,0,0,1,.13-.049,1.612,1.612,0,0,1,.078.2c.1,0,0,.073,0,.122h-.078a.606.606,0,0,1-.052.171h-.078c0-.1-.182-.073-.26-.073v.073c-.078,0-.052.22-.052.293.052,0,.078,0,.1.025a.339.339,0,0,1,.026.171c.078,0,.417-.025.235-.2H58.1V58.3c.13,0,.052.122.052.2a1.306,1.306,0,0,1-.182.073v.122h-.182v.1h-.156v-.22c-.026-.025-.052-.025-.1-.025,0-.049,0-.073-.026-.1h-.13v-.073a1.652,1.652,0,0,0-.078-.2h-.1c-.026,0-.052.025-.078.049v.146a1.306,1.306,0,0,1,.182.073.339.339,0,0,1,.026.171.21.21,0,0,1,.13.049v.073c.078,0,.078.049.078.122.078,0,.13.1.13.2h.1c.026.025.026.049.026.1.026.025.052.049.052.073.052,0,.078,0,.078.073h-.078c0-.122-.156-.146-.26-.146a.307.307,0,0,0-.13-.122.388.388,0,0,0,.052-.122l-.078-.22a.406.406,0,0,0-.182-.025c-.026-.025-.052-.049-.078-.049,0-.073-.052-.049-.13-.049.026.122.052.22-.1.22v.073h-.286c0-.146-.078.073-.078.122,0,.025-.026.049-.052.073h-.182a.447.447,0,0,1-.026.171c0,.025-.026.049-.052.073.1,0,.078.1.078.171a.406.406,0,0,1,.182.025v.1h.078v.073c.078,0,.078.049.078.122.026.025.052.049.052.073l-.078-.073c-.026,0-.078-.1-.078,0,0,.025-.026.049-.052.073.078,0,.078.025.078.1.1,0,.078.122.078.2.078,0,.052.073.052.146a.124.124,0,0,1,.052.1h-.1c0-.049,0-.1-.026-.122a.541.541,0,0,0-.078-.122.808.808,0,0,0-.26-.049,1.4,1.4,0,0,0,.026-.317h-.078c0-.171-.391-.049-.521-.049v.293c.026.025.052.049.052.073h.156a.335.335,0,0,1,.052.171c.026,0,.052,0,.052.025-.026-.025-.052-.025-.1-.025,0-.049,0-.073-.026-.1a.205.205,0,0,0-.13-.025c.026.073.052.171.078.269a.2.2,0,0,0-.13-.025c-.026-.025-.052-.049-.078-.049v.122c.017.019.043.044.043.068ZM54.2,60.471h-.078c0-.073-.078-.073-.156-.073v.073h-.1c0-.073-.026-.073-.13-.073,0-.073-.052-.049-.13-.049-.026-.025-.052-.049-.078-.049a.41.41,0,0,1-.052.122.2.2,0,0,0-.13-.025.339.339,0,0,0-.026-.171H53.4c0,.073.078.049.13.049,0-.073.13-.049.208-.049v-.073c.078,0,.052-.049.052-.122a1.146,1.146,0,0,0-.078-.171.086.086,0,0,1,.026.073.149.149,0,0,1,.13.171c.026.025.052.049.052.073H54a.18.18,0,0,1,.052.122h.078c0,.073.079.024.079.17Zm2.161-.049a.541.541,0,0,0-.078-.122c0-.025-.026-.049-.052-.073l.078-.073c.052,0,.078,0,.1.025v.171c0,.024-.026.049-.052.073Zm-1.432,0c-.052-.049-.156-.073-.156-.146h.078c0-.147.078.1.078.146Zm-.677-.2h-.13c-.026-.146-.052-.293-.078-.44-.13,0,.026-.049.078-.049.026.073.052.146.078.244.078,0,0,.122,0,.2a.054.054,0,0,1,.052.049Zm2.917-.171a.1.1,0,0,0-.078-.025v-.049c-.1-.1.078-.025.078.073Zm.182-.073-.078-.073a.308.308,0,0,0-.13-.122.392.392,0,0,0-.182-.049v.1c-.078,0-.052-.122-.078-.171H56.7a1.146,1.146,0,0,0-.078-.171c-.078,0-.052-.073-.052-.122.078,0,.052-.073.052-.146H56.7v.122c.052,0,.078,0,.078.073h.1c0,.073.078.049.13.073a.339.339,0,0,1,.026.171h.1c0,.073.078.049.13.073a.632.632,0,0,1,.026.22c.025,0,.051,0,.051.024Zm-4.479-.025H52.8a.26.26,0,0,0-.13-.1v.1a.347.347,0,0,0-.078-.1c-.026-.025-.052-.025-.1-.025,0-.049,0-.1-.026-.122a.438.438,0,0,0-.13-.171c0-.025-.026-.049-.052-.073.078,0,.1-.122,0-.122a.339.339,0,0,0-.026-.171h.1l.235.073a.633.633,0,0,1,.026.22h-.078v.146c.078,0,.078.025.078.1.026.025.052.049.052.073h.26a.184.184,0,0,0-.052-.122c.052,0,.13-.122.13.049h.1v.073h-.1a.576.576,0,0,1-.13.073v.1Zm5-.049h-.1c0-.049,0-.073-.078-.073v-.171c.078,0,.078-.1.078-.171.078,0,.052.049.052.122.157,0,.052.244.052.293Zm-.391-.122h-.078v-.073h-.1v-.122c.052,0,.078,0,.1.025v.1h.078v.073Zm-1.926-.122h-.13a1.954,1.954,0,0,0-.13-.415.347.347,0,0,1,.156-.025v.122c.052,0,.078,0,.1.025,0,.1,0,.195,0,.293Zm2.812-.171a.1.1,0,0,0-.078-.025v-.1c.078,0,.078.049.078.122Zm.235-.073a.392.392,0,0,0-.182-.049v-.22c.052,0,.078,0,.078.073.078,0,.052.073.052.146a.055.055,0,0,1,.052.049Zm-1.094-.171a.1.1,0,0,0-.078-.025c0-.073-.052-.073-.13-.073-.026-.025-.052-.049-.078-.049,0-.073.1-.1,0-.2.052,0,.078,0,.078.073.1,0,.13.1.13.2h.078v.073Zm-.364-.025a.308.308,0,0,0-.13-.122c-.078,0-.052-.122-.052-.171h.078a.124.124,0,0,1,.052.1c.13,0,.052.147.052.2Zm-1.354,0c0-.025,0-.049-.026-.049-.078,0,.026-.049.026-.122h.1v.122h-.1v.049Zm-3.8,0h-.1c0-.049,0-.073-.078-.073a.693.693,0,0,0-.052-.244.406.406,0,0,1,.182.025v.049c.13,0,.052.171.052.244Zm1.276-.2h-.13v-.1c.1,0-.026-.073-.026-.122,0-.025-.026-.049-.052-.073a1.91,1.91,0,0,0,.208-.073v.122c.078,0,.052.122.052.2l-.052.049Zm5.6-.171h-.1c0-.049,0-.073-.078-.073v-.1h-.078v-.122h.156v.1c.078,0,.052.049.052.122.026.025.052.049.052.073ZM51.5,58.687a1.861,1.861,0,0,0-.208-.073c0-.049,0-.1-.026-.122a.249.249,0,0,0-.1-.122c-.1,0-.156-.049-.156-.146a.984.984,0,0,0-.13-.22c0-.025-.026-.049-.052-.073.078,0,.208.025.208-.073.052,0,.078,0,.1.025.026,0,.052.025.078.049v.2a.4.4,0,0,1,.182.049V58.1a.086.086,0,0,1,.026.073h.13v.073c.078,0,.052.049.052.122,0,.025-.026.049-.052.073.078,0,.052.049.052.122-.026.025-.052.074-.1.122Zm1.042-.073a1.145,1.145,0,0,0-.078-.171c0-.025-.026-.049-.052-.073a.205.205,0,0,0-.13-.025v-.171h.182c.026.025.026.073.026.122.078,0,.052.073.052.146.078,0,.052.049.052.122l-.052.049Zm5.833-.244h-.078v-.122a.3.3,0,0,1,.13-.025v.122a.084.084,0,0,0-.052.025Zm-5.624-.245a.2.2,0,0,0-.13-.025v-.122a.8.8,0,0,1,.235-.049.339.339,0,0,1,.026.171h-.13v.025ZM51.756,58a.2.2,0,0,0-.13-.025c0-.049,0-.1-.026-.122h-.1v-.1a.206.206,0,0,1,.1-.025c0-.073.052-.049.13-.049a.339.339,0,0,1,.026.171c.078,0,.052.049.052.122a.084.084,0,0,0-.052.025Zm7.4-.122h-.078v-.122c.078,0,.078.049.078.122Zm-8.619-.2s-.13-.073-.052-.073c0-.122.052.025.052.073Zm1.823-.049h-.078v-.073h.078v.073Zm-35.1-.025h-.078v-.073c0-.073.078-.025.078-.122.026.025.052.049.052.073-.078,0-.052.073-.052.122Zm33.019-.049c-.078-.025-.235-.1-.235-.2h.13v.073a.255.255,0,0,1,.1.122Zm-31.065,0h-.1a.083.083,0,0,1,.052-.025c.026-.025.052-.049.078-.049a.086.086,0,0,1-.026.073Zm-1.641-.195h-.13V57.3c.078,0,.078-.073.078-.122a.406.406,0,0,1,.182.025v.1a.3.3,0,0,0-.13.025s0,.024,0,.049Zm6.666-.171h-.1a.083.083,0,0,1,.052-.025.347.347,0,0,1,.078-.1.241.241,0,0,1-.026.122Zm33.331-.245a.2.2,0,0,0-.13-.025,1.2,1.2,0,0,0-.026-.317c.078,0,.1,0,.1.073a.054.054,0,0,1,.052.049c.183,0,0,.22,0,.22Zm-37,0h-.078a.541.541,0,0,1,.078-.122.3.3,0,0,1,.13-.025.086.086,0,0,1-.026.073.327.327,0,0,1-.1.074Zm3.021-.122-.078-.073h.078v.073Zm1.458-.025c0-.025-.026-.049-.052-.073.052,0,.1-.1.1.025,0,0-.027.024-.052.049Zm-.781,0v-.244c.026-.025.052-.049.052-.073a.1.1,0,0,1,.078.025.447.447,0,0,1-.026.171c-.026.024-.052.073-.1.122Zm-2.474-.049c-.026-.025-.052-.025-.1-.025l.13-.122c0-.1.156.025.052.025a.533.533,0,0,0-.078.122Zm28.123-.146H49.83v-.122a.446.446,0,0,1,.13-.049v.073c0,.025-.027.049-.052.1Zm-24.947,0h-.1c.052-.049.1-.073.13-.1a.174.174,0,0,1-.026.1Zm-6.119-.1a.1.1,0,0,0-.078-.025v-.122a.206.206,0,0,1,.13.025v.1a.084.084,0,0,0-.052.025Zm4.3-.122c0-.049,0-.1-.026-.122h.078v.1a.084.084,0,0,0-.052.025Zm35.232-.147a.249.249,0,0,0-.1-.122c-.078,0-.052-.049.026-.049v.073c.078,0,.078.025.078.1ZM21.55,56.2h-.078v-.073a.347.347,0,0,1,.078-.1c.052-.025.13-.025.13-.1a.446.446,0,0,1,.13-.049c0-.122.052.025.052.073a1.306,1.306,0,0,1-.182.073.175.175,0,0,1-.026.1.207.207,0,0,0-.1.025V56.2Zm-2.656,0h-.13v-.244c.078-.073.13,0,.13.073.078,0,.052.049.052.122l-.052.049Zm4.219-.049c-.078,0-.052-.073-.052-.122A.536.536,0,0,1,23.243,56v.073a.472.472,0,0,0-.13.049v.025Zm2.057-.073h-.078a.29.29,0,0,0,.026-.146c.078,0,.052.073.052.146Zm-2.578,0h-.13a.066.066,0,1,1,.13,0Zm-.391,0h-.078v-.146h.156a.338.338,0,0,0-.078.1v.049Zm-2.994,0h-.052V56h.052v.073Zm6.64-.049h-.078v-.073h.078v.073Zm-2.318,0v-.1c.026.025.052.049.052.073a.084.084,0,0,0-.052.025ZM58.084,56l-.078-.073h.078V56ZM26.81,55.756a.249.249,0,0,0-.1-.122h.1v.122Zm-4.609,0h-.208v-.073a.347.347,0,0,1,.078-.1.206.206,0,0,1,.1-.025c0-.073.052-.049.1-.049v.073H22.2v.171Zm2.656-.049a.1.1,0,0,0-.078-.025v-.244a.446.446,0,0,1,.13-.049v.122c.1,0,.052.073,0,.073v.1a.077.077,0,0,0-.052.024Zm-7.6-.025h-.13V55.56h.13v.122Zm5.677-.1v-.2h.182v.073a.339.339,0,0,0-.078.1h-.1v.025Zm35.8-.025h-.1v-.1h.1v.1Zm-46.507,0c0-.025,0-.049-.026-.049-.13,0,.026-.073.078-.073v.073l-.052.049Zm12.942-.1a.205.205,0,0,0-.13-.025v-.171c.078,0,.078-.073.078-.146.078,0,.052-.049.052-.1h.13c.026,0,.052.025.078.049l-.078.073v.122a.527.527,0,0,0-.078.122c0,.024-.026.049-.052.073Zm.808-.073H25.9v-.073a1.656,1.656,0,0,0-.078-.2H25.9V54.95c.078,0,.078-.049.078-.122a.445.445,0,0,1,.13-.049v.1h.13c0-.073.052-.049.1-.049a.339.339,0,0,1,.026.171H26.29v.2h-.13c0-.073-.052-.049-.13-.049v.122c-.079,0-.052.072-.052.121Zm-9.218-.073a.386.386,0,0,0-.1-.171c.078,0,.1.1.1.171Zm31.352-.049h-.078c0-.1-.1-.073-.182-.073,0-.049,0-.073-.078-.073A.184.184,0,0,0,47.72,55c.078,0,.052-.049.052-.122.052,0,.078,0,.078.073h.1v-.171h.078a.7.7,0,0,1,.026.244c.1,0,.052.172.052.245Zm-23.852-.2c0-.025,0-.049-.026-.049,0-.025-.026-.049-.052-.073h.13v.073l-.052.049Zm34.425-.049A.536.536,0,0,0,58.475,55v-.1c.026,0,.026.025.026.049a.446.446,0,0,1,.13-.049.183.183,0,0,1,.052.122ZM25.613,55h-.13v-.122a.347.347,0,0,1,.156.025.177.177,0,0,1-.026.1Zm-1.224-.049a.339.339,0,0,0-.026-.171c.026,0,.026.025.026.049.026.025.052.049.052.073l-.052.049Zm2.24-.074H26.5c0-.049,0-.073-.026-.1v-.147c-.078,0,0-.073,0-.122h.1c0-.1.078,0,.13,0v.122c.078,0,.052.073.052.146H26.68c0,.025-.026.05-.052.1Zm-15.468,0h-.13v-.1a1.91,1.91,0,0,0,.208-.073.251.251,0,0,1-.026.122l-.052.049Zm5.937-.049c0-.025-.026-.049-.052-.073h.078a.09.09,0,0,1-.026.073Zm-3.828-.073h-.078v-.1h.078v.1Zm-.391,0c-.078,0-.052-.073-.052-.122a.689.689,0,0,1,.182-.049.527.527,0,0,0-.078.122s-.027.024-.052.049Zm1.8-.049v-.122h.1a.355.355,0,0,1-.1.073V54.7ZM25.9,54.656h-.13a.541.541,0,0,1,.078-.122c.156,0,.052.122.052.122Zm.312-.025h-.1a.7.7,0,0,0-.026-.244c.1,0,.156-.025.156.073.078,0,.052.049.052.122H26.21s0,.024,0,.049Zm1.589-.1h-.13v-.122h.078a.182.182,0,0,1,.052.122Zm-14.661,0c-.078-.073,0-.049,0-.146h.078l-.078.146Zm14.947-.024H27.93v-.1c-.026-.025-.052-.025-.1-.025v-.122a1.307,1.307,0,0,0,.182-.073c0-.146.078.049.078-.049h.1c.026,0,.052.025.078.049v.122l-.078.073h-.1c.026,0,.052,0,.052.025s-.026.049-.052.1Zm-15.546,0c-.078,0-.052-.073-.052-.122h.1v.073l-.052.049Zm46.69-.049v-.122c.026.025.052.049.052.073,0,0-.026.025-.052.049Zm-.208,0-.078-.073c-.1,0,.078-.1.078.073Zm1.458-.073c-.026,0-.026-.073-.13-.073v-.22a.124.124,0,0,1,.052.1c.1,0,.079.1.079.2Zm-.859,0a.086.086,0,0,0-.026-.073c-.078,0-.052-.073-.052-.122h.078v.073c.1,0,0,.073,0,.122Zm-45.935,0a2.612,2.612,0,0,0,.26-.293c0,.049,0,.171-.078.171,0,.1-.182.025-.182.122Zm45.206-.073a.308.308,0,0,0-.13-.122.206.206,0,0,1,.13.025v.1Zm-45.31-.1h-.1a.083.083,0,0,1,.052-.025c0-.073,0-.122.078-.122.026-.025.052-.049.078-.049a.388.388,0,0,0,.052-.122l.078-.073h.1V53.9l-.13.122-.13.122c-.077,0-.05.049-.077.073Zm-1.848-.122h-.1v-.122a.3.3,0,0,1,.13-.025c0-.122.052.025.052.073-.078,0-.052.049-.078.074Zm47.627-.122a.1.1,0,0,0-.078-.025.341.341,0,0,0-.052-.171h.1a.25.25,0,0,0,.026-.122c.077,0,0,.245,0,.318Zm-44.424,0h-.078V53.9a.446.446,0,0,1,.13-.049.391.391,0,0,1-.052.122Zm46.143-.024h-.13c0-.049.13-.171.13,0ZM58.891,53.9c0-.025,0-.049-.026-.049a.761.761,0,0,0-.235-.025c0-.049,0-.1-.026-.122-.078,0,0-.1,0-.171-.026-.025-.052-.025-.1-.025v-.342h.1a.632.632,0,0,1,.026.22c.078,0,.052.122.052.2a.206.206,0,0,1,.13.025v.1c.1,0,.079.122.079.195Zm-30.415,0c-.1,0,0-.073-.13-.073a.184.184,0,0,0-.052-.122,1.15,1.15,0,0,0,.052-.293h.078c0,.122.13.049.182.049v.073c-.078,0-.078.244-.078.317,0,0-.026.026-.052.05Zm28.93-.073h-.13a.984.984,0,0,0-.13-.22c-.026-.025-.052-.025-.1-.025v-.073h-.078a.341.341,0,0,0-.052-.171h.13a.388.388,0,0,0,.052-.122c.078,0,.078-.049.078-.122a.446.446,0,0,1,.13-.049.054.054,0,0,1,.052.049.417.417,0,0,1-.052.122c.026.025.052.049.052.073-.078,0,0,.073,0,.122a.124.124,0,0,1,.052.1h-.1v.146c.1,0,.1-.1.1.172Zm3.463-.22h-.13a.448.448,0,0,0-.026-.2h.078v.1c.079,0,.079.024.079.1Zm-46.481,0c-.1,0,.026-.1-.13-.1a.387.387,0,0,0,.052-.122h.078c0-.1.26-.049.13.2h-.13s0,0,0,.025Zm47.132-.025h-.078a.447.447,0,0,0-.052-.2h.13c0,.049,0,.122,0,.2Zm-2.5,0c-.026,0-.026-.073-.13-.073,0-.049,0-.1-.026-.122-.078,0-.1-.146-.13-.22a.406.406,0,0,0-.182-.025v-.1c-.078,0-.052-.073-.052-.122h.1a1.34,1.34,0,0,1,.338.122c0,.073.078.073.078.244a.124.124,0,0,1,.052.1c.078,0,.078.073.078.146h-.13a.372.372,0,0,1,0,.05Zm-.989-.2h-.078c-.026-.025-.052-.049-.078-.049v-.122h.13a.347.347,0,0,1,.026.171Zm4.817-.1a.205.205,0,0,0-.13-.025.184.184,0,0,0-.052-.122.406.406,0,0,1,.182.025v.122Zm-1.979-.025c0-.025,0-.049-.026-.049a.438.438,0,0,0-.13-.171h.078c.027.073.052.146.079.22Zm-3.177-.171h-.13v-.073a.347.347,0,0,1,.078-.1v.1c.026.025.052.049.052.073Zm3.021-.122h-.1V52.9h.1v.073Zm-14.791-.049a.536.536,0,0,0-.208-.025.184.184,0,0,0-.052-.122c-.078,0-.052-.073-.052-.122a.8.8,0,0,1,.235-.049.446.446,0,0,1,.026.2c.077,0,.051.049.051.122Zm.261-.025h-.13v-.122h.13V52.9ZM10.04,52.848H9.962v-.073c.078,0,.026-.073.182-.073a.174.174,0,0,0,.026-.1.3.3,0,0,1,.13-.025V52.7h-.078v.073a.536.536,0,0,0-.182.025s0,.024,0,.049ZM62.458,52.8a.1.1,0,0,0-.078-.025V52.7c-.078,0-.052-.122-.052-.171h.1a.876.876,0,0,1,.026.269Zm-.989,0h-.078v-.073c0-.025-.026-.025-.052-.025.052.024.13,0,.13.1ZM9.624,52.775h-.1a.365.365,0,0,0,.1-.073.073.073,0,0,0,.026-.049.267.267,0,0,1-.026.122Zm48.122-.244h-.1c0-.073-.026-.073-.13-.073v-.122c.078,0,.417-.147.235.2Zm1.406-.172a.846.846,0,0,0-.26-.025v-.293c.052-.049.078-.1.1-.122h.078v.073c.13,0,.13.244.13.342a.1.1,0,0,0-.052.025Zm1.172-.073a.137.137,0,0,0-.1-.049c.026-.025.052-.049.052-.073v.073a.055.055,0,0,1,.052.049Zm-29.139,0h-.078a.25.25,0,0,0,.026-.122c.078,0,.052.049.052.122Zm30.883-.073c0-.025,0-.049-.026-.049-.078,0-.026-.073-.182-.073V51.92h-.078v-.073c-.078,0-.052-.049.026-.049a.18.18,0,0,1,.052.122,1.3,1.3,0,0,1,.182.073.626.626,0,0,1,.026.219Zm-.625-.049h-.1a.387.387,0,0,0,.052-.122.054.054,0,0,0-.052-.049.472.472,0,0,0-.13.049c0-.073-.052-.073-.13-.073a.339.339,0,0,0-.026-.171c0-.025-.026-.049-.052-.073a.541.541,0,0,0-.078-.122c0-.025-.026-.049-.052-.073a.206.206,0,0,1,.13.025c.026.073.052.146.078.244.078,0,.052.049.052.122a1.306,1.306,0,0,1,.182.073v-.1c-.1,0,.026-.146.026-.049.026-.025.052-.049.052-.073.052,0,.078,0,.078.073.026.025.052.049.052.073.1,0,0,.049-.052.049,0,0-.026-.1-.026,0v.025c0,.049,0,.1,0,.171Zm-51.533,0H9.832v-.073c.026-.025.052-.049.078-.049v.122ZM62.3,52.091h-.13a.25.25,0,0,0,.026-.122.252.252,0,0,1,.1.122ZM59.985,51.9a.127.127,0,0,0-.052-.1c0-.025-.026-.025-.052-.025.052,0,.078,0,.1.025,0,.024,0,.049,0,.1Zm-1.875-.122h-.286V51.6c-.078,0-.052-.122-.052-.2a.689.689,0,0,1,.182-.049c0,.171.078-.1.078.049.026.025.052.049.052.073.13,0,.1.22.026.293Zm4.661-.049h-.1v-.171c.13,0,.078.122.1.122v.049Zm-1.042,0c-.026,0-.026-.073-.13-.073v-.122h.13v.2Zm-30.024-.049h-.078V51.6h.1a.086.086,0,0,1-.026.073Zm29.764-.146c0-.049,0-.1-.026-.122a.127.127,0,0,0-.052-.1h.078a.392.392,0,0,1,.1.171h-.1v.049Zm-1.8-.049h-.078a.184.184,0,0,0-.052-.122h.078v.073a.056.056,0,0,1,.052.049Zm.52-.2a2.022,2.022,0,0,0-.208-.293c0-.025-.026-.049-.052-.073h-.078a.568.568,0,0,0,.026-.2h.13v-.1h.13a.308.308,0,0,1,.13.122.669.669,0,0,1,.052.22h-.1v.146c.078,0,.052.049.052.122h-.078s0,.025,0,.049Zm2.187-.1-.078-.22a.086.086,0,0,1,.026.073c.078,0,.052.073.052.147ZM44,51.089c-.078,0-.078-.122-.182-.122v-.122c.078,0,.052-.049.052-.1-.078-.025-.182-.073-.182-.146h-.13c0-.171.182,0,.26.025a.308.308,0,0,1,.13.122.576.576,0,0,1,.208.122v.1a.347.347,0,0,0-.156.025v.1Zm18.515-.22h-.078V50.8c-.078,0-.052-.049.026-.049v.1c.026,0,.052,0,.052.024Zm-.339-.122a.205.205,0,0,0-.13-.025.184.184,0,0,0-.052-.122c-.078,0-.052-.122-.052-.171.078,0,.052.049.052.122h.078v.073a.248.248,0,0,1,.1.122Zm1.016-.024c0-.025,0-.049-.026-.049,0-.025-.026-.049-.052-.073.078,0,.078.024.078.122Zm-.937-.171c-.1,0,.026-.073-.182-.073a.448.448,0,0,0-.026-.2c-.13,0,.026-.049.078-.049v.073c.078,0,.078.049.078.122.078,0,.052.048.052.122ZM43.476,50.5a.337.337,0,0,0-.052-.146c.052,0,.078,0,.1.025v.1a.076.076,0,0,0-.052.024Zm17.473-.073H60.87c0-.073-.052-.049-.13-.049a.448.448,0,0,0-.026-.2c-.078,0-.052-.073-.052-.122h.13c0,.073.078.025.078.171.1,0,.078.122.078.2Zm.235-.44h-.1c0-.049,0-.1-.026-.122-.078,0-.052-.122-.052-.2-.078,0-.052-.073-.052-.122L61,49.5c-.208-.1-.208-.073-.286-.317h-.052c0-.122.13-.049.208-.049,0,.073.078.025.078.171.026.025.052.049.052.073a.124.124,0,0,1,.052.1c-.078,0,.052.1.078.1a.308.308,0,0,1,.13.122v.049c.156,0,.052.2-.078.2,0,0,0,.024,0,.049Zm1.25-.073h-.1c0-.049,0-.073-.026-.1s-.052-.025-.1-.025c0-.049,0-.1-.026-.122a.438.438,0,0,0-.13-.171c0-.025-.026-.049-.052-.073-.156,0,.078-.049.13-.049.026,0,.052.025.078.049,0-.073.052-.049.1-.049a5939.527,5939.527,0,0,0-.1.245l.235.073a.607.607,0,0,1-.052.171.053.053,0,0,1,.051.049Zm-2.37-.049-.078-.073h.1a.086.086,0,0,1-.026.073Zm2.708-.171h-.1V49.55c.026.024.1.049.1.146Zm-3.489,0H59.2v-.122h.13v.1a.081.081,0,0,0-.052.025Zm.911-.2a.406.406,0,0,0-.182-.025c0-.244,0-.22.182-.22V49.5Zm-51.4-.244H8.712v-.073H8.79v.073Zm53.643-.025h-.1v-.171a.18.18,0,0,1,.052.122.055.055,0,0,1,.052.049Zm.208-.171a.541.541,0,0,0-.078-.122c0-.025-.026-.049-.052-.073a.127.127,0,0,0-.052-.1.2.2,0,0,0-.13-.025c0-.049,0-.1-.026-.122-.078,0-.052-.073-.052-.122a.591.591,0,0,1,.13.073v.1c.078,0,.208.2.208.269.077,0,.051.05.051.123ZM62.2,48.89a.1.1,0,0,0-.078-.025.212.212,0,0,0-.182-.2.636.636,0,0,0-.026-.22c.026,0,.026.025.026.049.078,0,.13.1.13.171.052,0,.078,0,.1.025a.463.463,0,0,1,.026.2Zm-27.706-.025a.127.127,0,0,0-.052-.1h.1c0,.025-.027.049-.052.1Zm26.821-.049a.506.506,0,0,0-.1-.146c.052,0,.078,0,.1.025v.122Zm-.859-.122a.406.406,0,0,0-.182-.025v-.122a.127.127,0,0,0-.052-.1h.13v.1c.052,0,.078,0,.1.025s.026.049.026.1l-.027.025ZM9.285,48.548a.127.127,0,0,0-.052-.1v-.025c.026-.025.052-.049.078-.049,0-.073.052-.049.13-.049a.41.41,0,0,1-.052.122c-.026,0-.052.025-.1.049,0,0,0,.024,0,.049Zm53.173-.122H62.38a.184.184,0,0,0-.052-.122c.1,0,.13,0,.13.122Zm-1.51-.049H60.87c0-.049,0-.1-.026-.122h.078c.026.025.026.073.026.122Zm.391-.293a.2.2,0,0,0-.13-.025c0-.073.026-.122-.078-.122v-.122h.078a.365.365,0,0,1,.1.073.452.452,0,0,1,.026.2ZM8.452,47.767H8.374a.083.083,0,0,1,.052-.025.447.447,0,0,0,.026-.171c.078,0,.052.1.052.171a.083.083,0,0,0-.052.025Zm52.5-.025H60.87v-.049h.078v.049Zm-.859,0h-.078c0-.049,0-.073-.026-.1s-.052-.025-.1-.025v-.171a.446.446,0,0,1,.13-.049.29.29,0,0,0-.026-.146h-.313c-.026-.025-.052-.049-.078-.049a.446.446,0,0,0-.052-.2c.026-.025.052-.049.052-.073a.537.537,0,0,1,.208.025.465.465,0,0,1,.182.122.339.339,0,0,1,.026.171c.078,0,.078.049.078.122.026.025.052.049.052.073.1,0,.078.1.078.171,0-.025,0-.049-.026-.049,0-.025-.026-.049-.052-.073s-.052-.049-.078-.049v.073c-.078,0-.026.049.026.049a.18.18,0,0,1,.052.122s-.026.023-.052.047Zm2.291-.049c-.078,0-.052-.073-.078-.122,0-.025-.026-.049-.052-.073a.206.206,0,0,1,.13.025v.1s.1.025,0,.025c0,0,0,.025,0,.049Zm-.859-.049a.406.406,0,0,0-.182-.025c0-.049,0-.1-.026-.122a.127.127,0,0,0-.052-.1h.182c.026.074.052.147.078.245Zm-1.458-.2s-.078-.049,0-.049v.049Zm2.005-.2H61.99v-.1c-.078,0-.052-.073-.078-.1h.078v.073c.078,0,.078.025.078.122Zm-1.015-.122h-.13a.184.184,0,0,0-.052-.122l.078-.073h.13a.569.569,0,0,1-.026.2Zm.156-.245h-.078v-.073a.347.347,0,0,0-.078-.1h-.1v.171h-.156v-.122c.1,0,.078-.122.078-.2.078,0,.052-.049.052-.122h.13c.026.025.026.073.026.122.052,0,.078,0,.1.025s.026.073.026.122c.078,0,.052.049.052.122l-.052.049Zm-1.146-.317h-.078a.984.984,0,0,0-.13-.22c0-.025-.026-.025-.052-.025.13,0,.208,0,.208.122.078,0,.052.049.052.122Zm1.276-.122c0-.025,0-.049-.026-.049l-.235-.073c0-.049,0-.1-.026-.122,0-.025-.026-.049-.052-.073h.078V46.2a.239.239,0,0,1,.261.244Zm-.547-.171a.2.2,0,0,0-.13-.025v-.1h.13v.122Zm2.525-.024h-.13v-.22a.124.124,0,0,1,.052.1c.079,0,.079.049.079.122Zm-3.463-.1a.761.761,0,0,0-.235-.025.636.636,0,0,0-.026-.22h.13c.026.025.026.049.026.1.052,0,.078,0,.1.025s.026.049.026.1l-.026.025Zm1.926-.122a.406.406,0,0,0-.182-.025.388.388,0,0,0,.052-.122c.1,0,.026-.049-.052-.049a.365.365,0,0,0,.1-.073.25.25,0,0,0,.026-.122.1.1,0,0,1,.078.025.447.447,0,0,1-.026.171c-.13,0,.026.073.026.073a.25.25,0,0,1-.026.122Zm-.338-.146h-.235c0-.073.1-.1.182-.1a.123.123,0,0,1,.052.1Zm.547-.049c-.078,0-.052-.122-.052-.2h.13c0,.049,0,.146-.078.146,0,0,0,.025,0,.049Zm-.52-.073h-.078a.26.26,0,0,0-.13-.1.541.541,0,0,1,.078-.122h.1c.026.025.026.073.026.122.1,0,0,.073,0,.1Zm-1.146-.049c-.078,0-.1-.2-.1-.269.1.049.208.049.1.269Zm-.573-.391h-.156v-.1c0-.025-.026-.025-.052-.025h.26v.073l-.052.049ZM61,45.03h-.078a.693.693,0,0,0-.052-.244h.078c0-.146.1.1.1.171,0,.025-.027.049-.052.073Zm-.208-.513H60.61v-.1h.182v.1Zm-47.34-.9h-.13a.856.856,0,0,0,.026-.244h.1c.026,0,.052.025.078.049v.073c-.078,0-.026.073-.078.122ZM15.2,41.732H15.17v-.1H15.2v.1Zm.521-.66a.205.205,0,0,0-.13-.025v-.1c.078,0,.052-.049.052-.122h.156a.335.335,0,0,1,.052.171.472.472,0,0,0-.13.049s0,0,0,.025Zm43.1-.44h-.052v-.073h.052v.073Zm-.729,0h-.13v-.073c-.078,0-.052-.073-.052-.122h.1c.026-.025.052-.049.078-.049v.244Zm.651-.122c-.026-.025-.052-.025-.1-.025,0-.073.1-.024.1.025Zm-.859-.611c-.026-.025-.052-.025-.1-.025V39.8h.1v.1Zm-.26-.22a.205.205,0,0,0-.13-.049.447.447,0,0,0,.026-.171c.026-.025.052-.049.052-.073.13,0,.052.22.052.293Zm-.313-.22a.2.2,0,0,0-.13-.025c0-.049,0-.073-.026-.1,0-.025-.026-.049-.052-.073a.446.446,0,0,1,.13-.049v.122c.078,0,.078.049.078.122Zm-39.4-.806h-.13a.083.083,0,0,1,.052-.025c.026-.025.052-.049.078-.049,0-.073.078-.025.078-.171.078,0,.052.049.052.122a.338.338,0,0,0-.078.1.077.077,0,0,0-.051.024Zm2.109-1.368H19.7v-.122a1.341,1.341,0,0,1,.313-.025c0-.146.078.073.078.122h-.078v.025Zm.521-1.319h-.078v-.1h.078v.1Zm1.328-1.417h-.078a.25.25,0,0,0,.026-.122h.1a.435.435,0,0,1-.052.122Zm28.956-2.81h-.182v-.415c.026,0,.26-.2.26.049.052,0,.078,0,.1.025v.122c0,.025-.026.049-.052.1l-.078.073-.052.049Zm-.391-.293H50.35V31.2c-.078,0-.052-.2-.052-.269.078,0,.052-.1.052-.171.026-.025.052-.049.052-.073h.078c0-.073.13-.049.208-.049v.122a.591.591,0,0,1,.13.073.18.18,0,0,1,.052.122,1.306,1.306,0,0,1-.182.073l-.13.122c0,.1,0,.244-.13.244,0,0,0,.024,0,.048Zm.651-1.1a.2.2,0,0,0-.13-.025.446.446,0,0,0-.052-.2c.052-.073.1-.122.13-.171.078,0,.026-.073.13-.073,0-.073.1-.049.182-.049.1.025.208.049.286.073a.18.18,0,0,1,.052.122.338.338,0,0,0-.078.1.3.3,0,0,0-.13.025c-.026,0-.052.025-.078.049,0-.073-.052-.049-.13-.049a.576.576,0,0,1-.13.073v.1a.077.077,0,0,0-.052.024ZM20.2,28.906h-.1v-.073h.13a.086.086,0,0,1-.026.073Zm-.442-.367h-.078v-.073h.078v.073Zm-1.146-1.417a.406.406,0,0,0-.182-.025v-.122a.206.206,0,0,1,.13.025v.1c.026,0,.052,0,.052.025ZM55.584,27h-.078v-.1c.078,0,.052-.049.052-.122a.086.086,0,0,1,.026.073c.078,0,.052.049.052.122a.084.084,0,0,0-.052.025Zm-36.9-.635h-.13v-.073h.13v.073Zm-.912-.122H17.7v-.073c.052,0,.078,0,.078.073Zm.13-.122a.205.205,0,0,0-.13-.025c0-.073.026-.122-.078-.122a.693.693,0,0,0-.052-.22.206.206,0,0,1,.1-.025c0-.049.026-.073.026,0,.026.025.052.049.052.073l.156.073V25.8a.689.689,0,0,1,.182-.049c0,.073.156.1.052.293a1.412,1.412,0,0,0-.313.049s0,0,0,.025Zm-.417-.391h-.1c0-.073-.052-.049-.13-.049,0-.049,0-.1-.026-.122-.13,0,0-.073,0-.073h-.208a.184.184,0,0,0-.052-.122c-.078,0-.052-.122-.052-.171a.2.2,0,0,0-.13-.025A.586.586,0,0,0,16.836,25a.835.835,0,0,1,.208-.049v.1c.1,0,.078.122.078.2l.235.073c0,.073.13.049.208.073v.1c.1,0,.078.122.078.2h-.156v.049Zm-.7-.22a.2.2,0,0,0-.13-.025v-.1c.078,0,.052-.049.052-.1a.206.206,0,0,1,.13.025v.122c0,.024-.026.049-.052.073Zm1.093-.269h-.235V25.07c.261-.122.235.049.235.171Zm38.747-.049a.846.846,0,0,0-.26-.025v-.122c.13,0,.078-.22.078-.293.052-.073.1-.122.13-.171a.536.536,0,0,1,.182-.025c0-.049.026-.073.026,0,.1,0,.052.2.052.269a.472.472,0,0,0-.13.049c0,.073-.078.049-.13.073v.1c.079,0,.052.074.052.148Zm-41.169-.44h-.078v-.073c.026-.025.052-.049.078-.049,0,.025.1.073,0,.073v.049Zm.6-.073h-.078c-.026-.1-.052-.171-.078-.244a.531.531,0,0,0-.13-.2c-.078,0-.1-.146-.1-.22a.536.536,0,0,1,.182-.025v-.122h.13v-.1h.182c.026.025.026.049.026.1a.406.406,0,0,1,.182.025.632.632,0,0,1,.026.22,2.085,2.085,0,0,1,.391.025v.1s.1.025,0,.025c-.026,0-.052.025-.078.049,0,.073-.078.049-.13.049-.026-.025-.052-.049-.078-.049v-.073a.054.054,0,0,0-.052-.049.472.472,0,0,0-.13.049v.244c.026.025.052.049.052.073a1.031,1.031,0,0,0-.26.025c0,.025-.026.049-.052.1Zm-1.015-.244c0-.025-.026-.049-.052-.073-.078,0-.052-.1-.078-.122a.536.536,0,0,0-.182.025.541.541,0,0,1,.078-.122h.182c.026,0,.052.025.078.049a.86.86,0,0,1-.026.245Zm1.224-.074h-.078v-.1c.078,0,.078.025.078.1Zm-1.953-.488c-.078,0-.052-.073-.052-.122-.156,0,.078-.049.13-.049v.122h-.078s0,.024,0,.049Zm.364-.171a.1.1,0,0,0-.078-.025v-.1a.535.535,0,0,0-.208-.025v-.122h.286V23.7Zm1.953-.025h-.182c-.026-.025-.052-.049-.078-.049,0-.073-.026-.073-.1-.073,0-.049,0-.073-.026-.1-.078,0-.052-.146.026-.146,0-.1.182-.122.313-.1a.259.259,0,0,1,.13.1v.073c.13,0,.078.2,0,.2-.026,0-.052.025-.078.049,0,0,0,.024,0,.049Zm20.1-4.2h-.078a.184.184,0,0,0-.052-.122.689.689,0,0,1,.182-.049c.026.049.026.122-.052.122,0,0,0,.024,0,.049Zm-1.042,0h-.13c0-.073-.052-.073-.13-.073V19.06a.206.206,0,0,1,.1-.025v-.122c0-.073.078-.049.156-.049v.122h.1v-.073c.1,0,.156-.025.156.073.182,0,.182.122.182.293,0,.025-.026.049-.052.073H36c0,.1-.235.049-.313.073,0,0,0,.024,0,.049Zm-.807-.416a.2.2,0,0,0-.13-.025,1.655,1.655,0,0,0-.078-.2h.208v.22Zm.286-.024h-.1a.341.341,0,0,0-.052-.171c.052,0,.078-.025,0-.025a.387.387,0,0,0,.052-.122H35.3v.073c.078,0,.052.049.052.122,0,.025-.026.049-.052.073,0-.025,0-.049-.026-.049l-.1.1Zm.442-.318H35.56v-.049h.052v.049Zm3.646-.293H39.1v-.073c-.078,0-.052-.22-.052-.293.026-.025.052-.049.052-.073h.26v.244c-.078,0-.052.073-.052.122,0,.024-.026.049-.052.073ZM61.574,18.3h-.13c0-.073-.026-.073-.1-.073,0-.049,0-.1-.026-.122-.078,0-.052-.073-.052-.122-.1,0-.026-.073.052-.073a.174.174,0,0,0,.026-.1h.182a.308.308,0,0,1,.13.122v.244c-.078,0-.052.073-.078.122Zm-25.78-.244h-.1v-.073a.345.345,0,0,1,.1.073Zm-.1-.122a.086.086,0,0,0-.026-.073c-.078,0-.026-.073.026-.073v.146Zm26.014-.2h-.1v-.122c.078,0,.026-.073.13-.073v-.1h.078a.447.447,0,0,1-.026.171c-.078,0-.052.074-.078.122Zm-.442,0h-.13a1.145,1.145,0,0,0-.078-.171c-.078,0-.052-.1-.052-.146a.446.446,0,0,1,.13-.049c0-.073.078-.073.13-.073v-.122c.026-.025.052-.049.052-.073a.536.536,0,0,0-.182.025c-.026,0-.052.025-.078.049a.25.25,0,0,0,.026-.122c.026-.025.052-.049.052-.073h-.078c0-.049-.1-.122.026-.122,0-.073.026-.122-.078-.122a.184.184,0,0,0-.052-.122c.078,0,.052-.049.052-.1h.078a.18.18,0,0,1,.052.122c.13,0,.052.122.052.22h.13a.25.25,0,0,0,.026-.122c.13,0-.026-.171-.026-.171-.078,0-.1-.146-.13-.2h-.1V16.3c.078,0,.052-.049.052-.122a.205.205,0,0,0-.13-.049.446.446,0,0,0-.052-.2h.1v-.1h.078a6128.7,6128.7,0,0,0,.261.245.308.308,0,0,1,.13.122l.078.293c.1,0,.052.171.052.244-.078,0-.052.122-.052.2.235,0,.26.317.182.489a.392.392,0,0,0-.182-.049.251.251,0,0,1-.026.122c-.078.025-.156.049-.26.073v.1c0,.023-.026.047-.052.072Zm2.109-.367c-.078,0-.052-.171-.052-.244.026-.025.052-.049.052-.073h.156a.447.447,0,0,1-.026.171.338.338,0,0,0-.078.1l-.052.049Zm-23.045-.44h-.156v-.073c-.078,0-.052-.22-.052-.293h.13c0,.073.13.049.182.073v.049c-.078,0,0,.1,0,.2h-.1s0,.025,0,.049Zm-28.826,0h-.078c-.026-.171-.052-.342-.078-.513-.078,0-.052-.122-.052-.171a.446.446,0,0,1,.13-.049.1.1,0,0,0-.078-.025.174.174,0,0,0,.026-.1.206.206,0,0,1,.1-.025,1.112,1.112,0,0,0,.026-.293c.078,0,.026-.073.182-.073v-.073c0-.073.1-.049.182-.049a.073.073,0,0,0,.026-.049v.1a.206.206,0,0,1,.13.025l.078.073a3.217,3.217,0,0,1-.026.489h-.1a.347.347,0,0,0-.156-.025.388.388,0,0,0,.052-.122.808.808,0,0,0-.26-.049v.171a.3.3,0,0,0-.13.025c.026.1.052.2.078.317a.124.124,0,0,1,.052.1.537.537,0,0,1,.208.025v.1a.684.684,0,0,0-.208.025v.1a.207.207,0,0,0-.1.025s0,.023,0,.047Zm22.316-.2h-.26a.856.856,0,0,0,.026-.244.689.689,0,0,1,.182-.049v.049c.13,0,.052.2.052.244Zm-1.771-.244h-.078c0-.1-.1-.073-.182-.073-.026-.025-.052-.049-.078-.049a1.653,1.653,0,0,0-.078-.2h.078a.174.174,0,0,0,.026-.1h.1c.026,0,.052.025.078.049,0,.073.13.049.182.073v.122c-.078,0-.052.122-.052.171Zm9.323-.415a.846.846,0,0,0-.26-.025c0-.073-.052-.049-.13-.049,0-.049,0-.073-.078-.073v-.1h.078v-.073c.026-.025.052-.049.052-.073.078,0,.078-.073.078-.122a.689.689,0,0,1,.182-.049c.026.025.026.049.026.1.052,0,.078,0,.1.025,0,.073.078.049.13.073v.22a.207.207,0,0,0-.1.025.175.175,0,0,1-.026.1.07.07,0,0,0-.052.023Zm-28.774-.684H12.41v-.122c-.078,0-.052-.1-.052-.146h.1c.026-.025.052-.049.078-.049.026-.025.052-.049.078-.049a.308.308,0,0,1,.13.122.636.636,0,0,1-.026.22h-.13v.023Zm.234-.488h-.156v-.1c.1,0-.052-.122-.052-.171.026,0,.208-.171.208,0,.026.025.052.049.052.073-.078,0,0,.1,0,.171a.084.084,0,0,0-.052.025Zm28.2-.22a.127.127,0,0,0-.052-.1c.026-.025.052-.049.052-.073a.446.446,0,0,1,.13-.049v.122a.472.472,0,0,0-.13.049v.049Zm1.641-.611h-.1c0-.049,0-.1-.026-.122,0-.025-.026-.049-.052-.073-.078,0-.052-.146-.052-.22a.206.206,0,0,1,.1-.025.174.174,0,0,0,.026-.1.3.3,0,0,1,.13-.025c.078-.049.13-.1.182-.122v-.1a.682.682,0,0,1,.208-.025v.367l-.078.146c-.052.025-.1.073-.182.122V14a.347.347,0,0,0-.156.025.375.375,0,0,0,0,.05Zm-12.6-.489h-.156v-.073a.127.127,0,0,0-.052-.1c.078,0,.078-.073.078-.146a.846.846,0,0,1,.26.025c0,.073.078.025.078.171H30.2a.576.576,0,0,1-.13.073v.049ZM42.486,12.9c0-.025-.026-.049-.052-.073.052,0,.1-.1.1.025l-.052.049Zm2.708-1.783a.406.406,0,0,0-.182-.025v-.171c.026-.025.052-.049.052-.073a.446.446,0,0,1,.13-.049c0,.073.078.049.13.073V11a.338.338,0,0,0-.078.1.076.076,0,0,0-.052.024ZM58.553,11a.536.536,0,0,0-.208-.025v-.1h.26v.1a.094.094,0,0,0-.052.025Zm-12.368-.928a.205.205,0,0,0-.13-.025V9.922c-.078,0,0-.073,0-.122.078,0,.026-.073.182-.073a.446.446,0,0,1,.026.2c.026.025.052.049.052.073a.472.472,0,0,0-.13.049s0,0,0,.025Zm.6-.562H46.6V9.434h.1c.026-.025.052-.049.078-.049V9.312c.078,0,.078-.049.078-.122h.13a.856.856,0,0,1-.026.244h-.1c-.026,0-.052.025-.078.049v.025Zm2.969-.342h-.182V8.872c.026-.025.052-.049.052-.073.078,0,.052-.049.052-.1h.1c0,.1.182.025.1.293h-.1a.432.432,0,0,1-.026.171Zm-1.719-.342c-.078,0-.052-.073-.052-.122.078,0,.078.025.078.1l-.026.025Zm1.536-.318h-.156a.25.25,0,0,0,.026-.122h.13c0,.025,0,.074,0,.122Zm-1.146,0h-.1c0-.073-.052-.049-.13-.049V8.383c.026-.025.052-.049.052-.073l.078-.073.13-.122c.078,0,.078-.1.235-.1.026,0,.052.025.078.049v.073c.1,0-.13.244-.182.244h-.026l-.13.122Zm2.109-.146H50.35v-.1c.052,0,.078-.025,0-.025a.184.184,0,0,0-.052-.122V7.992c.078,0,.078-.1.235-.1.026,0,.052.025.078.049.1.025.182.049.26.073v.1a.207.207,0,0,0-.1.025.175.175,0,0,1-.026.1h-.1s-.026-.1-.026,0a.547.547,0,0,0-.078.123Zm-3.281-.22c0-.025-.026-.049-.052-.073.078,0,.13-.122.13-.2a.446.446,0,0,1,.13-.049.447.447,0,0,1-.026.171.207.207,0,0,0-.1.025.175.175,0,0,1-.026.1.077.077,0,0,0-.052.024Zm2.057-.269h-.078V7.821h.078V7.87Zm2.161-.244h-.13V7.455c.052,0,.078-.025,0-.025a.388.388,0,0,0,.052-.122.446.446,0,0,1,.026.2c.079,0,.052.049.052.122ZM49.7,6.941h-.13v-.1c.1,0,0-.1.13-.1V6.623a.347.347,0,0,1,.078-.1.124.124,0,0,1,.052.1s.1.025,0,.025V6.7c.1,0,0,.073,0,.146a.472.472,0,0,0-.13.049s0,.026,0,.05Zm.6-.44H50.22a.347.347,0,0,1,.078-.1v.1Z" transform="translate(-8.374 -5.448)"/>
</svg>
