<svg xmlns="http://www.w3.org/2000/svg" viewBox="0 0 48.089 57.106"><defs><style>.cls-1{fill:#a3c9f8}</style></defs><g id="scroll-btn"><path id="Path_744" data-name="Path 744" class="cls-1" d="M65.554 239.444a1.6 1.6 0 0 1-1-.349l-22.436-17.867a1.613 1.613 0 0 1-.608-1.264v-13.457a1.6 1.6 0 0 1 2.6-1.267l14.318 11.4a1.61 1.61 0 0 1-2 2.527l-11.712-9.326v9.339l20.832 16.59 20.832-16.581v-9.339l-19.827 15.786a1.611 1.611 0 0 1-2-2.527l22.442-17.869a1.6 1.6 0 0 1 2.6 1.264v13.461a1.613 1.613 0 0 1-.608 1.264L66.553 239.1a1.6 1.6 0 0 1-.999.344z" transform="translate(-41.51 -182.338)"/><path id="Path_745" data-name="Path 745" d="M14.33 27.789l22.433 17.867 16.93-13.484 5.5-4.383V14.33L36.763 32.2 14.33 14.33z" transform="translate(-12.718 -12.718)" fill="#a5abbd"/><path id="Path_746" data-name="Path 746" class="cls-1" d="M65.555 34.551a1.6 1.6 0 0 1-1-.35L42.118 16.335a1.614 1.614 0 0 1-.608-1.258V1.613A1.6 1.6 0 0 1 44.114.35l21.44 17.07L86.995.35a1.6 1.6 0 0 1 2.6 1.262v13.465a1.614 1.614 0 0 1-.608 1.264L66.553 34.2a1.6 1.6 0 0 1-.998.351zM44.723 14.289l20.832 16.59 20.832-16.59V4.951L66.553 20.743a1.6 1.6 0 0 1-2 0L44.723 4.951z" transform="translate(-41.51)"/></g></svg>