<svg xmlns="http://www.w3.org/2000/svg" viewBox="0 0 46 50.461"><path d="M24.283 16.062a1.256 1.256 0 0 1 1.352-1.131h.323a1.256 1.256 0 0 1 1.352 1.131 1.256 1.256 0 0 1-1.352 1.131h-.323a1.256 1.256 0 0 1-1.352-1.131zm21.661 33.582a1.317 1.317 0 0 1-1.183.817H6.2c-3.418 0-6.19-2.32-6.2-5.181V4.91C0 2.2 2.628 0 5.866 0h34.262c3.237.006 5.86 2.2 5.867 4.911v36.295a.954.954 0 0 1 0 .119 1.1 1.1 0 0 1-.539.808q-.054.034-.113.063a3.463 3.463 0 0 0 0 6.167q.059.03.114.064a1.036 1.036 0 0 1 .491 1.216zM5.6 45.28a1.256 1.256 0 0 1 1.352-1.131h33.919a5.5 5.5 0 0 1 .751-1.792H6.195A3.246 3.246 0 0 0 2.7 45.279 3.247 3.247 0 0 0 6.195 48.2h35.42a5.506 5.506 0 0 1-.751-1.792H6.947A1.257 1.257 0 0 1 5.6 45.28zM43.289 4.911a2.953 2.953 0 0 0-3.16-2.649H5.866A2.944 2.944 0 0 0 2.7 4.91V41a7.029 7.029 0 0 1 3.492-.9h37.095V4.91zm-9.942 20.423a1.426 1.426 0 0 0-1.713.71 1.1 1.1 0 0 0 .848 1.434 1.5 1.5 0 0 1 1.169 1.661 1.73 1.73 0 0 1-1.736 1.261H19.677a1.73 1.73 0 0 1-1.737-1.266 1.5 1.5 0 0 1 1.169-1.661 1.1 1.1 0 0 0 .848-1.434 1.426 1.426 0 0 0-1.713-.71 3.76 3.76 0 0 0-2.974 4.172 4.338 4.338 0 0 0 4.407 3.162h12.238a4.337 4.337 0 0 0 4.4-3.162 3.759 3.759 0 0 0-2.969-4.171zm-26.83-21.5A1.256 1.256 0 0 0 5.166 4.96v32.431a1.373 1.373 0 0 0 2.7 0V4.96a1.256 1.256 0 0 0-1.352-1.131zm15.564 20.6c-2.4-3.962-3.9-6.744-3.9-8.372 0-3.52 3.409-6.374 7.615-6.374s7.615 2.854 7.615 6.374c0 1.634-1.493 4.411-3.9 8.372 0 0-.862 1.423-.9 1.5a3.135 3.135 0 0 1-5.619 0c-.049-.077-.911-1.5-.911-1.5zm-1.2-8.372c0 1.413 2.527 5.57 3.6 7.346 0 0 .883 1.461.936 1.551a2.948 2.948 0 0 0 .291.453 1.117 1.117 0 0 0 .15 0 2.928 2.928 0 0 0 .291-.453c.051-.091.936-1.551.936-1.551 1.08-1.775 3.6-5.933 3.6-7.346 0-2.27-2.2-4.111-4.911-4.111s-4.911 1.841-4.911 4.111z" fill="#a3c9f8"/></svg>