<svg xmlns="http://www.w3.org/2000/svg" viewBox="0 0 46 46"><defs><style>.cls-1{fill:#a3c9f8}</style></defs><g id="email" transform="translate(0 -.015)"><path id="Path_807" data-name="Path 807" class="cls-1" d="M45.965 34.209a.773.773 0 0 0-.042-.25 1.259 1.259 0 0 0-.463-.7l-6.585-4.9v-5.252a1.307 1.307 0 0 0-.344-.894 1.14 1.14 0 0 0-.835-.37h-7.575l-6.445-4.793a1.114 1.114 0 0 0-1.341 0l-6.488 4.793H8.3a1.222 1.222 0 0 0-1.174 1.265V28.3L.509 33.189A1.284 1.284 0 0 0 0 34.212v.022l.035 27.332a1.221 1.221 0 0 0 1.178 1.259l43.609-.064A1.221 1.221 0 0 0 46 61.5zm-7.09-2.778l3.764 2.8-3.764 2.805zM23 19.619l2.994 2.223h-6zM9.482 24.367h27.037v14.418l-9.074 6.755-3.7-3.077-.016-.012a1.116 1.116 0 0 0-1.428.012l-3.728 3.095-9.09-6.716zm-2.356 6.995V37.1L3.25 34.23zm-4.767 5.277l14.256 10.544L2.388 58.995zm2.3 23.656l18.359-15.237 18.291 15.187zm24.73-13.136l14.22-10.578.029 22.412z" transform="translate(0 -16.81)"/><path id="Path_808" data-name="Path 808" class="cls-1" d="M169.387 147.71H155.17a1.05 1.05 0 0 0 0 2.1h14.217a1.05 1.05 0 1 0 0-2.1z" transform="translate(-139.278 -134.987)"/><path id="Path_809" data-name="Path 809" class="cls-1" d="M169.387 215.9H155.17a1.05 1.05 0 1 0 0 2.1h14.217a1.05 1.05 0 1 0 0-2.1z" transform="translate(-139.278 -196.556)"/></g></svg>