<svg xmlns="http://www.w3.org/2000/svg" viewBox="0 0 46 46"><defs><style>.cls-1{fill:#a3c9f8}</style></defs><g id="phone" transform="translate(-.008 -.027)"><path id="Path_804" data-name="Path 804" class="cls-1" d="M36.722 53.244a4.534 4.534 0 0 0-3.286-1.5 4.672 4.672 0 0 0-3.325 1.5l-3.072 3.058c-.253-.136-.506-.262-.749-.388-.35-.175-.681-.34-.963-.515a33.375 33.375 0 0 1-8-7.281 19.667 19.667 0 0 1-2.627-4.146c.8-.728 1.536-1.485 2.256-2.213.272-.272.544-.553.817-.825a4.45 4.45 0 0 0 0-6.718l-2.654-2.65c-.3-.3-.613-.612-.9-.922-.583-.6-1.2-1.223-1.828-1.806a4.606 4.606 0 0 0-3.262-1.428 4.766 4.766 0 0 0-3.306 1.427l-.019.019-3.304 3.33A7.1 7.1 0 0 0 .388 36.7a17 17 0 0 0 1.245 7.2 41.788 41.788 0 0 0 7.438 12.392A45.745 45.745 0 0 0 24.307 68.2a23.764 23.764 0 0 0 8.556 2.524c.2.01.418.019.613.019a7.331 7.331 0 0 0 5.61-2.408c.01-.019.029-.029.039-.049a22.085 22.085 0 0 1 1.7-1.757c.418-.4.846-.815 1.264-1.252a4.84 4.84 0 0 0 1.468-3.359 4.679 4.679 0 0 0-1.5-3.33zM40.2 63.466c-.01 0-.01.01 0 0-.379.408-.768.777-1.186 1.184a25.55 25.55 0 0 0-1.876 1.942 4.691 4.691 0 0 1-3.656 1.544c-.146 0-.3 0-.447-.01a21.111 21.111 0 0 1-7.584-2.272 43.178 43.178 0 0 1-14.344-11.222 39.4 39.4 0 0 1-7-11.64 13.843 13.843 0 0 1-1.089-6.077 4.453 4.453 0 0 1 1.342-2.883l3.315-3.311a2.212 2.212 0 0 1 1.478-.689 2.081 2.081 0 0 1 1.42.68l.029.029a48.438 48.438 0 0 1 1.75 1.738c.3.311.613.621.924.942l2.654 2.65a1.851 1.851 0 0 1 0 3.01c-.282.282-.554.563-.836.835a51.096 51.096 0 0 1-2.44 2.369c-.019.019-.039.029-.049.049a1.978 1.978 0 0 0-.506 2.2l.029.087a21.272 21.272 0 0 0 3.14 5.116l.01.01a35.667 35.667 0 0 0 8.634 7.844 13.283 13.283 0 0 0 1.2.649c.35.175.681.34.963.515.039.019.078.049.117.068a2.11 2.11 0 0 0 .963.243 2.08 2.08 0 0 0 1.478-.67l3.325-3.32a2.2 2.2 0 0 1 1.468-.728 1.962 1.962 0 0 1 1.4.709l.019.019 5.355 5.351a1.921 1.921 0 0 1 .006 3.04z" transform="translate(-.34 -24.72)"/><path id="Path_805" data-name="Path 805" class="cls-1" d="M246.017 88.526a12.513 12.513 0 0 1 10.189 10.189A1.3 1.3 0 0 0 257.5 99.8a1.737 1.737 0 0 0 .224-.019 1.314 1.314 0 0 0 1.079-1.517 15.131 15.131 0 0 0-12.329-12.324 1.319 1.319 0 0 0-1.517 1.07 1.3 1.3 0 0 0 1.06 1.517z" transform="translate(-221.146 -77.56)"/><path id="Path_806" data-name="Path 806" class="cls-1" d="M270.6 20.345a24.915 24.915 0 0 0-20.3-20.3 1.311 1.311 0 1 0-.428 2.586 22.253 22.253 0 0 1 18.143 18.143 1.3 1.3 0 0 0 1.293 1.089 1.735 1.735 0 0 0 .224-.019 1.288 1.288 0 0 0 1.07-1.5z" transform="translate(-224.615)"/></g></svg>