<svg xmlns="http://www.w3.org/2000/svg" viewBox="0 0 40 40"><defs><style>.cls-1{fill:#a3c9f8}</style></defs><g id="leftarrow" transform="translate(-.129)"><path id="Path_798" data-name="Path 798" class="cls-1" d="M2.825 30.033a20 20 0 1 0-.043-19.983 20 20 0 0 0 .044 19.984zM2.812 15.4A17.941 17.941 0 1 1 15.52 37.315 17.915 17.915 0 0 1 2.812 15.4z"/><path id="Path_799" data-name="Path 799" class="cls-1" d="M120.3 143.687l12 6.9a2.031 2.031 0 0 0 3.043-1.764l-.025-13.836a2.026 2.026 0 0 0-3.049-1.753l-11.969 6.935a2.031 2.031 0 0 0 .007 3.517zm.967-1.839l11.968-6.938a.09.09 0 0 1 .135.078l.025 13.836a.081.081 0 0 1-.045.078.091.091 0 0 1-.046.014.084.084 0 0 1-.044-.014l-11.994-6.9a.09.09 0 0 1 0-.156z" transform="translate(-109.364 -121.909)"/><path id="Path_800" data-name="Path 800" class="cls-1" d="M96.712 358.348a14.637 14.637 0 0 0 9.528 5.478.971.971 0 0 0 .259-1.923 12.677 12.677 0 0 1-8.252-4.745.97.97 0 0 0-1.529 1.191z" transform="translate(-88.666 -328.109)"/></g></svg>