<svg xmlns="http://www.w3.org/2000/svg" viewBox="0 0 40 40"><defs><style>.cls-1{fill:#a3c9f8}</style></defs><g id="rightarrow" transform="translate(-.047 -.096)"><path id="Path_801" data-name="Path 801" class="cls-1" d="M37.369 10.095a20 20 0 1 0 .007 19.984 20 20 0 0 0-.007-19.984zm-.014 14.634A17.944 17.944 0 1 1 24.684 2.787a17.914 17.914 0 0 1 12.671 21.942z"/><path id="Path_802" data-name="Path 802" class="cls-1" d="M188.013 140.577l-12.432-7.177a2.107 2.107 0 0 0-3.161 1.825v14.355a2.1 2.1 0 0 0 3.161 1.825l12.432-7.178a2.107 2.107 0 0 0 0-3.65zm-1.007 1.906l-12.432 7.178a.094.094 0 0 1-.14-.081v-14.357a.084.084 0 0 1 .047-.081.094.094 0 0 1 .048-.014.087.087 0 0 1 .045.014l12.432 7.178a.094.094 0 0 1 0 .162z" transform="translate(-158.565 -122.309)"/><path id="Path_803" data-name="Path 803" class="cls-1" d="M279.11 64.655a15.188 15.188 0 0 0-9.875-5.7 1.007 1.007 0 0 0-.273 1.993 13.155 13.155 0 0 1 8.556 4.94 1.007 1.007 0 0 0 1.592-1.232z" transform="translate(-246.861 -54.407)"/></g></svg>