<svg xmlns="http://www.w3.org/2000/svg" viewBox="0 0 89 67"><defs><style>.cls-1{fill:#a3c9f8}</style></defs><g id="code" transform="translate(21.64 -151.5)"><g id="Group_30" data-name="Group 30" transform="translate(-21.64 151.5)"><g id="Group_29" data-name="Group 29"><path id="Path_784" data-name="Path 784" class="cls-1" d="M108.518 156.245v57.487c0 .136-.009.271-.022.406.027-.283-.04.116-.047.145a3.361 3.361 0 0 1-.117.356c.1-.257-.065.1-.079.128-.026.046-.3.434-.142.233a3.45 3.45 0 0 1-.25.268c-.018.018-.325.269-.106.105a3.431 3.431 0 0 1-.31.2c-.023.013-.385.184-.128.079a3.407 3.407 0 0 1-.357.117c-.026.008-.432.085-.146.047a3 3 0 0 1-.393.022H28.325c-.579 0-1.172.032-1.75-.022.284.027-.116-.04-.146-.047a3.393 3.393 0 0 1-.357-.117c.258.1-.1-.065-.128-.079a3.423 3.423 0 0 1-.31-.2c.223.154-.085-.086-.106-.105a3.43 3.43 0 0 1-.25-.268c.177.2-.063-.1-.079-.128-.028-.043-.243-.477-.142-.233a3.385 3.385 0 0 1-.117-.356c-.008-.026-.085-.43-.047-.145a2.98 2.98 0 0 1-.022-.391v-57.5c0-.13.01-.259.022-.389-.026.27.067-.212.082-.266.008-.027.162-.4.047-.145a3.419 3.419 0 0 1 .177-.324c.014-.023.25-.339.079-.127a3.446 3.446 0 0 1 .25-.268c.018-.018.325-.269.106-.105a3.429 3.429 0 0 1 .31-.2c.023-.013.385-.184.128-.079a3.427 3.427 0 0 1 .48-.147c.391-.1-.254.009.152-.029.07-.007.192-.01.262-.01h79.312c.179 0 .356.005.535.022-.271-.026.213.066.267.082q.119.037.236.082-.192-.08.02.02a3.433 3.433 0 0 1 .419.258q-.161-.126.016.022a3.438 3.438 0 0 1 .26.259q.149.177.022.016.072.1.137.2c.028.043.243.477.142.233a3.391 3.391 0 0 1 .148.478q.042.236.017.023a3.468 3.468 0 0 1 .022.389 1.334 1.334 0 0 0 2.668 0 4.815 4.815 0 0 0-4.764-4.745H26.966a4.807 4.807 0 0 0-4.764 4.745v57.49a4.808 4.808 0 0 0 3.64 4.624 9.988 9.988 0 0 0 2.375.134h78.194a4.819 4.819 0 0 0 4.639-3.626 11.845 11.845 0 0 0 .134-2.8v-55.82a1.334 1.334 0 0 0-2.667 0z" transform="translate(-22.202 -151.5)"/></g></g><g id="Group_32" data-name="Group 32" transform="translate(-21.64 151.5)"><g id="Group_31" data-name="Group 31"><path id="Path_785" data-name="Path 785" class="cls-1" d="M108.517 156.284v7.272l1.334-1.34H23.536l1.334 1.34v-7.265c0-.059.058-.566.013-.3a3.421 3.421 0 0 1 .091-.37q.037-.12.083-.237-.08.193.02-.02a3.433 3.433 0 0 1 .189-.319c.211-.329-.162.177.092-.118a3.457 3.457 0 0 1 .26-.261c.285-.266-.2.13.117-.093a1.931 1.931 0 0 1 1.1-.394c.162-.009.326 0 .488 0h79.1c.113 0 .15 0 .262.01q.244.023.028 0a3.383 3.383 0 0 1 .368.092q.119.037.236.083c-.258-.1.1.065.128.079q.107.061.209.13c.328.212-.177-.163.117.093q.091.082.176.171c.018.019.27.326.106.106a3.468 3.468 0 0 1 .314.531q-.075-.2.008.026a3.434 3.434 0 0 1 .1.364q.042.238.017.023a3.44 3.44 0 0 1 .022.392 1.334 1.334 0 1 0 2.668 0 4.835 4.835 0 0 0-4.764-4.784H26.966a4.827 4.827 0 0 0-4.764 4.786v7.27a1.349 1.349 0 0 0 1.334 1.34h86.316a1.349 1.349 0 0 0 1.334-1.34v-7.272a1.334 1.334 0 1 0-2.668 0z" transform="translate(-22.202 -151.5)"/></g></g><g id="Group_34" data-name="Group 34" transform="translate(-16.051 156.141)"><g id="Group_33" data-name="Group 33"><path id="Path_786" data-name="Path 786" class="cls-1" d="M82.041 202.065q.064-.339.011-.13a.669.669 0 0 1 .2-.338q-.15.144.1-.071l.185-.074q-.209.053.13-.011.339.064.13.011a.669.669 0 0 1 .338.2q-.144-.15.071.1l.074.185q-.053-.209.011.13-.064.339-.011.13a.669.669 0 0 1-.2.338q.15-.144-.1.071l-.185.074q.209-.053-.13.011-.339-.064-.13-.011a.669.669 0 0 1-.338-.2q.144.15-.071-.1l-.074-.185q.053.209-.011-.13a1.34 1.34 0 1 0 2.679 0 2.1 2.1 0 0 0-2.054-2.054 2.054 2.054 0 1 0 2.054 2.054 1.34 1.34 0 0 0-2.679 0z" transform="translate(-80.61 -200.008)"/></g></g><g id="Group_36" data-name="Group 36" transform="translate(-9.019 156.141)"><g id="Group_35" data-name="Group 35"><path id="Path_787" data-name="Path 787" class="cls-1" d="M155.54 202.065q.064-.339.011-.13a.669.669 0 0 1 .2-.338q-.15.144.1-.071l.185-.074q-.209.053.13-.011.339.064.13.011a.669.669 0 0 1 .338.2q-.144-.15.071.1l.074.185q-.053-.209.011.13-.064.339-.011.13a.668.668 0 0 1-.2.338q.15-.144-.1.071l-.185.074q.209-.053-.13.011-.339-.064-.13-.011a.669.669 0 0 1-.338-.2q.144.15-.071-.1l-.074-.185q.053.208-.011-.131a1.34 1.34 0 1 0 2.679 0 2.1 2.1 0 0 0-2.054-2.054 2.054 2.054 0 1 0 2.054 2.054 1.34 1.34 0 0 0-2.679 0z" transform="translate(-154.109 -200.008)"/></g></g><g id="Group_38" data-name="Group 38" transform="translate(-2.074 156.141)"><g id="Group_37" data-name="Group 37"><path id="Path_788" data-name="Path 788" class="cls-1" d="M229.04 202.065q.064-.339.011-.13a.669.669 0 0 1 .2-.338q-.15.144.1-.071l.185-.074q-.209.053.13-.011.339.064.13.011a.669.669 0 0 1 .338.2q-.144-.15.071.1l.074.185q-.053-.209.011.13-.064.339-.011.13a.669.669 0 0 1-.2.338q.15-.144-.1.071l-.185.074q.209-.053-.13.011-.339-.064-.13-.011a.669.669 0 0 1-.338-.2q.144.15-.071-.1l-.074-.185q.053.208-.011-.131a1.34 1.34 0 1 0 2.679 0 2.1 2.1 0 0 0-2.054-2.054 2.054 2.054 0 1 0 2.054 2.054 1.34 1.34 0 0 0-2.679 0z" transform="translate(-227.609 -200.008)"/></g></g><g id="Group_51" data-name="Group 51" transform="translate(-3.969 174.87)"><g id="Group_40" data-name="Group 40"><g id="Group_39" data-name="Group 39"><path id="Path_789" data-name="Path 789" class="cls-1" d="M224.039 438.542l-10.078-10.078-2.791-2.791v1.894l10.078-10.078 2.791-2.791a1.34 1.34 0 0 0-1.894-1.894l-10.078 10.078-2.791 2.791a1.352 1.352 0 0 0 0 1.894l10.078 10.078 2.791 2.791a1.34 1.34 0 0 0 1.894-1.894z" transform="translate(-208.888 -412.408)"/></g></g><g id="Group_42" data-name="Group 42" transform="translate(38.095)"><g id="Group_41" data-name="Group 41"><path id="Path_790" data-name="Path 790" class="cls-1" d="M609.326 440.438l10.074-10.079 2.791-2.791a1.352 1.352 0 0 0 0-1.894L612.118 415.6l-2.791-2.791a1.34 1.34 0 0 0-1.894 1.894l10.078 10.078 2.791 2.791v-1.894l-10.078 10.078-2.791 2.791a1.34 1.34 0 0 0 1.894 1.894z" transform="translate(-607.037 -412.409)"/></g></g><g id="Group_44" data-name="Group 44" transform="translate(18.805 .009)"><g id="Group_43" data-name="Group 43"><path id="Path_791" data-name="Path 791" class="cls-1" d="M418.973 413.156l-5.482 10.544-7.357 14.154-.539 1.037a1.34 1.34 0 0 0 2.313 1.352l5.482-10.543 7.357-14.154.539-1.037a1.34 1.34 0 0 0-2.313-1.352z" transform="translate(-405.424 -412.498)"/></g></g></g></g></svg>