<svg xmlns="http://www.w3.org/2000/svg" viewBox="0 0 88 67"><defs><style>.cls-1{fill:#a3c9f8}</style></defs><g id="design" transform="translate(21.64 -151.5)"><g id="Group_30" data-name="Group 30" transform="translate(-21.64 151.5)"><g id="Group_29" data-name="Group 29"><path id="Path_784" data-name="Path 784" class="cls-1" d="M107.548 156.245v57.487c0 .136-.009.271-.022.406.027-.283-.039.116-.047.145a3.386 3.386 0 0 1-.116.356c.094-.257-.064.1-.078.128-.025.046-.3.433-.14.233a3.421 3.421 0 0 1-.248.268c-.018.018-.321.269-.1.105a3.388 3.388 0 0 1-.307.2c-.022.013-.381.184-.127.079a3.343 3.343 0 0 1-.353.117c-.026.008-.427.085-.144.047a2.95 2.95 0 0 1-.389.022H28.256c-.573 0-1.159.032-1.73-.022.281.027-.115-.04-.144-.047a3.321 3.321 0 0 1-.353-.117c.255.1-.1-.065-.127-.079a3.384 3.384 0 0 1-.307-.2c.22.154-.084-.086-.1-.105a3.415 3.415 0 0 1-.248-.268c.175.2-.062-.1-.078-.128-.028-.043-.24-.477-.14-.233a3.408 3.408 0 0 1-.116-.356c-.008-.026-.084-.43-.047-.145a3.014 3.014 0 0 1-.022-.391v-57.5c0-.13.01-.259.022-.389-.025.27.066-.212.081-.266.008-.027.16-.4.046-.145a3.432 3.432 0 0 1 .175-.324c.014-.023.247-.339.078-.127a3.442 3.442 0 0 1 .248-.268c.018-.018.321-.269.1-.105a3.385 3.385 0 0 1 .307-.2c.022-.013.381-.184.127-.079a3.345 3.345 0 0 1 .474-.147c.386-.1-.251.009.151-.029.069-.007.19-.01.259-.01h78.421c.177 0 .352.005.529.022-.268-.026.211.066.264.082q.118.037.234.082-.19-.08.02.02a3.386 3.386 0 0 1 .414.258q-.16-.126.016.022a3.409 3.409 0 0 1 .257.259q.147.177.022.016.071.1.135.2c.028.043.24.477.14.233a3.415 3.415 0 0 1 .146.478q.042.236.017.023a3.509 3.509 0 0 1 .022.389 1.319 1.319 0 1 0 2.638 0 4.788 4.788 0 0 0-4.71-4.744H26.912a4.78 4.78 0 0 0-4.71 4.745v57.49a4.8 4.8 0 0 0 3.6 4.624 9.767 9.767 0 0 0 2.349.134h77.316a4.776 4.776 0 0 0 4.587-3.626 11.977 11.977 0 0 0 .133-2.8v-55.821a1.319 1.319 0 1 0-2.638 0z" transform="translate(-22.202 -151.5)"/></g></g><g id="Group_32" data-name="Group 32" transform="translate(-21.64 151.5)"><g id="Group_31" data-name="Group 31"><path id="Path_785" data-name="Path 785" class="cls-1" d="M107.547 156.284v7.271l1.319-1.339H23.521l1.319 1.339v-7.265c0-.059.058-.566.013-.3a3.453 3.453 0 0 1 .09-.37q.036-.12.082-.237-.079.193.02-.02a3.435 3.435 0 0 1 .187-.319c.208-.329-.16.177.091-.118a3.431 3.431 0 0 1 .257-.261c.281-.266-.2.13.116-.093a1.9 1.9 0 0 1 1.088-.394c.16-.009.322 0 .482 0h78.21c.112 0 .148 0 .26.01q.241.023.028 0a3.307 3.307 0 0 1 .364.092q.118.037.234.083c-.255-.1.1.065.127.079q.106.061.207.13c.324.212-.175-.163.116.093q.09.082.174.171c.018.019.267.326.1.106a3.476 3.476 0 0 1 .311.531q-.074-.2.008.026a3.462 3.462 0 0 1 .1.364q.042.238.017.023a3.482 3.482 0 0 1 .022.392 1.319 1.319 0 1 0 2.638 0 4.808 4.808 0 0 0-4.71-4.784h-78.56a4.8 4.8 0 0 0-4.71 4.785v7.27a1.342 1.342 0 0 0 1.319 1.339h85.346a1.342 1.342 0 0 0 1.319-1.339v-7.271a1.319 1.319 0 1 0-2.638 0z" transform="translate(-22.202 -151.5)"/></g></g><g id="Group_34" data-name="Group 34" transform="translate(-16.052 156.141)"><g id="Group_33" data-name="Group 33"><path id="Path_786" data-name="Path 786" class="cls-1" d="M82.041 202.065q.064-.339.011-.13a.669.669 0 0 1 .2-.338q-.15.144.1-.071l.185-.074q-.209.053.13-.011.339.064.13.011a.669.669 0 0 1 .338.2q-.144-.15.071.1l.074.185q-.053-.209.011.13-.064.339-.011.13a.669.669 0 0 1-.2.338q.15-.144-.1.071l-.185.074q.209-.053-.13.011-.339-.064-.13-.011a.669.669 0 0 1-.338-.2q.144.15-.071-.1l-.074-.185q.053.209-.011-.13a1.339 1.339 0 1 0 2.679 0 2.1 2.1 0 0 0-2.054-2.054 2.054 2.054 0 1 0 2.054 2.054 1.339 1.339 0 0 0-2.679 0z" transform="translate(-80.61 -200.008)"/></g></g><g id="Group_36" data-name="Group 36" transform="translate(-9.019 156.141)"><g id="Group_35" data-name="Group 35"><path id="Path_787" data-name="Path 787" class="cls-1" d="M155.54 202.065q.064-.339.011-.13a.669.669 0 0 1 .2-.338q-.15.144.1-.071l.185-.074q-.209.053.13-.011.339.064.13.011a.669.669 0 0 1 .338.2q-.144-.15.071.1l.074.185q-.053-.209.011.13-.064.339-.011.13a.669.669 0 0 1-.2.338q.15-.144-.1.071l-.185.074q.209-.053-.13.011-.339-.064-.13-.011a.669.669 0 0 1-.338-.2q.144.15-.071-.1l-.074-.185q.053.208-.011-.131a1.339 1.339 0 1 0 2.679 0 2.1 2.1 0 0 0-2.054-2.054 2.054 2.054 0 1 0 2.054 2.054 1.339 1.339 0 1 0-2.679 0z" transform="translate(-154.109 -200.008)"/></g></g><g id="Group_38" data-name="Group 38" transform="translate(-2.305 156.141)"><g id="Group_37" data-name="Group 37"><path id="Path_788" data-name="Path 788" class="cls-1" d="M229.04 202.065q.064-.339.011-.13a.668.668 0 0 1 .2-.338q-.15.144.1-.071l.185-.074q-.209.053.13-.011.339.064.13.011a.669.669 0 0 1 .338.2q-.144-.15.071.1l.074.185q-.053-.209.011.13-.064.339-.011.13a.668.668 0 0 1-.2.338q.15-.144-.1.071l-.185.074q.209-.053-.13.011-.339-.064-.13-.011a.668.668 0 0 1-.338-.2q.144.15-.071-.1l-.074-.185q.053.208-.011-.131a1.339 1.339 0 1 0 2.679 0 2.1 2.1 0 0 0-2.054-2.054 2.054 2.054 0 1 0 2.054 2.054 1.339 1.339 0 1 0-2.679 0z" transform="translate(-227.609 -200.008)"/></g></g><g id="group39" transform="translate(4.52 172.477)"><path id="Path_797" data-name="Path 797" class="cls-1" d="M37.057 29.678a5.309 5.309 0 0 1-7.509 7.508l1.739-1.739 4.032-4.032zm-3.795-.316l-4.03 4.031-1.74 1.737-4.141-4.139-.057.056-9.207-9.207.057-.056-3-3.006L5.827 5.959l12.822 5.312 3 3 .02-.021 9.207 9.208-.02.02L35 27.624zm-19.755-11.7a2.991 2.991 0 0 0 .96-.6 1.988 1.988 0 0 0 .213-2.261 1.99 1.99 0 0 0 2.26-.201 3.005 3.005 0 0 0 .6-.962 5.8 5.8 0 0 0 .328-1.086L10.5 9.5l-1.13 1.13L12.42 18a5.892 5.892 0 0 0 1.087-.333zm26.178-4.38l-7.837-7.831a.967.967 0 0 0-1.371 0l-7.534 7.534 9.207 9.209 1.682-1.682-2.858-2.858a.9.9 0 1 1 1.27-1.27l2.856 2.857 1.682-1.681-2.856-2.86a.9.9 0 0 1 1.274-1.269l2.857 2.857 1.632-1.63a.972.972 0 0 0-.004-1.371zM5.283 30.644a.97.97 0 0 0 0 1.372l7.837 7.836a.969.969 0 0 0 1.372 0l1.631-1.63-2.858-2.857a.9.9 0 1 1 1.271-1.271l2.857 2.859 1.682-1.684-2.858-2.857a.9.9 0 1 1 1.271-1.271L20.345 34l1.68-1.682-9.207-9.209z" transform="translate(-4.999 -5.166)"/></g></g></svg>