<svg xmlns="http://www.w3.org/2000/svg" viewBox="0 0 88 67"><defs><style>.cls-1{fill:#a3c9f8}</style></defs><g id="marketing" transform="translate(21.257 -151.5)"><g id="Group_30" data-name="Group 30" transform="translate(-21.257 151.5)"><g id="Group_29" data-name="Group 29"><path id="Path_784" data-name="Path 784" class="cls-1" d="M107.548 156.245v57.487c0 .136-.009.271-.022.406.027-.283-.039.116-.047.145a3.392 3.392 0 0 1-.116.356c.094-.257-.064.1-.078.128-.025.046-.3.434-.14.233a3.439 3.439 0 0 1-.248.268c-.018.018-.321.269-.1.105a3.392 3.392 0 0 1-.307.2c-.022.013-.381.184-.127.079a3.352 3.352 0 0 1-.353.117c-.026.008-.427.085-.144.047a2.942 2.942 0 0 1-.389.022H28.256c-.573 0-1.159.032-1.73-.022.281.027-.115-.04-.144-.047a3.332 3.332 0 0 1-.353-.117c.255.1-.1-.065-.127-.079a3.389 3.389 0 0 1-.307-.2c.22.154-.084-.086-.1-.105a3.42 3.42 0 0 1-.248-.268c.175.2-.062-.1-.078-.128-.028-.043-.24-.477-.14-.233a3.412 3.412 0 0 1-.116-.356c-.008-.026-.084-.43-.047-.145a3.013 3.013 0 0 1-.022-.391v-57.5c0-.13.01-.259.022-.389-.025.27.066-.212.081-.266.008-.027.16-.4.046-.145a3.434 3.434 0 0 1 .175-.324c.014-.023.247-.339.078-.127a3.431 3.431 0 0 1 .248-.268c.018-.018.321-.269.1-.105a3.4 3.4 0 0 1 .307-.2c.022-.013.381-.184.127-.079a3.357 3.357 0 0 1 .474-.147c.386-.1-.251.009.151-.029.069-.007.19-.01.259-.01h78.421c.177 0 .352.005.529.022-.268-.026.211.066.264.082q.118.037.234.082-.19-.08.02.02a3.391 3.391 0 0 1 .414.258q-.16-.126.016.022a3.414 3.414 0 0 1 .257.259q.147.177.022.016.071.1.135.2c.028.043.24.477.14.233a3.419 3.419 0 0 1 .146.478q.042.236.017.023a3.506 3.506 0 0 1 .022.389 1.319 1.319 0 1 0 2.638 0 4.788 4.788 0 0 0-4.71-4.745H26.912a4.78 4.78 0 0 0-4.71 4.745v57.49a4.8 4.8 0 0 0 3.6 4.624 9.767 9.767 0 0 0 2.349.134h77.316a4.776 4.776 0 0 0 4.587-3.626 11.976 11.976 0 0 0 .133-2.8v-55.82a1.319 1.319 0 1 0-2.638 0z" transform="translate(-22.202 -151.5)"/></g></g><g id="Group_32" data-name="Group 32" transform="translate(-21.257 151.5)"><g id="Group_31" data-name="Group 31"><path id="Path_785" data-name="Path 785" class="cls-1" d="M107.546 156.692v7.891l1.319-1.454H23.521l1.319 1.454V156.7c0-.064.058-.614.013-.323a4.013 4.013 0 0 1 .09-.4q.036-.13.082-.257-.079.209.02-.022a3.824 3.824 0 0 1 .187-.346c.208-.357-.16.192.091-.128a3.6 3.6 0 0 1 .257-.283c.281-.289-.2.142.116-.1a1.8 1.8 0 0 1 1.088-.428c.16-.01.322 0 .482 0h78.209c.112 0 .148 0 .26.011q.241.025.028 0a3.1 3.1 0 0 1 .364.1q.118.04.234.09c-.255-.1.1.071.127.086q.106.067.207.141c.324.23-.175-.177.116.1q.09.089.174.185c.018.02.267.354.1.115a3.859 3.859 0 0 1 .311.577q-.074-.212.008.029a4.01 4.01 0 0 1 .1.4q.042.259.017.025a4.091 4.091 0 0 1 .022.426 1.325 1.325 0 1 0 2.638 0c-.048-2.822-2.112-5.192-4.71-5.192H26.912a5.024 5.024 0 0 0-4.71 5.194v7.89a1.4 1.4 0 0 0 1.319 1.454h85.344a1.4 1.4 0 0 0 1.319-1.454v-7.891a1.325 1.325 0 1 0-2.638 0z" transform="translate(-22.202 -151.5)"/></g></g><g id="Group_34" data-name="Group 34" transform="translate(-15.714 156.537)"><g id="Group_33" data-name="Group 33"><path id="Path_786" data-name="Path 786" class="cls-1" d="M82.163 202.24q.07-.368.012-.141a.726.726 0 0 1 .214-.367q-.162.156.11-.077l.2-.08q-.226.057.141-.012.368.07.141.012a.726.726 0 0 1 .367.214q-.156-.162.077.11l.08.2q-.057-.226.012.141-.07.368-.012.141a.726.726 0 0 1-.214.367q.162-.156-.11.077l-.2.08q.226-.057-.141.012-.368-.07-.141-.012a.726.726 0 0 1-.367-.214q.156.162-.077-.11l-.08-.2q.057.226-.012-.141a1.454 1.454 0 1 0 2.907 0 2.282 2.282 0 0 0-2.229-2.229 2.229 2.229 0 1 0 2.229 2.229 1.454 1.454 0 0 0-2.907 0z" transform="translate(-80.61 -200.008)"/></g></g><g id="Group_36" data-name="Group 36" transform="translate(-8.082 156.537)"><g id="Group_35" data-name="Group 35"><path id="Path_787" data-name="Path 787" class="cls-1" d="M155.662 202.24q.07-.368.012-.141a.726.726 0 0 1 .214-.367q-.162.156.11-.077l.2-.08q-.226.057.142-.012.368.07.141.012a.726.726 0 0 1 .367.214q-.156-.162.077.11l.08.2q-.057-.226.012.141-.07.368-.012.142a.726.726 0 0 1-.214.367q.162-.156-.11.077l-.2.08q.226-.057-.141.012-.368-.07-.142-.012a.726.726 0 0 1-.367-.214q.156.162-.077-.11l-.08-.2q.058.226-.012-.142a1.454 1.454 0 1 0 2.907 0 2.282 2.282 0 0 0-2.229-2.229 2.229 2.229 0 1 0 2.229 2.229 1.454 1.454 0 0 0-2.907 0z" transform="translate(-154.109 -200.008)"/></g></g><g id="Group_38" data-name="Group 38" transform="translate(-2.474 156.537)"><g id="Group_37" data-name="Group 37"><path id="Path_788" data-name="Path 788" class="cls-1" d="M229.162 202.24q.07-.368.012-.141a.726.726 0 0 1 .214-.367q-.162.156.11-.077l.2-.08q-.226.057.142-.012.368.07.141.012a.726.726 0 0 1 .367.214q-.156-.162.077.11l.08.2q-.057-.226.012.141-.07.368-.012.142a.726.726 0 0 1-.214.367q.162-.156-.11.077l-.2.08q.226-.057-.141.012-.368-.07-.142-.012a.726.726 0 0 1-.367-.214q.156.162-.077-.11l-.08-.2q.058.226-.012-.142a1.454 1.454 0 1 0 2.907 0 2.282 2.282 0 0 0-2.229-2.229 2.229 2.229 0 1 0 2.229 2.229 1.454 1.454 0 0 0-2.907 0z" transform="translate(-227.609 -200.008)"/></g></g><g id="Group_46" data-name="Group 46" transform="translate(1.523 170.402)"><g id="Group_45" data-name="Group 45" transform="translate(0 34.739)"><path id="Rectangle_127" data-name="Rectangle 127" class="cls-1" d="M0 0h42.096v4.223H0z"/></g><path id="Rectangle_128" data-name="Rectangle 128" class="cls-1" transform="translate(2.725 20.98)" d="M0 0h4.904v11.58H0z"/><path id="Rectangle_129" data-name="Rectangle 129" class="cls-1" transform="translate(10.626 5.994)" d="M0 0h4.904v26.565H0z"/><path id="Rectangle_130" data-name="Rectangle 130" class="cls-1" transform="translate(18.664 14.986)" d="M0 0h4.904v17.574H0z"/><path id="Rectangle_131" data-name="Rectangle 131" class="cls-1" transform="translate(26.565 23.977)" d="M0 0h4.904v8.583H0z"/><path id="Rectangle_132" data-name="Rectangle 132" class="cls-1" transform="translate(34.603)" d="M0 0h4.904v32.559H0z"/></g></g></svg>