<svg xmlns="http://www.w3.org/2000/svg" viewBox="0 0 88 67"><defs><style>.cls-1{fill:#a3c9f8}</style></defs><g id="seo" transform="translate(21.257 -151.5)"><g id="Group_30" data-name="Group 30" transform="translate(-21.257 151.5)"><g id="Group_29" data-name="Group 29"><path id="Path_784" data-name="Path 784" class="cls-1" d="M107.548 156.245v57.487c0 .136-.009.271-.022.406.027-.283-.039.116-.047.145a3.389 3.389 0 0 1-.116.356c.094-.257-.064.1-.078.128-.025.046-.3.434-.14.233a3.441 3.441 0 0 1-.248.268c-.018.018-.321.269-.1.105a3.392 3.392 0 0 1-.307.2c-.022.013-.381.184-.127.079a3.349 3.349 0 0 1-.353.117c-.026.008-.427.085-.144.047a2.945 2.945 0 0 1-.389.022H28.256c-.573 0-1.159.032-1.73-.022.281.027-.115-.04-.144-.047a3.328 3.328 0 0 1-.353-.117c.255.1-.1-.065-.127-.079a3.389 3.389 0 0 1-.307-.2c.22.154-.084-.086-.1-.105a3.421 3.421 0 0 1-.248-.268c.175.2-.062-.1-.078-.128-.028-.043-.24-.477-.14-.233a3.409 3.409 0 0 1-.116-.356c-.008-.026-.084-.43-.047-.145a3.013 3.013 0 0 1-.022-.391v-57.5c0-.13.01-.259.022-.389-.025.27.066-.212.081-.266.008-.027.16-.4.046-.145a3.433 3.433 0 0 1 .175-.324c.014-.023.247-.339.078-.127a3.434 3.434 0 0 1 .248-.268c.018-.018.321-.269.1-.105a3.389 3.389 0 0 1 .307-.2c.022-.013.381-.184.127-.079a3.359 3.359 0 0 1 .474-.147c.386-.1-.251.009.151-.029.069-.007.19-.01.259-.01h78.421c.177 0 .352.005.529.022-.268-.026.211.066.264.082q.118.037.234.082-.19-.08.02.02a3.389 3.389 0 0 1 .414.258q-.16-.126.016.022a3.413 3.413 0 0 1 .257.259q.147.177.022.016.071.1.135.2c.028.043.24.477.14.233a3.42 3.42 0 0 1 .146.478q.042.236.017.023a3.506 3.506 0 0 1 .022.389 1.319 1.319 0 1 0 2.638 0 4.788 4.788 0 0 0-4.71-4.745H26.912a4.78 4.78 0 0 0-4.71 4.745v57.49a4.8 4.8 0 0 0 3.6 4.624 9.766 9.766 0 0 0 2.349.134h77.316a4.776 4.776 0 0 0 4.587-3.626 11.977 11.977 0 0 0 .133-2.8v-55.82a1.319 1.319 0 1 0-2.638 0z" transform="translate(-22.202 -151.5)"/></g></g><g id="Group_32" data-name="Group 32" transform="translate(-21.257 151.5)"><g id="Group_31" data-name="Group 31"><path id="Path_785" data-name="Path 785" class="cls-1" d="M107.547 156.363v7.391l1.319-1.362H23.521l1.319 1.362v-7.384c0-.06.058-.575.013-.3a3.557 3.557 0 0 1 .09-.376q.036-.122.082-.241-.079.2.019-.02a3.511 3.511 0 0 1 .187-.324c.208-.334-.16.18.091-.12a3.462 3.462 0 0 1 .257-.265c.281-.271-.2.133.116-.094a1.877 1.877 0 0 1 1.088-.4c.16-.009.322 0 .482 0h78.21c.112 0 .148 0 .26.01q.241.023.028 0a3.27 3.27 0 0 1 .364.093q.118.038.234.084c-.255-.1.1.066.127.081q.106.062.207.132c.324.215-.175-.166.116.094q.09.084.174.174c.018.019.267.332.1.108a3.545 3.545 0 0 1 .311.54q-.074-.2.008.027a3.567 3.567 0 0 1 .1.37q.042.242.017.024a3.593 3.593 0 0 1 .022.4 1.319 1.319 0 1 0 2.638 0 4.85 4.85 0 0 0-4.71-4.863H26.912a4.841 4.841 0 0 0-4.71 4.864v7.389a1.353 1.353 0 0 0 1.319 1.362h85.345a1.353 1.353 0 0 0 1.319-1.362v-7.391a1.32 1.32 0 1 0-2.638 0z" transform="translate(-22.202 -151.5)"/></g></g><g id="Group_34" data-name="Group 34" transform="translate(-16.065 156.217)"><g id="Group_33" data-name="Group 33"><path id="Path_786" data-name="Path 786" class="cls-1" d="M82.065 202.1q.065-.345.012-.132a.68.68 0 0 1 .2-.344q-.152.146.1-.072l.188-.075q-.212.054.132-.012.345.065.132.012a.68.68 0 0 1 .344.2q-.146-.152.072.1l.075.188q-.054-.212.012.132-.065.345-.012.132a.68.68 0 0 1-.2.344q.152-.146-.1.072l-.188.075q.212-.054-.132.012-.345-.065-.132-.012a.68.68 0 0 1-.344-.2q.146.152-.072-.1l-.075-.188q.054.212-.012-.132a1.362 1.362 0 0 0 2.723 0 2.137 2.137 0 0 0-2.087-2.087 2.087 2.087 0 1 0 2.087 2.087 1.362 1.362 0 0 0-2.723 0z" transform="translate(-80.61 -200.008)"/></g></g><g id="Group_36" data-name="Group 36" transform="translate(-8.917 156.217)"><g id="Group_35" data-name="Group 35"><path id="Path_787" data-name="Path 787" class="cls-1" d="M155.564 202.1q.065-.345.012-.132a.68.68 0 0 1 .2-.344q-.152.146.1-.072l.188-.075q-.212.054.133-.012.345.065.132.012a.68.68 0 0 1 .344.2q-.146-.152.072.1l.075.188q-.054-.212.012.132-.065.345-.012.133a.68.68 0 0 1-.2.344q.152-.146-.1.072l-.188.075q.212-.054-.132.012-.345-.065-.133-.012a.68.68 0 0 1-.344-.2q.146.152-.072-.1l-.075-.188q.054.212-.012-.133a1.362 1.362 0 0 0 2.723 0 2.137 2.137 0 0 0-2.087-2.087 2.087 2.087 0 1 0 2.087 2.087 1.362 1.362 0 0 0-2.723 0z" transform="translate(-154.109 -200.008)"/></g></g><g id="Group_38" data-name="Group 38" transform="translate(-2.41 156.217)"><g id="Group_37" data-name="Group 37"><path id="Path_788" data-name="Path 788" class="cls-1" d="M229.064 202.1q.065-.345.012-.132a.68.68 0 0 1 .2-.344q-.152.146.1-.072l.188-.075q-.212.054.133-.012.345.065.132.012a.68.68 0 0 1 .344.2q-.146-.152.072.1l.075.188q-.054-.212.012.132-.065.345-.012.133a.68.68 0 0 1-.2.344q.152-.146-.1.072l-.188.075q.212-.054-.132.012-.345-.065-.133-.012a.68.68 0 0 1-.344-.2q.146.152-.072-.1l-.075-.188q.054.212-.012-.133a1.362 1.362 0 0 0 2.723 0 2.137 2.137 0 0 0-2.087-2.087 2.087 2.087 0 1 0 2.087 2.087 1.362 1.362 0 0 0-2.723 0z" transform="translate(-227.609 -200.008)"/></g></g><g id="Group_50" data-name="Group 50" transform="translate(5.395 172.134)"><path id="Path_794" data-name="Path 794" class="cls-1" d="M48.108 48l1.8-1.8a3.035 3.035 0 0 0 .719-3.153 5.309 5.309 0 0 1 4.29-6.983l-2.787 2.789a1.727 1.727 0 0 0-.4 1.866l1 2.531a1.813 1.813 0 0 0 .976.976L56.26 45.3a1.8 1.8 0 0 0 1.963-.4l2.628-2.628A5.363 5.363 0 0 1 54 46.393a3.046 3.046 0 0 0-3.111.74l-.59.59a1.073 1.073 0 1 0 1.512 1.512l.59-.59a.922.922 0 0 1 .933-.215 7.444 7.444 0 0 0 9.653-8.087 1.427 1.427 0 0 0-2.435-.826l-3.711 3.711-2.2-.912-.826-2.145 3.647-3.658A1.534 1.534 0 0 0 56.689 34a7.444 7.444 0 0 0-8.034 9.8.912.912 0 0 1-.2.944l-1.8 1.8A1.073 1.073 0 0 0 48.108 48z" transform="translate(-28.602 -33.938)"/><path id="Path_795" data-name="Path 795" class="cls-1" d="M30.884 62a1.523 1.523 0 0 0 1.577-.365l3.647-3.647 2.145.837.912 2.2-3.786 3.711a1.437 1.437 0 0 0 .858 2.381 7.691 7.691 0 0 0 1.073.064 7.455 7.455 0 0 0 7.025-9.718.912.912 0 0 1 .215-.933l.6-.6a1.073 1.073 0 0 0-1.512-1.512l-.6.6a3.057 3.057 0 0 0-.74 3.1 5.363 5.363 0 0 1-4.129 6.854l2.639-2.628a1.8 1.8 0 0 0 .386-1.963l-1.073-2.563a1.781 1.781 0 0 0-.987-.965l-2.5-.987a1.716 1.716 0 0 0-1.866.386l-2.8 2.8a5.363 5.363 0 0 1 6.983-4.29 3.078 3.078 0 0 0 3.153-.719l1.641-1.62a1.073 1.073 0 0 0-1.512-1.512l-1.63 1.62a.9.9 0 0 1-.944.2 7.455 7.455 0 0 0-9.8 8.023A1.512 1.512 0 0 0 30.884 62z" transform="translate(-29.791 -32.729)"/><path id="Path_796" data-name="Path 796" class="cls-1" d="M33.661 41.522a1.071 1.071 0 0 0 .868.44h1.79l10.374 10.381-.986.987a1.073 1.073 0 0 0 0 1.512l1.79 1.791a1.071 1.071 0 0 0 .6.3 3.216 3.216 0 0 1 2.711 2.681 1.073 1.073 0 0 0 .3.6l5.723 5.727a2.25 2.25 0 0 0 1.618.643 2.8 2.8 0 0 0 .551-.053 4.361 4.361 0 0 0 2.143-1.266c1.715-1.716 1.554-3.453.675-4.29l-5.723-5.727a1.071 1.071 0 0 0-.6-.3 3.216 3.216 0 0 1-2.7-2.7 1.073 1.073 0 0 0-.3-.6L50.7 49.855a1.071 1.071 0 0 0-1.511 0l-.986.987L37.83 40.46v-1.791a1.073 1.073 0 0 0-.439-.879l-2.529-1.855a1.071 1.071 0 0 0-1.393.107l-1.6 1.6a1.073 1.073 0 0 0-.107 1.394zm21.166 15.432l5.487 5.491a.354.354 0 0 1 0 .225 2.905 2.905 0 0 1-1.747 1.748h-.225l-5.487-5.491a5.362 5.362 0 0 0-2.679-3.55l1.072-1.072a5.359 5.359 0 0 0 3.552 2.681zM50.2 52.321l-1.972 1.93-.228-.225.986-.987.986-.987zM34.379 38.165l1.35.987v.654h-.654l-.986-1.351z" transform="translate(-29.663 -33.808)"/></g></g></svg>