<svg xmlns="http://www.w3.org/2000/svg" viewBox="0 0 80 80"><circle data-name="Ellipse 71" cx="40" cy="40" r="40" fill="#a3c9f8"/><path data-name="Path 810" d="M55.169 32.508c-12.309 0-12.309 12.256-12.309 12.324s-.85 12.271 12.309 12.271c0 0 10.98.623 10.98-8.543h-5.642s.19 3.432-5.148 3.432c0 0-5.634.372-5.634-5.574h16.607s1.83-13.91-11.163-13.91zm-5.513 9.613s.683-4.936 5.634-4.936 4.89 4.936 4.89 4.936zM35.57 38.993s4.89-.357 4.89-6.075-3.994-8.573-9.07-8.573H14.68v32.083h16.71s10.2.311 10.2-9.477c-.006.004.434-7.958-6.02-7.958zM22.053 30.04h9.337s2.278 0 2.278 3.341-1.329 3.8-2.84 3.8h-8.775zm8.869 20.692h-8.869v-8.61h9.337s3.387 0 3.372 4.419c-.005 3.766-2.533 4.161-3.839 4.192zm17.344-24.5v3.949H61.51v-3.945z" fill="#f1f2f2"/></svg>