<svg xmlns="http://www.w3.org/2000/svg" viewBox="0 0 80 80"><path data-name="&lt;Compound Path&gt;" d="M40 80A40 40 0 1 0 0 40a40.044 40.044 0 0 0 40 40zm0-9.316a30.263 30.263 0 0 1-17.5-5.5c2.1-3.482 8.485-12.208 22.149-17.435A136.614 136.614 0 0 1 50.56 68.8 30.331 30.331 0 0 1 40 70.684zm19.484-7.014a147.633 147.633 0 0 0-5.041-18.26 42.221 42.221 0 0 1 4.2-.206 47.787 47.787 0 0 1 11.29 1.376 30.809 30.809 0 0 1-10.449 17.09zm5.623-41.143a30.75 30.75 0 0 1 5.412 14.913 83.216 83.216 0 0 0-13.143-1.09c-2.179 0-4.287.1-6.288.3l-.16-.378c-.419-.978-.866-1.978-1.338-2.994a47.628 47.628 0 0 0 15.517-10.756zM40 9.415a30.563 30.563 0 0 1 18.921 6.552 37.054 37.054 0 0 1-13.539 9.107 177.953 177.953 0 0 0-9.7-15.357A30.7 30.7 0 0 1 40 9.415zm-14.433 3.621c1.8 2.54 5.76 8.277 9.763 15.154a121.6 121.6 0 0 1-24.737 3.269 30.88 30.88 0 0 1 14.974-18.423zM39.929 36.7q.523 1.057 1 2.08c-13.6 4.673-22.037 15.093-25.3 19.81a30.537 30.537 0 0 1-6.247-17.633A123.524 123.524 0 0 0 39.929 36.7z" fill="#a3c9f8"/></svg>