<svg id="instagram" xmlns="http://www.w3.org/2000/svg" viewBox="0 0 80 80"><defs><style>.cls-1{fill:#a3c9f8}.cls-2{fill:#fff}.cls-3{fill:#f8f8f8}</style></defs><circle id="Ellipse_72" data-name="Ellipse 72" class="cls-1" cx="40" cy="40" r="40"/><path id="Path_811" data-name="Path 811" class="cls-1" d="M168.64 126.773a79.121 79.121 0 0 1-17.363.125c-8.229-.633-20.256-4.431-24.687 3.165-7.118 12.161-3.607 27.729-1.949 41.507l24.737 24.73a47 47 0 0 0 44.4-44.391z" transform="translate(-113.846 -116.369)"/><g id="Group_52" data-name="Group 52" transform="translate(13.098 13.098)"><path id="Path_812" data-name="Path 812" class="cls-2" d="M147.244 109.468H125.5a16.047 16.047 0 0 0-16.032 16.032v21.748a16.047 16.047 0 0 0 16.032 16.025h21.748a16.047 16.047 0 0 0 16.029-16.029V125.5a16.047 16.047 0 0 0-16.029-16.028zm10.616 37.776a10.616 10.616 0 0 1-10.616 10.616H125.5a10.616 10.616 0 0 1-10.616-10.616V125.5a10.616 10.616 0 0 1 10.616-10.619h21.748A10.616 10.616 0 0 1 157.86 125.5z" transform="translate(-109.468 -109.468)"/><path id="Path_813" data-name="Path 813" class="cls-2" d="M194.118 180.2a13.916 13.916 0 1 0 13.915 13.916 13.932 13.932 0 0 0-13.915-13.916zm0 22.419a8.5 8.5 0 1 1 8.5-8.5 8.5 8.5 0 0 1-8.5 8.5z" transform="translate(-167.216 -167.216)"/></g><g id="Group_53" data-name="Group 53" transform="translate(37.095 13.098)"><path id="Path_814" data-name="Path 814" class="cls-3" d="M320.446 165.946a3.335 3.335 0 1 1-3.335-3.335 3.335 3.335 0 0 1 3.335 3.335z" transform="translate(-303.064 -152.854)"/><path id="Path_815" data-name="Path 815" class="cls-3" d="M266.405 109.468h-10.979v5.413h10.979a10.616 10.616 0 0 1 10.616 10.619v21.748a10.616 10.616 0 0 1-10.616 10.616h-10.979v5.413h10.979a16.047 16.047 0 0 0 16.028-16.029V125.5a16.047 16.047 0 0 0-16.028-16.032z" transform="translate(-255.426 -109.468)"/><path id="Path_816" data-name="Path 816" class="cls-3" d="M255.531 180.2h-.105v5.413h.105a8.5 8.5 0 0 1 0 17.006h-.105v5.413h.105a13.916 13.916 0 0 0 0-27.832z" transform="translate(-255.426 -167.216)"/></g></svg>