<svg xmlns="http://www.w3.org/2000/svg" viewBox="0 0 40 40"><circle data-name="Ellipse 69" cx="20" cy="20" r="20" fill="#a3c9f8"/><path data-name="Path 776" d="M32.385 14.265a9.657 9.657 0 0 1-2.78.762 4.855 4.855 0 0 0 2.13-2.682 9.689 9.689 0 0 1-3.072 1.173 4.844 4.844 0 0 0-8.252 4.418 13.739 13.739 0 0 1-9.978-5.054 4.844 4.844 0 0 0 1.5 6.462 4.8 4.8 0 0 1-2.191-.606v.061a4.844 4.844 0 0 0 3.881 4.736 4.859 4.859 0 0 1-2.188.083 4.844 4.844 0 0 0 4.541 3.372 9.772 9.772 0 0 1-7.184 2 13.775 13.775 0 0 0 21.189-11.602v-.625a9.815 9.815 0 0 0 2.41-2.505z" fill="#f1f2f2"/></svg>